<svg xmlns="http://www.w3.org/2000/svg" viewBox="0 0 50.4 50.4">
	<circle style="fill: #FAF3EB" cx="25.2" cy="25.2" r="25.2"/>
	<path style="fill: #66A3EB" d="M34.4,20.5c0,0.2,0,0.4,0,0.6c0,6.3-4.8,13.5-13.5,13.5c-2.7,0-5.2-0.8-7.3-2.1
				c0.4,0,0.8,0.1,1.1,0.1c2.2,0,4.3-0.8,5.9-2c-2.1,0-3.8-1.4-4.4-3.3c0.3,0.1,0.6,0.1,0.9,0.1c0.4,0,0.9-0.1,1.3-0.2
				c-2.2-0.4-3.8-2.4-3.8-4.7c0,0,0,0,0-0.1c0.6,0.4,1.4,0.6,2.2,0.6c-1.3-0.9-2.1-2.3-2.1-4c0-0.9,0.2-1.7,0.6-2.4
				c2.3,2.9,5.8,4.8,9.8,5c-0.1-0.3-0.1-0.7-0.1-1.1c0-2.6,2.1-4.8,4.8-4.8c1.4,0,2.6,0.6,3.5,1.5c1.1-0.2,2.1-0.6,3-1.2
				c-0.4,1.1-1.1,2-2.1,2.6c1-0.1,1.9-0.4,2.7-0.7C36.1,18.9,35.3,19.8,34.4,20.5L34.4,20.5z"/>
</svg>
