<svg xmlns="http://www.w3.org/2000/svg" viewBox="0 0 50.4 50.4">
	<circle style="fill: #FAF3EB" cx="25.2" cy="25.2" r="25.2"/>
	<path style="fill: #DE6262" d="M19.4,23.7c0,1.1,0,2.3,0,3.4c1.9,0.1,3.8,0,5.8,0.1c-0.8,4.3-6.6,5.6-9.7,2.9
			c-3.1-2.4-3-7.8,0.3-10c2.3-1.8,5.5-1.4,7.8,0.2c0.9-0.8,1.7-1.7,2.6-2.6c-1.9-1.5-4.2-2.6-6.7-2.5c-5.2-0.2-9.9,4.4-10,9.5
			c-0.3,4.2,2.5,8.4,6.4,9.9c3.9,1.5,8.9,0.5,11.4-3c1.7-2.2,2-5.1,1.8-7.8C25.8,23.7,22.6,23.7,19.4,23.7z"/>
	<path style="fill: #DE6262" d="M38.1,23.7c0-1,0-1.9,0-2.9c-1,0-1.9,0-2.9,0c0,1,0,1.9,0,2.9c-1,0-1.9,0-2.9,0
			c0,1,0,1.9,0,2.9c1,0,1.9,0,2.9,0c0,1,0,1.9,0,2.9c1,0,1.9,0,2.9,0c0-1,0-1.9,0-2.9c1,0,1.9,0,2.9,0c0-1,0-1.9,0-2.9
			C40.1,23.7,39.1,23.7,38.1,23.7z"/>
</svg>
