<svg xmlns="http://www.w3.org/2000/svg" xmlns:xlink="http://www.w3.org/1999/xlink" viewBox="0 0 367.8 664.9">
	<defs>
		<filter id="leaf" height="130%">
			<feGaussianBlur in="SourceAlpha" stdDeviation="2"/>
			<feOffset dx="-1" dy="2" result="offsetblur"/>
			<feComponentTransfer>
				<feFuncA type="linear" slope="0.15"/>
			</feComponentTransfer>
			<feMerge>
				<feMergeNode/>
				<feMergeNode in="SourceGraphic"/>
			</feMerge>
		</filter>

		<filter id="earth" height="200%" width="200%" y="-50%">
			<feGaussianBlur in="SourceGraphic" stdDeviation="4"/>
		</filter>

		<filter id="bottomshadow" height="130%">
			<feGaussianBlur in="SourceGraphic" stdDeviation="1"/>
		</filter>

		<filter xmlns="http://www.w3.org/2000/svg" id="circles" height="130%">
			<feGaussianBlur in="SourceAlpha" stdDeviation="2"/>
			<feOffset dx="0" dy="2" result="offsetblur"/>
			<feComponentTransfer>
				<feFuncA type="linear" slope="0.33"/>
			</feComponentTransfer>
			<feMerge>
				<feMergeNode/>
				<feMergeNode in="SourceGraphic"/>
			</feMerge>
		</filter>
	</defs>

	<g style="opacity:0.25;">
		<ellipse style="fill:#FFFFFF;" cx="275.3" cy="96.1" rx="75.1" ry="96.1"/>
	</g>
	<g style="opacity:0.5;">
		<ellipse style="fill:#FFFFFF;" cx="340.7" cy="36.3" rx="26.5" ry="33.2"/>
	</g>

<path style="fill:#4D4D4D;" d="M137.4,191.6c-10.6-23.9-34.3-39.3-60.4-39.3c-9.2,0-18.2,1.9-26.7,5.7
	C17,172.7,1.9,211.8,16.6,245.1c10.6,23.9,34.3,39.3,60.4,39.3c9.2,0,18.2-1.9,26.7-5.7C137,264,152.1,224.9,137.4,191.6z
	 M136.1,192.2c1.3,2.9,2.3,5.8,3.1,8.8l-9.2-6.3l1.5-11C133.2,186.4,134.8,189.2,136.1,192.2z M116.5,258.4l-36.2-37.7l46.9,23
	C124.5,249.1,120.9,254.1,116.5,258.4z M128.5,244.4l5.2,2.6l-8.9,3.7C126.1,248.6,127.4,246.5,128.5,244.4z M100.4,269.5
	l-21.2-47.8l36.2,37.7C111.2,263.4,106.1,266.9,100.4,269.5z M116.5,260.4l4,4.2l-9.6,0.4C112.9,263.6,114.7,262,116.5,260.4z
	 M37.5,178.3L73.8,216l-46.9-23C29.6,187.6,33.2,182.6,37.5,178.3z M25.6,192.3l-5.3-2.6l8.9-3.7C27.9,188.1,26.7,190.2,25.6,192.3z
	 M131.4,204.2l-50.7,12.5l43.4-29.1c1.6,2.5,3.1,5.2,4.4,8C129.7,198.4,130.7,201.3,131.4,204.2z M130.4,196.6l8.4,5.7l-6,1.5
	C132.2,201.4,131.4,199,130.4,196.6z M133,223.7l-52-5.6l50.7-12.5C133.2,211.6,133.6,217.7,133,223.7z M79.9,215.5l30.8-42.2
	c4.8,3.6,9.1,8,12.6,13.1L79.9,215.5z M78.8,214.7l14.5-50.2c5.9,1.8,11.3,4.5,16.3,8L78.8,214.7z M77.5,214.3l-3.5-52.2
	c1-0.1,2-0.1,3.1-0.1c5.1,0,10.2,0.7,15,2L77.5,214.3z M77,218.4L77,218.4L77,218.4L77,218.4L77,218.4z M76.1,214.5l-21.2-47.8
	c5.7-2.4,11.6-3.9,17.6-4.4L76.1,214.5z M74.8,215l-36.2-37.7c4.3-4.1,9.4-7.5,15.1-10.1L74.8,215z M37.6,176.3l-4-4.2l9.6-0.4
	C41.2,173.1,39.3,174.7,37.6,176.3z M73.1,217.2l-52-5.6c0.7-6.1,2.5-11.9,5.1-17.4L73.1,217.2z M21,213l52,5.6l-50.8,12.5
	C20.8,225.1,20.5,219,21,213z M19.8,211.5l-5.8-0.6l7.1-6.5C20.5,206.7,20.1,209.1,19.8,211.5z M19.6,212.9c-0.2,2.5-0.3,5-0.2,7.6
	l-5.9-8.2L19.6,212.9z M20.9,231.5l-5.7,1.4l4.5-8.5C19.9,226.7,20.3,229.1,20.9,231.5z M21.2,232.9c0.6,2.4,1.4,4.8,2.4,7.2
	l-8.4-5.7L21.2,232.9z M22.6,232.5L73.3,220l-43.4,29.1c-1.6-2.5-3.1-5.2-4.4-8C24.3,238.3,23.3,235.4,22.6,232.5z M74.1,221.2
	l-30.8,42.2c-4.8-3.6-9.1-8-12.6-13.1L74.1,221.2z M75.2,222l-14.5,50.2c-5.9-1.8-11.4-4.5-16.3-8L75.2,222z M76.6,222.4l3.5,52.2
	c-1,0.1-2,0.1-3.1,0.1c-5.1,0-10.2-0.7-15-2L76.6,222.4z M78,222.2L99.1,270c-5.7,2.4-11.6,3.9-17.6,4.4L78,222.2z M80.9,219.5
	l51.9,5.6c-0.7,6.1-2.5,11.9-5.1,17.4L80.9,219.5z M134.3,225.2l5.8,0.6l-7.1,6.5C133.5,230,134,227.6,134.3,225.2z M134.4,223.8
	c0.2-2.5,0.3-5,0.2-7.5l5.9,8.2L134.4,223.8z M133.1,205.2l5.7-1.4l-4.5,8.5C134.1,209.9,133.7,207.6,133.1,205.2z M128.8,193.1
	c-1.1-2.2-2.3-4.3-3.6-6.3l4.9-3.3L128.8,193.1z M124.5,185.6c-1.4-2.1-3-4.1-4.7-5.9l9.8,2.5L124.5,185.6z M129.5,180.8l-10.8-2.8
	l-2.4-10.9C121.4,171,125.8,175.5,129.5,180.8z M117.1,176.9c-1.7-1.7-3.6-3.3-5.5-4.7l3.4-4.7L117.1,176.9z M110.4,171.4
	c-2.1-1.5-4.2-2.8-6.5-4l10.1-1L110.4,171.4z M113.5,165.1l-11.1,1.1l-6-9.4C102.5,158.7,108.3,161.5,113.5,165.1z M100.5,165.7
	c-2.2-1-4.5-1.8-6.8-2.5l1.6-5.6L100.5,165.7z M92.4,162.8c-2.4-0.7-4.9-1.2-7.4-1.5l9.1-4.4L92.4,162.8z M77,153.7
	c5.5,0,10.9,0.7,16.2,2.1l-10.1,4.8l-8.9-6.8C75.1,153.8,76,153.7,77,153.7z M81.1,160.8c-1.3-0.1-2.7-0.1-4.1-0.1
	c-1.1,0-2.1,0-3.2,0.1l-0.4-5.8L81.1,160.8z M72.4,160.9c-2.5,0.2-5,0.5-7.5,1.1l7-7.2L72.4,160.9z M70.8,154l-7.8,8l-10.6-3.4
	C58.3,156.2,64.4,154.6,70.8,154z M61.2,162.9c-2.3,0.7-4.6,1.5-6.8,2.4L52,160L61.2,162.9z M50.6,160.3l2.5,5.6
	c-2.3,1.1-4.5,2.3-6.7,3.6L50.6,160.3z M49.1,160.1l-4.6,10.2l-11.1,0.5C38,166.5,43.2,162.9,49.1,160.1z M36.6,177.3
	c-1.8,1.8-3.5,3.7-5,5.7l0.8-10.1L36.6,177.3z M30.9,173.1L30,184.3l-10.3,4.2C22.7,182.9,26.4,177.7,30.9,173.1z M25,193.6
	c-1.1,2.3-2,4.6-2.8,7.1l-2.7-9.8L25,193.6z M18.2,191.7l3,10.7l-8.2,7.5C13.8,203.6,15.6,197.4,18.2,191.7z M12.6,213.4l6.5,9.1
	l-5.2,9.9C12.5,226,12.1,219.6,12.6,213.4z M17.9,244.5c-1.3-2.9-2.3-5.8-3.2-8.8L24,242l-1.5,11.1
	C20.8,250.4,19.3,247.5,17.9,244.5z M25.2,243.6c1.1,2.2,2.3,4.3,3.6,6.3l-4.8,3.3L25.2,243.6z M29.5,251.1c1.4,2.1,3,4.1,4.7,5.9
	l-9.8-2.5L29.5,251.1z M24.5,255.9l10.8,2.8l2.4,10.9C32.7,265.7,28.2,261.2,24.5,255.9z M37,259.8c1.7,1.7,3.6,3.3,5.5,4.7
	l-3.4,4.7L37,259.8z M43.6,265.3c2.1,1.5,4.2,2.8,6.5,4l-10.1,1L43.6,265.3z M40.5,271.6l11.1-1.1l6,9.4
	C51.5,278,45.7,275.2,40.5,271.6z M53.5,271c2.2,1,4.5,1.8,6.8,2.5l-1.6,5.6L53.5,271z M61.7,273.9c2.4,0.7,4.9,1.2,7.4,1.5
	l-9.1,4.4L61.7,273.9z M77,283c-5.5,0-10.9-0.7-16.1-2.1l10.1-4.8l8.9,6.8C78.9,282.9,78,283,77,283z M73,275.9
	c1.3,0.1,2.7,0.1,4.1,0.1c1.1,0,2.1,0,3.2-0.1l0.4,5.8L73,275.9z M81.6,275.8c2.5-0.2,5-0.5,7.5-1.1l-7.1,7.2L81.6,275.8z
	 M83.3,282.7l7.8-8l10.6,3.4C95.8,280.5,89.6,282.1,83.3,282.7z M92.9,273.8c2.3-0.7,4.6-1.5,6.8-2.4l2.4,5.4L92.9,273.8z
	 M103.5,276.4l-2.5-5.6c2.3-1.1,4.5-2.2,6.7-3.6L103.5,276.4z M104.9,276.6l4.6-10.1l11.1-0.5C116.1,270.2,110.8,273.8,104.9,276.6z
	 M117.5,259.4c1.8-1.8,3.5-3.6,5-5.6l-0.8,10L117.5,259.4z M123.2,263.5l0.9-11.1l10.2-4.2C131.4,253.8,127.6,259,123.2,263.5z
	 M129.1,243.1c0.6-1.3,1.2-2.6,1.7-4c0.4-1,0.7-2,1.1-3.1l2.7,9.8L129.1,243.1z M135.8,245l-3-10.7l8.2-7.5
	C140.2,233.1,138.4,239.2,135.8,245z M134.9,214.3l5.2-9.9c1.4,6.3,1.8,12.7,1.3,18.9L134.9,214.3z"/>
	<g style="filter: url(#circles);">
		<circle style="fill:#BFBFBF;" cx="48" cy="152.8" r="5.7"/>
		<circle style="fill:#BFBFBF;" cx="27.3" cy="166.6" r="5.7"/>
		<circle style="fill:#BFBFBF;" cx="12.6" cy="186.7" r="5.7"/>
		<circle style="fill:#BFBFBF;" cx="5.7" cy="210.7" r="5.7"/>
		<circle style="fill:#BFBFBF;" cx="7.4" cy="235.5" r="5.7"/>
		<circle style="fill:#BFBFBF;" cx="17.5" cy="258.3" r="5.7"/>
		<circle style="fill:#BFBFBF;" cx="34.7" cy="276.2" r="5.7"/>
		<circle style="fill:#BFBFBF;" cx="57.1" cy="287.2" r="5.7"/>
		<circle style="fill:#BFBFBF;" cx="81.8" cy="289.8" r="5.7"/>
		<circle style="fill:#BFBFBF;" cx="106" cy="283.9" r="5.7"/>
		<circle style="fill:#BFBFBF;" cx="126.7" cy="270" r="5.7"/>
		<circle style="fill:#BFBFBF;" cx="141.4" cy="249.9" r="5.7"/>
		<circle style="fill:#BFBFBF;" cx="148.3" cy="226" r="5.7"/>
		<circle style="fill:#BFBFBF;" cx="146.6" cy="201.1" r="5.7"/>
		<circle style="fill:#BFBFBF;" cx="136.5" cy="178.3" r="5.7"/>
		<circle style="fill:#BFBFBF;" cx="119.3" cy="160.4" r="5.7"/>
		<circle style="fill:#BFBFBF;" cx="96.9" cy="149.4" r="5.7"/>
		<circle style="fill:#BFBFBF;" cx="72.2" cy="146.8" r="5.7"/>
	</g>

	<path style="fill:#4D4D4D;" d="M77,218.4l47.2,67.1l-30.1,13.3L77,218.4 M75.2,214.4c-1.9,0.8-2.9,2.9-2.5,4.9
			l17.1,80.4c0.3,1.3,1.1,2.4,2.3,3c1.2,0.6,2.6,0.6,3.8,0.1l30.1-13.3c0,0,0,0,0,0c1.2-0.5,2.1-1.6,2.4-2.8c0.3-1.3,0.1-2.6-0.6-3.7
			l-47.2-67.1C79.4,214.2,77.2,213.5,75.2,214.4C75.3,214.4,75.2,214.4,75.2,214.4L75.2,214.4z"/>
	<path style="filter: url(#leaf); fill:#FFFFFF;" d="M341.6,292.7c-6.8-2.8-9.6-8.7-22.1-17.9c-15.6-11.4-19.5-10.6-20.4-18.2
		c-1.3-10.8,10.5-15.9,13.9-5.6c23.6-20.1,48.3,4.5,34.6,17.6C365.6,276,356.7,298.9,341.6,292.7z"/>
	<path style="filter: url(#leaf); fill:#A5CC6C;" d="M318.5,211.9c-0.1-0.1-0.2-0.1-0.3-0.1c-0.1-0.1-0.2-0.2-0.3-0.2
		c-12.1-6.8-42.8,4.8-77.1,66.9c-11.8,21.4,1.7,27.8,17.9,37c16.1,9.4,28.5,17.8,41-3.3C336,251.3,330.5,218.9,318.5,211.9z"/>
	<path style="filter: url(#leaf); fill:#A5CC6C;" d="M96.3,239.6c24.1-11,52.9-0.6,55.9,24.8c1.8,14.8-11.5,14.7-35.2,25.7
			c-17.6,8.2-33.2,25.6-43.8,4.5C63.5,275.2,73.8,249.9,96.3,239.6z"/>
	<path style="filter: url(#leaf); fill:#A5CC6C;" d="M151,281c-11.6,2.3-20.9-4-24.6-20.6c-13.4-59.1-5.9-94.4,1.1-96.5
					c4.7-1.4,17.5,11,28,29c12.5,21.5,19.6,43.2,20.9,53.9C179.3,269.7,176.3,275.9,151,281z"/>
	<path style="filter: url(#leaf); fill:#FFFFFF;" d="M81.4,284c23.3-13.5,35.1-9.5,38.3-17.7c7.9-20.5-18.5-34.1-33.7-13.3
		c-15.8-10.9-42.7-12-57.7,13.8c-11,19,5,55,22.2,41.1C54.7,304.4,60.6,296,81.4,284z"/>
	<circle style="fill:#8ACDEB;" cx="185.3" cy="459.1" r="182.5"/>
	<defs>
		<circle id="XMLID_4939_" cx="185.3" cy="459.1" r="182.5"/>
	</defs>
	<clipPath id="XMLID_12_">
		<use xlink:href="#XMLID_4939_"  style="overflow:visible;"/>
	</clipPath>

	<defs>
		<circle id="XMLID_4933_" cx="185.3" cy="459.1" r="182.5"/>
	</defs>
	<clipPath id="XMLID_18_">
		<use xlink:href="#XMLID_4933_"  style="overflow:visible;"/>
	</clipPath>

	<g style="opacity:0.33;">
		<defs>
			<circle id="XMLID_4926_" style="opacity:0.33;" cx="185.3" cy="459.1" r="182.5"/>
		</defs>
		<clipPath id="XMLID_19_">
			<use xlink:href="#XMLID_4926_"  style="overflow:visible;"/>
		</clipPath>
	</g>

	<defs>
		<circle id="XMLID_4903_" cx="185.3" cy="459.1" r="182.5"/>
	</defs>
	<clipPath id="XMLID_20_">
		<use xlink:href="#XMLID_4903_"  style="overflow:visible;"/>
	</clipPath>

	<g style="opacity:0.77;">
		<circle style="fill:#FFFFFF;" cx="114.5" cy="237.8" r="50.4"/>
	</g>

	<path style="fill:#D19979;" d="M156,257.3c-5.6,0-10.1-4.5-10.1-10.1l-0.1-121.9c0-5.6,4.5-10.1,10.1-10.1
			c0,0,0,0,0,0c5.6,0,10.1,4.5,10.1,10.1l0.1,121.9C166,252.7,161.5,257.3,156,257.3C156,257.3,156,257.3,156,257.3z"/>

	<g style="opacity:0.77;">
		<circle id="XMLID_4891_" style="fill:#FFFFFF;" cx="254.7" cy="237.8" r="50.4"/>
	</g>
	<path style="fill:#FFD4A5;" d="M311.9,352.4c-10.6-0.1-25.2-18-40.2-10.7c-43.9,21.3-60.7,60.6-36.5,98.5
		c15.6,24.4,71.6,1.7,80.4,29.5c8.6,26.9,5.5,67.1,31.5,73.9c13.2-25.3,20.7-54,20.7-84.5c0-43.2-15-82.8-40.1-114.1
		C325.2,349.2,320.1,352.5,311.9,352.4z"/>
	<path style="fill:#FFD4A5;" d="M248.4,313.6c-9.9,7.3,1,19.9,16.4,20.4c4.8,0.2,25.3-9.5,42.2-10.8
		c-13.1-11.8-28-21.7-44.1-29.3C262.1,299.7,258.2,306.2,248.4,313.6z"/>
	<path style="fill:#FFD4A5;" d="M26.4,448.2C40,466.4,14.8,498.7,56,525c40.8,26.1,37.8,67.4,84.6,86
		c8.6,3.4,9.7-2.2,7.3-24c-3.6-33.4-9.2-51.1-5.1-64.3c10.5-34.4,20.1-56.7,2.8-63.6C119,448.5,86.7,430.3,72,431.2
		c-17.2,1-28,26.9-34,12.6c-13.6-32.2,7.2-43.1,46.9-49.1c22.4-3.4,5.7-59.7,54.4-53.1c24.7,3.4,41.8-17.6,23.6-36.8
		c1.6,1.7,6.1,6.5,0,0c-0.7-0.8-0.5-0.6,0,0c-14.8-15.8-37.8-15.7-60.8-8.2c-42.3,21.6-75,59.3-90.2,104.9
		C12,417.7,16,434.2,26.4,448.2z"/>

	<circle style="fill:#EEAE8A;" cx="242.9" cy="122.8" r="14.8"/>

	<path style="filter: url(#earth); opacity:0.5;fill:#FFF6C8;" d="M308.1,324.1c-32.4-29.5-75.5-47.5-122.8-47.5
	c-46.6,0-89.2,17.5-121.4,46.3c32.6-8.3,74.3-18.1,119.7-18.1C231.2,304.7,274.8,315.6,308.1,324.1z"/>
	<path style="fill:#DE6262;" d="M261.7,114.1c-1.9-12.4-12.7-23.2-35.7-23.2c-9,0-16.7,4.1-14.2,5
				c12.4,4.6,22.4,16.5,22.6,31.1v8.6c0,2,1.6,3.6,3.6,3.6c2,0,3.6-1.6,3.6-3.6v-12.4c0.6-5.1,4.8-5.1,16.4-5.1
				C261,118.1,261.9,115.7,261.7,114.1z"/>

	<path style="fill:#4D4D4D;" d="M254.7,187.5c-7.2,0-14.1,1.5-20.3,4.3l-5.6-10.7h25.6c1.9,0,3.4-1.5,3.4-3.4
	s-1.5-3.4-3.4-3.4H152.5l-9.2-18.8h3c1.9,0,3.4-1.5,3.4-3.4s-1.5-3.4-3.4-3.4h-16.8c-1.9,0-3.4,1.5-3.4,3.4s1.5,3.4,3.4,3.4h6.3
	l11.2,22.9l-9.1,14.9c-7-3.7-15-5.8-23.4-5.8c-27.8,0-50.4,22.6-50.4,50.4c0,27.8,22.6,50.4,50.4,50.4c26.7,0,48.5-20.8,50.2-47
	c1.5,6.9,7.7,12.1,15.1,12.1c8.5,0,15.5-6.9,15.5-15.5c0-3.6-1.2-6.9-3.3-9.6l29.6-46.4l6.8,13c-14.5,8.9-24.1,24.8-24.1,43
	c0,27.8,22.6,50.4,50.4,50.4c27.8,0,50.4-22.6,50.4-50.4C305,210,282.5,187.5,254.7,187.5z M114.5,281.5
	c-24.1,0-43.7-19.6-43.7-43.7s19.6-43.7,43.7-43.7c7.2,0,13.9,1.7,19.9,4.8l-22.8,37.1c-0.6,1-0.7,2.3-0.1,3.4
	c0.6,1.1,1.7,1.7,2.9,1.7H158C156.3,263.7,137.4,281.5,114.5,281.5z M120.5,234.5l19.6-32c10.1,7.3,16.9,18.8,17.9,32H120.5z
	 M164.7,234.5c-1-15.6-9.1-29.2-21.1-37.7l6.9-11.2l19.7,40.2C167.5,227.9,165.5,231,164.7,234.5z M179.8,246.8
	c-4.9,0-8.9-4-8.9-8.9s4-8.9,8.9-8.9c4.9,0,8.9,4,8.9,8.9S184.7,246.8,179.8,246.8z M186.7,224c-2.1-1-4.4-1.6-6.9-1.6
	c-1.2,0-2.4,0.2-3.6,0.4L155.8,181h58.4L186.7,224z M254.7,281.5c-24.1,0-43.7-19.6-43.7-43.7c0-15.6,8.2-29.3,20.5-37l20.1,38.6
	c0.6,1.1,1.8,1.8,3,1.8c0.5,0,1.1-0.1,1.6-0.4c1.6-0.9,2.3-2.9,1.4-4.5l-20.2-38.6c5.3-2.3,11.1-3.5,17.2-3.5
	c24.1,0,43.7,19.6,43.7,43.7S278.7,281.5,254.7,281.5z"/>

	<path style="fill:#EEAE8A;" d="M192.8,229.7c-5.6,0-10.1-4.5-10.1-10.1v-53.8L150.9,134
				c-3.9-3.9-3.9-10.3,0-14.2c3.9-3.9,10.3-3.9,14.2,0l34.8,34.8c1.9,1.9,2.9,4.4,2.9,7.1v57.9C202.9,225.2,198.3,229.7,192.8,229.7z"/>

	<path style="fill:none;" d="M156.1,137.9c-3.4,0-6.9-1.2-9.6-3.7c-5.8-5.3-6.2-14.3-0.9-20.2
		c10.5-11.5,24.7-17.5,39.8-16.8c13.8,0.6,27.7,7,34.5,15.8c4.8,6.3,3.6,15.2-2.7,20c-6.3,4.8-15.2,3.6-20-2.7
		c-1-1.2-6.3-4.6-13.7-4.7c-6.5-0.1-12.2,2.4-16.9,7.6C163.8,136.3,159.9,137.9,156.1,137.9z"/>

	<path style="fill:#586985;" d="M156.1,137.9c-3.4,0-6.9-1.2-9.6-3.7c-5.8-5.3-6.2-14.3-0.9-20.2
			c10.5-11.5,24.7-17.5,39.8-16.8c13.8,0.6,27.7,7,34.5,15.8c4.8,6.3,3.6,15.2-2.7,20c-6.3,4.8-15.2,3.6-20-2.7
			c-1-1.2-6.3-4.6-13.7-4.7c-0.1,0-0.3,0-0.4,0c-6.3,0-11.9,2.6-16.5,7.6C163.8,136.3,159.9,137.9,156.1,137.9z"/>

	<path style="fill:#FFFFFF;" d="M148.5,126.5c9.9-13.7,22.1-20.2,36.2-19.5c13.5,0.7,24.7,8.3,26.9,12.1
		c2.2,3.9,6.9,5.5,11,4.1c0.4-3.5-0.5-7.2-2.8-10.2c-6.8-8.9-20.6-15.2-34.5-15.8c-15.2-0.7-29.3,5.3-39.8,16.8
		c-4.1,4.5-4.8,10.9-2.2,16C145.3,129.5,147.2,128.3,148.5,126.5z"/>

	<path style="fill:#DE6262;" d="M144.5,122.6c15.7-22,38.8-23.6,55.1-17.7c10.9,3.9,18.9,11.3,18.5,17.3
			c-0.1,2.3,1.5,4.2,3.7,4.5c1.6-4.4,1-9.6-2-13.6c-6.8-8.9-20.6-15.2-34.5-15.8c-15.2-0.7-29.3,5.3-39.8,16.8
			c-2.7,2.9-3.9,6.6-3.7,10.3C142.9,124.1,143.9,123.5,144.5,122.6z"/>

	<path style="fill:#FFFFFF;" d="M181.2,97.1c-2.8,0.1-5.5,0.4-8.2,1c0,0,0.1,0,0.1,0.1c12.8,7.4,30,17.4,32.2,37.4
		c1.6,0.4,3.4,0.5,5,0.2C208.5,115.9,193.7,104.7,181.2,97.1z"/>
	<path style="fill:#FFFFFF;" d="M185.4,97.1c-1.4-0.1-2.9,0-4.3,0c-4,7.8-6.4,18.1-6.9,30.4
		c1.6-0.7,3.3-1.3,5.1-1.6c0.6-12.1,3.2-21.8,7.4-28.7C186.3,97.2,185.8,97.2,185.4,97.1z"/>
	<path style="fill:#FFFFFF;" d="M203.5,101.2c-1.9-0.8-3.8-1.5-5.8-2c-4.8,4.8-7.8,14.5-8.5,27.2
		c2,0.5,3.6,1.2,4.9,1.9C194.8,110.8,200,102.5,203.5,101.2z"/>
	<path style="fill:#DE6262;" d="M186.7,97.2c-4.2,6.9-6.8,16.7-7.4,28.7c1.4-0.2,2.8-0.3,4.2-0.3
		c2.1,0,4.1,0.3,5.8,0.8c0.7-12.8,3.7-22.5,8.5-27.2C194.2,98.2,190.5,97.5,186.7,97.2z"/>
	<path style="opacity:0.33;" d="M199.7,133c5,3.9,12.1,4.1,17.4,0.1c0.6-0.4,1.1-0.9,1.6-1.4l-9.4-11L199.7,133z"/>
	<path style="fill:#EEAE8A;" d="M257.8,174.2h-42.9c-4.6,0-8.4-3.8-8.4-8.4v-40.2c0-4.6,3.8-8.4,8.4-8.4
				s8.4,3.8,8.4,8.4v31.8h34.5c4.6,0,8.4,3.8,8.4,8.4S262.5,174.2,257.8,174.2z"/>

	<path style="fill:#FFFFFF;" d="M155.9,148.6L144,136.8c-5.6-5.4-5.8-14.3-0.4-19.9c5.4-5.6,14.3-5.8,19.9-0.4
				l11.9,11.8L155.9,148.6z"/>

<ellipse style="filter: url(#bottomshadow); opacity:0.4;fill:#403939;" cx="191.8" cy="664" rx="104.9" ry="1"/>
<radialGradient id="XMLID_21_" cx="201.6484" cy="274.3283" r="367.4156" gradientUnits="userSpaceOnUse">
	<stop offset="0.1587" style="stop-color:#FFFFFF;stop-opacity:0"/>
	<stop offset="0.2402" style="stop-color:#F8F8F8;stop-opacity:0.1076"/>
	<stop offset="0.3573" style="stop-color:#E5E5E5;stop-opacity:0.2624"/>
	<stop offset="0.496" style="stop-color:#C6C6C7;stop-opacity:0.4458"/>
	<stop offset="0.6513" style="stop-color:#9B9A9C;stop-opacity:0.651"/>
	<stop offset="0.8182" style="stop-color:#646365;stop-opacity:0.8716"/>
	<stop offset="0.9153" style="stop-color:#414042"/>
</radialGradient>
<circle style="opacity:0.25;fill:url(#XMLID_21_);" cx="185.3" cy="459.2" r="182.5"/>
<path style="fill:none;" d="M219.8,113c-6.8-8.9-20.6-15.2-34.5-15.8c-1.4-0.1-2.8,0-4.2,0
	c12.5,7.6,27.4,18.7,29.1,38.6c2.4-0.3,4.8-1.2,6.8-2.8C223.4,128.2,224.6,119.2,219.8,113z"/>
<path style="fill:none;" d="M173.1,98.2c0,0-0.1,0-0.1-0.1c-10.4,2.1-19.9,7.5-27.5,15.8
	c-5.3,5.8-4.9,14.8,0.9,20.2c2.7,2.5,6.2,3.7,9.6,3.7c3.9,0,7.7-1.6,10.5-4.6c4.7-5.1,10.3-7.7,16.9-7.6c7.4,0.1,12.7,3.5,13.7,4.7
	c2.1,2.7,5,4.5,8.1,5.2C203.1,115.6,185.9,105.6,173.1,98.2z"/>
<path style="fill:none;" d="M145.5,114c-5.3,5.8-4.9,14.8,0.9,20.2c2.7,2.5,6.2,3.7,9.6,3.7c3.9,0,7.7-1.6,10.5-4.6
	c2.3-2.5,4.8-4.4,7.6-5.7c0.5-12.3,2.8-22.6,6.9-30.4C167.5,97.7,155.1,103.5,145.5,114z"/>
<path style="fill:none;" d="M219.8,113c-3.7-4.8-9.5-8.9-16.3-11.8c-3.5,1.3-8.7,9.5-9.3,27.1c1.5,0.8,2.6,1.6,3,2
	c4.8,6.2,13.7,7.4,20,2.7C223.4,128.2,224.6,119.2,219.8,113z"/>
<path style="fill:none;" d="M209.2,120.6l9.4,11c4.8-5,5.4-12.9,1.1-18.6c-6.8-8.9-20.6-15.2-34.5-15.8
	c-15.2-0.7-29.3,5.3-39.8,16.8c-5.3,5.8-4.9,14.8,0.9,20.2c2.7,2.5,6.2,3.7,9.6,3.7c3.9,0,7.7-1.6,10.5-4.6
	c4.7-5.1,10.3-7.7,16.9-7.6c7.4,0.1,12.7,3.5,13.7,4.7c0.8,1,1.7,1.9,2.6,2.6L209.2,120.6z"/>
</svg>
