<svg xmlns="http://www.w3.org/2000/svg" viewBox="0 0 356.2 567.3">
    <defs>
        <style>
            .cls-1{fill:#ffe3f0;}
            .cls-2,.cls-25{fill:#fff;}
            .cls-3{opacity:0.2;}
            .cls-4{fill:#ffe3fb;}
            .cls-5{opacity:0.3;}
            .cls-6{fill:#f0f8ff;}
            .cls-7{fill:#8acdeb;}
            .cls-8{fill:url(#radial-gradient);}
            .cls-27,.cls-9{opacity:0.25;}
            .cls-11,.cls-18,.cls-25,.cls-26,.cls-27,.cls-9{isolation:isolate;}
            .cls-9{fill:url(#linear-gradient);}.cls-10{fill:#cf5555;}
            .cls-11{opacity:0.22;}
            .cls-12{fill:url(#linear-gradient-2);}
            .cls-13{fill:#474747;}
            .cls-14,.cls-20{fill:none;stroke-miterlimit:10;}
            .cls-14{stroke:#ffdd75;stroke-width:5.43px;}
            .cls-15{fill:#f26666;}
            .cls-16{fill:url(#radial-gradient-2);}
            .cls-17{fill:url(#radial-gradient-3);}
            .cls-18{opacity:0.15;}
            .cls-19{fill:#b2ddf0;}
            .cls-20{stroke:#ad4d4d;stroke-width:1.54px;}
            .cls-21{fill:#333;}.cls-22{fill:#4d4d4d;}
            .cls-23{fill:#4f4f4f;}
            .cls-24{fill:url(#radial-gradient-4);}
            .cls-25{opacity:0.33;}
            .cls-26{fill:#403939;opacity:0.4;}
            .cls-27{fill:url(#radial-gradient-5);}
            .cls-28{fill:#ffd4a5;}
        </style>

        <filter id="star" height="130%">
            <feGaussianBlur in="SourceGraphic" stdDeviation="2"/>
        </filter>

        <filter id="bottomshadow" height="130%">
            <feGaussianBlur in="SourceGraphic" stdDeviation="0.35"/>
        </filter>

        <radialGradient id="radial-gradient" cx="-1332.25" cy="3624.21" r="52.51"
                        gradientTransform="matrix(0.84, -0.54, -0.54, -0.84, 3238.27, 2557.47)"
                        gradientUnits="userSpaceOnUse">
            <stop offset="0" stop-color="#fff8e6"/>
            <stop offset="1" stop-color="#fff8e6" stop-opacity="0"/>
        </radialGradient>
        <linearGradient id="linear-gradient" x1="172.54" y1="367.8" x2="172.54" y2="168.77"
                        gradientTransform="matrix(1, 0, 0, -1, 0, 404.29)" gradientUnits="userSpaceOnUse">
            <stop offset="0" stop-opacity="0.44"/>
            <stop offset="1"/>
        </linearGradient>
        <linearGradient id="linear-gradient-2" x1="-1398.45" y1="3557.08" x2="-1337.41" y2="3619.2"
                        gradientTransform="matrix(0.84, -0.54, -0.54, -0.84, 3238.27, 2557.47)"
                        gradientUnits="userSpaceOnUse">
            <stop offset="0" stop-color="#ff8757"/>
            <stop offset="0.2" stop-color="#ff8c59"/>
            <stop offset="0.43" stop-color="#ff995d"/>
            <stop offset="0.66" stop-color="#ffb065"/>
            <stop offset="0.91" stop-color="#ffcf70"/>
            <stop offset="1" stop-color="#ffdd75"/>
        </linearGradient>
        <radialGradient id="radial-gradient-2" cx="340.06" cy="227.92" r="178.91"
                        gradientTransform="matrix(-0.21, 0.98, 0.29, 0.06, 206.83, -309.47)"
                        gradientUnits="userSpaceOnUse">
            <stop offset="0" stop-color="#3970a1"/>
            <stop offset="0.14" stop-color="#386593"/>
            <stop offset="0.36" stop-color="#375984"/>
            <stop offset="0.62" stop-color="#36527b"/>
            <stop offset="1" stop-color="#365078"/>
        </radialGradient>
        <radialGradient id="radial-gradient-3" cx="344.38" cy="238.65" r="186.16"
                        gradientTransform="matrix(-0.22, 0.98, 0.29, 0.07, 212.4, -322.46)"
                        gradientUnits="userSpaceOnUse">
            <stop offset="0" stop-color="#6890cc"/>
            <stop offset="0.57" stop-color="#557cb6"/>
            <stop offset="1" stop-color="#446aa3"/>
        </radialGradient>
        <radialGradient id="radial-gradient-4" cx="185.32" cy="7564.69" r="24.05"
                        gradientTransform="translate(0 -7457.28)" gradientUnits="userSpaceOnUse">
            <stop offset="0" stop-color="#3970a1"/>
            <stop offset="0.49" stop-color="#46a9eb"/>
            <stop offset="1" stop-color="#24e2ff"/>
        </radialGradient>
        <radialGradient id="radial-gradient-5" cx="176.84" cy="-63.12" r="77.1"
                        gradientTransform="matrix(1, 0, 0, -1, 0, 404.29)" gradientUnits="userSpaceOnUse">
            <stop offset="0.16" stop-color="#fff" stop-opacity="0"/>
            <stop offset="0.24" stop-color="#f8f8f8" stop-opacity="0.11"/>
            <stop offset="0.36" stop-color="#e5e5e5" stop-opacity="0.26"/>
            <stop offset="0.5" stop-color="#c6c6c7" stop-opacity="0.45"/>
            <stop offset="0.65" stop-color="#9b9a9c" stop-opacity="0.65"/>
            <stop offset="0.82" stop-color="#646365" stop-opacity="0.87"/>
            <stop offset="0.92" stop-color="#414042"/>
        </radialGradient>
    </defs>


    <path style="filter: url(#star);" class="cls-1"
                  d="M356.2,308.5c0-1.1-7.6-3-14.8-6.3-2.8-9.1-5.5-22.1-6.6-22.1s-2.9,11.8-6.3,22c-7.3,3.4-15,5.2-15,6.4s8.4,3.8,15.1,6.7c3.3,10.1,5.1,21.7,6.2,21.7s3.7-12.7,6.5-21.8C348,312.2,356.2,309.5,356.2,308.5Z"/>
    <circle class="cls-2" cx="334.8" cy="308.5" r="7.7"/>

    <path style="filter: url(#star);" class="cls-1"
                  d="M74.5,195.7c0-.5-3-1.2-5.9-2.5-1.1-3.6-2.2-8.8-2.6-8.8s-1.2,4.7-2.5,8.8c-2.9,1.3-6,2.1-6,2.6s3.4,1.5,6.1,2.7c1.3,4,2.1,8.7,2.5,8.7s1.5-5.1,2.6-8.7C71.2,197.2,74.5,196.1,74.5,195.7Z"/>
    <circle class="cls-2" cx="65.9" cy="195.7" r="3.1"/>

    <path style="filter: url(#star);" class="cls-1"
                  d="M236,341.5c0-.5-3-1.2-5.9-2.5-1.1-3.6-2.2-8.8-2.6-8.8s-1.2,4.7-2.5,8.8c-2.9,1.3-6,2.1-6,2.6s3.4,1.5,6.1,2.7c1.3,4,2.1,8.7,2.5,8.7s1.5-5.1,2.6-8.7C232.7,343,236,341.9,236,341.5Z"/>
    <circle class="cls-2" cx="227.4" cy="341.5" r="3.1"/>

    <path style="filter: url(#star);" class="cls-1"
                  d="M251.9,364.7c0-.3-2.3-0.9-4.5-1.9-0.8-2.7-1.7-6.7-2-6.7s-0.9,3.6-1.9,6.6c-2.2,1-4.5,1.6-4.5,1.9s2.5,1.2,4.6,2c1,3,1.5,6.5,1.9,6.5s1.1-3.8,1.9-6.6C249.4,365.8,251.9,365,251.9,364.7Z"/>
    <circle class="cls-2" cx="245.5" cy="364.7" r="2.3"/>

    <path style="filter: url(#star);" class="cls-1"
                  d="M129.7,107.6c0-.6-4.2-1.7-8.3-3.5-1.6-5.1-3.1-12.4-3.7-12.4s-1.6,6.6-3.5,12.3c-4.1,1.9-8.4,2.9-8.4,3.6s4.7,2.1,8.5,3.8c1.9,5.7,2.9,12.1,3.5,12.1s2.1-7.1,3.6-12.2C125.1,109.7,129.7,108.2,129.7,107.6Z"/>
    <circle class="cls-2" cx="117.8" cy="107.6" r="4.3"/>
    <g class="cls-3">
        <ellipse class="cls-4" cx="250.4" cy="81.6" rx="63.8" ry="81.6"/>
    </g>
    <g class="cls-5">
        <ellipse class="cls-4" cx="306" cy="30.8" rx="22.5" ry="28.2"/>
    </g>

    <path class="cls-6" d="M173.9,15C78,15,0,93,0,188.9S78,362.8,173.9,362.8s173.9-78,173.9-173.9S269.7,15,173.9,15Zm0,347C78.4,362,.8,284.3.8,188.9S78.5,15.8,173.9,15.8,347,93.5,347,188.9,269.3,362,173.9,362Z"/>

    <circle class="cls-7" cx="173.4" cy="506.2" r="38.3"/>

    <circle class="cls-8" cx="164.9" cy="220" r="52.5"/>
    <path style="filter: url(#star);" class="cls-9" d="M218.7,193.9h0l-1.8-1.5-0.3-.3c-0.1-.1-0.2-0.1-0.3-0.2,12.2-27.7,21.6-60.3,17-90.8h0c-0.2-1-.3-2.1-0.5-3.1a0.37,0.37,0,0,0-.1-0.3c-0.2-.9-0.4-1.8-0.6-2.8a4.33,4.33,0,0,0-.1-0.5c-0.2-.8-0.4-1.7-0.6-2.5-0.1-.2-0.1-0.5-0.2-0.7l-0.6-2.4a2.35,2.35,0,0,1-.2-0.8,18.66,18.66,0,0,0-.7-2.2l-0.3-.9c-0.2-.7-0.5-1.4-0.7-2.1a6.9,6.9,0,0,0-.4-1c-0.3-.7-0.5-1.3-0.8-2-0.1-.3-0.3-0.7-0.4-1a15.39,15.39,0,0,1-.8-1.9c-0.2-.4-0.3-0.7-0.5-1.1-0.3-.6-0.6-1.2-0.9-1.9a5.36,5.36,0,0,1-.5-1.1L223.5,71c-0.2-.4-0.4-0.7-0.6-1.1-0.3-.6-0.7-1.2-1-1.7a4.13,4.13,0,0,0-.7-1.1,16.28,16.28,0,0,0-1.1-1.7,10.54,10.54,0,0,0-.7-1.1c-0.4-.6-0.8-1.1-1.2-1.7-0.3-.4-0.5-0.7-0.8-1.1-0.4-.6-0.9-1.2-1.3-1.7-0.3-.3-0.5-0.7-0.8-1-0.5-.6-1-1.2-1.5-1.9-0.2-.3-0.5-0.6-0.7-0.9-0.8-.9-1.5-1.8-2.3-2.7-1.1.5-2.2,1-3.2,1.5-0.3.2-.7,0.3-1,0.5a21.16,21.16,0,0,0-2.1,1.1l-1.2.6c-0.6.3-1.3,0.7-1.9,1-0.4.2-.8,0.5-1.2,0.7-0.6.3-1.2,0.7-1.8,1a10.54,10.54,0,0,0-1.1.7c-0.6.4-1.1,0.7-1.7,1.1-0.4.2-.7,0.5-1.1,0.7-0.6.4-1.1,0.8-1.6,1.2-0.3.3-.7,0.5-1,0.8-0.5.4-1.1,0.8-1.6,1.2a8.74,8.74,0,0,1-1,.8l-1.6,1.3c-0.3.3-.6,0.5-0.9,0.8-0.5.5-1.1,0.9-1.6,1.4-0.3.2-.5,0.5-0.8,0.7-0.5.5-1,1-1.6,1.5l-0.7.7c-0.5.5-1,1.1-1.5,1.6-0.2.2-.4,0.5-0.6,0.7-0.5.6-1,1.1-1.6,1.7l-0.6.6c-0.5.6-1.1,1.2-1.6,1.9-0.2.2-.3,0.4-0.5,0.6-0.5.7-1.1,1.4-1.6,2-0.1.1-.2,0.3-0.3,0.4-0.6.7-1.1,1.5-1.7,2.3-0.1.1-.1,0.2-0.2,0.3-0.6.9-1.2,1.7-1.8,2.6h0c-17.1,26-22.3,59.9-22.8,90.4-38.7,10.4-36.7,71-36.7,71s18.8-25.5,38.8-26.1l4.9,1.1-1.9,8.5,11.4,2.5c-0.5,9.2,0,17.1,2.1,21.3,3.6-3,7.4-9.9,10.8-18.5l11.4,2.5,1.9-8.5,4.9,1.1c0.6,0.3,1.2.6,1.7,0.9a2.09,2.09,0,0,1,.6.4c0.4,0.2.7,0.5,1.1,0.7a4.23,4.23,0,0,0,.7.5c0.3,0.2.6,0.5,0.9,0.7a4.35,4.35,0,0,0,.7.6c0.3,0.2.6,0.5,0.9,0.7a4.35,4.35,0,0,0,.7.6,6,6,0,0,1,.8.8l0.6,0.6c0.3,0.3.5,0.6,0.8,0.9a4.35,4.35,0,0,1,.6.7c0.3,0.3.5,0.6,0.8,0.9a2.65,2.65,0,0,1,.5.6c0.3,0.3.5,0.7,0.8,1s0.3,0.4.5,0.6a8.34,8.34,0,0,1,.8,1.2,1.76,1.76,0,0,0,.4.5c0.3,0.5.6,0.9,0.9,1.4a0.52,0.52,0,0,1,.2.4c0.4,0.6.7,1.1,1.1,1.7h0a99.19,99.19,0,0,1,4.7,9.1,96.13,96.13,0,0,1,5.4,14.9S248,219.9,218.7,193.9Z"/>
    <path class="cls-10" d="M213.1,178.3h0l-1.8-1.5-0.3-.3c-0.6-.5-1.3-1-2-1.5h0l-19.5,42c0.6,0.3,1.2.6,1.7,0.9a2.09,2.09,0,0,1,.6.4c0.4,0.2.7,0.5,1.1,0.7a4.23,4.23,0,0,0,.7.5c0.3,0.2.6,0.5,0.9,0.7a4.35,4.35,0,0,0,.7.6c0.3,0.2.6,0.5,0.9,0.7a4.35,4.35,0,0,0,.7.6,6,6,0,0,1,.8.8l0.6,0.6c0.3,0.3.5,0.6,0.8,0.9a4.35,4.35,0,0,1,.6.7c0.3,0.3.5,0.6,0.8,0.9a2.65,2.65,0,0,1,.5.6c0.3,0.3.5,0.7,0.8,1s0.3,0.4.5,0.6a8.34,8.34,0,0,1,.8,1.2,1.76,1.76,0,0,0,.4.5c0.3,0.5.6,0.9,0.9,1.4a0.52,0.52,0,0,1,.2.4c0.4,0.6.7,1.1,1.1,1.7h0c1.8,3.1,3.4,6.2,4.8,9.1a96.13,96.13,0,0,1,5.4,14.9S242.4,204.4,213.1,178.3Z"/>
    <path class="cls-11" d="M213.1,178.3h0l-1.8-1.5-0.3-.3c-0.6-.5-1.3-1-2-1.5h0l-19.5,42c0.6,0.3,1.2.6,1.7,0.9a2.09,2.09,0,0,1,.6.4c0.4,0.2.7,0.5,1.1,0.7a4.23,4.23,0,0,0,.7.5c0.3,0.2.6,0.5,0.9,0.7a4.35,4.35,0,0,0,.7.6c0.3,0.2.6,0.5,0.9,0.7a4.35,4.35,0,0,0,.7.6,6,6,0,0,1,.8.8l0.6,0.6c0.3,0.3.5,0.6,0.8,0.9a4.35,4.35,0,0,1,.6.7c0.3,0.3.5,0.6,0.8,0.9a2.65,2.65,0,0,1,.5.6c0.3,0.3.5,0.7,0.8,1s0.3,0.4.5,0.6a8.34,8.34,0,0,1,.8,1.2,1.76,1.76,0,0,0,.4.5c0.3,0.5.6,0.9,0.9,1.4a0.52,0.52,0,0,1,.2.4c0.4,0.6.7,1.1,1.1,1.7h0c1.8,3.1,3.4,6.2,4.8,9.1C215.3,221.3,216.7,206.7,213.1,178.3Z"/>

    <path class="cls-12" d="M144.7,312.1c39-56.5,31.8-82.7,18.9-85.6s-30.5,18-18.9,85.6h0Z"/>
    <path class="cls-2" d="M171.7,233.6c-1.9-4-4.8-6.3-8.2-7a11.92,11.92,0,0,0-10.3,2.9c-4.6,23.8,1.6,36.7,1.6,36.7S165.9,257.1,171.7,233.6Z"/>
    <path class="cls-13" d="M183.4,221.3a3,3,0,0,1-3.7,2.3L150,217a3,3,0,0,1-2.3-3.7l2.4-10.9a3,3,0,0,1,3.7-2.3l29.7,6.6a3,3,0,0,1,2.3,3.7Z"/>

    <path class="cls-14" d="M182.4,74.4"/>
    <path class="cls-15" d="M143.9,207c-20,.6-38.9,26.1-38.9,26.1s-2.1-64.8,40.8-72Z"/>
    <path class="cls-16" d="M205.2,37.4l-9,41L166.7,212.1l22.8,5C214.6,174.5,255,92.7,205.2,37.4Z"/>
    <path class="cls-17" d="M205.2,37.4l-9,41L166.7,212.1l-22.8-5C138.9,157.8,136.7,66.6,205.2,37.4Z"/>
    <path class="cls-18" d="M194.9,97.2a26.22,26.22,0,0,0-5.7-.6,26.78,26.78,0,0,0-5.9,52.9,28.1,28.1,0,0,0,5.9.6A26.75,26.75,0,0,0,194.9,97.2Z"/>
    <path class="cls-10" d="M225.1,73.4a88.65,88.65,0,0,0-20-36l-6.7,30.2Z"/>
    <path class="cls-19" d="M198.5,67.5l-2.4,10.8,31.6,7a81.52,81.52,0,0,0-2.6-11.9Z"/>
    <path class="cls-15" d="M205.2,37.4a88.84,88.84,0,0,0-33.3,24.3l26.6,5.9Z"/>
    <path class="cls-2" d="M171.9,61.7a84.82,84.82,0,0,0-7.3,9.7l31.6,7,2.4-10.8Z"/>
    <path class="cls-20" d="M216.1,179.1"/>
    <path class="cls-20" d="M216.3,178.9"/>

    <circle class="cls-21" cx="218" cy="91.4" r="3.2"/>
    <circle class="cls-22" cx="170.9" cy="81" r="3.2"/>

    <path class="cls-23" d="M192.8,83.5a3.21,3.21,0,0,0-1,4.4,3.52,3.52,0,0,0,2,1.4l1.4-6.2A2.86,2.86,0,0,0,192.8,83.5Z"/>
    <path class="cls-21" d="M197.1,84.5a3.52,3.52,0,0,0-2-1.4l-1.4,6.2a2.92,2.92,0,0,0,2.4-.4A3.25,3.25,0,0,0,197.1,84.5Z"/>

    <path class="cls-18" d="M168.4,212.2l16.3,3.6c3-11.6-.9-50.2-5.7-59.2Z"/>

    <path class="cls-19" d="M192.9,93.2l-11.5,52.3a28.1,28.1,0,0,0,5.9.6A26.74,26.74,0,0,0,192.9,93.2Z"/>
    <path class="cls-2" d="M187.2,92.6a26.78,26.78,0,0,0-5.9,52.9l11.5-52.3A24.66,24.66,0,0,0,187.2,92.6Z"/>
    <circle class="cls-24" cx="187.2" cy="119.4" r="16.8"/>
    <path class="cls-25" d="M182.6,113.2a3,3,0,0,1-2.5-1.4,2.94,2.94,0,0,1,.9-4.1,14.08,14.08,0,0,1,10.4-1.9,3,3,0,1,1-1.2,5.8,7.76,7.76,0,0,0-5.9,1.1A3.69,3.69,0,0,1,182.6,113.2Z"/>
    <path class="cls-18" d="M173,122a16.79,16.79,0,0,1,27.3-13.1,16.86,16.86,0,0,0-30,10.5,17.11,17.11,0,0,0,6.3,13.2A17.82,17.82,0,0,1,173,122Z"/>

    <path class="cls-10" d="M160.4,240.5h0l18.5-83.8C164.8,162.8,153,225.2,160.4,240.5Z"/>
    <path class="cls-10" d="M178.9,156.7l-18.5,83.8c13.1-10.8,28.6-72.3,18.5-83.8h0Z"/>
    <path class="cls-15" d="M160.4,240.5h0l18.5-83.8C164.8,162.8,153,225.2,160.4,240.5Z"/>
    <path class="cls-15" d="M178.9,156.7l-18.5,83.8c13.1-10.8,28.6-72.3,18.5-83.8h0Z"/>

    <ellipse style="filter: url(#bottomshadow);" class="cls-26" cx="173.4" cy="567.1" rx="21.5" ry="0.2"/>
    <circle class="cls-27" cx="173.4" cy="506.2" r="38.3"/>
    <path class="cls-28" d="M200,483.8c-2.2,0-5.3-3.8-8.4-2.2-9.2,4.5-12.7,12.7-7.7,20.7,3.3,5.1,15,.3,16.9,6.2,1.8,5.6,1.2,14.1,6.6,15.5a38.36,38.36,0,0,0-4.1-41.6A4,4,0,0,1,200,483.8Z"/>
    <path class="cls-28" d="M186.6,475.6c-2.1,1.5.2,4.2,3.4,4.3,1,0,5.3-2,8.9-2.3a38.32,38.32,0,0,0-9.3-6.1C189.5,472.7,188.7,474.1,186.6,475.6Z"/>
    <path class="cls-28" d="M140.1,503.9c2.9,3.8-2.4,10.6,6.2,16.1s7.9,14.2,17.8,18.1c1.8,0.7,2-.5,1.5-5-0.8-7-1.9-10.7-1.1-13.5,2.2-7.2,4.2-11.9.6-13.3-5.6-2.2-12.4-6-15.4-5.8-3.6.2-5.9,5.6-7.1,2.7-2.9-6.7,1.5-9,9.9-10.3,4.7-.7,1.2-12.5,11.4-11.1,5.2,0.7,8.8-3.7,5-7.7,0.3,0.4,1.3,1.4,0,0h0c-3.1-3.3-7.9-3.3-12.7-1.7a38.1,38.1,0,0,0-18.9,22A13.76,13.76,0,0,0,140.1,503.9Z"/>
</svg>