<svg xmlns="http://www.w3.org/2000/svg" viewBox="0 0 158.8 192.3">

	<filter id="star" height="130%">
        <feGaussianBlur in="SourceGraphic" stdDeviation="2"/>
    </filter>

	<radialGradient id="XMLID_76_" cx="86.7284" cy="45.9795" r="187.3964" gradientTransform="matrix(1 0 0 1 9.094238e-03 -34.7399)" gradientUnits="userSpaceOnUse">
			<stop offset="0" style="stop-color:#FFD975"/>
			<stop offset="0.1611" style="stop-color:#FDC86B"/>
			<stop offset="0.5036" style="stop-color:#FAA959"/>
			<stop offset="0.7953" style="stop-color:#F8974E"/>
			<stop offset="1" style="stop-color:#F7904A"/>
		</radialGradient>
		<circle style="fill:url(#XMLID_76_);" cx="79.4" cy="83.9" r="79.4"/>
	<defs>
		<filter id="Adobe_OpacityMaskFilter" filterUnits="userSpaceOnUse" x="0" y="4.5" width="158.8" height="158.8">
			<feColorMatrix  type="matrix" values="1 0 0 0 0  0 1 0 0 0  0 0 1 0 0  0 0 0 1 0"/>
		</filter>
	</defs>
	<mask maskUnits="userSpaceOnUse" x="0" y="4.5" width="158.8" height="158.8" id="SVGID_2_">
		<g id="XMLID_68_" style="filter:url(#Adobe_OpacityMaskFilter);">
		</g>
	</mask>
	<g style="opacity:0.14;mask:url(#SVGID_2_);">
		<circle id="XMLID_9343_" style="fill:#B75F00;" cx="79.4" cy="83.9" r="79.4"/>
	</g>

	<radialGradient id="XMLID_77_" cx="-1376.0403" cy="-3254.4141" r="36.7498" gradientTransform="matrix(0.8428 -0.5382 0.5382 0.8428 2986.324 2130.0159)" gradientUnits="userSpaceOnUse">
		<stop offset="0" style="stop-color:#FFF8E6"/>
		<stop offset="1" style="stop-color:#FFF8E6;stop-opacity:0"/>
	</radialGradient>
	<circle style="fill:url(#XMLID_77_);" cx="75" cy="127.8" r="36.7"/>
	<linearGradient id="XMLID_78_" gradientUnits="userSpaceOnUse" x1="80.4508" y1="-0.6297" x2="80.4508" y2="138.6453">
		<stop offset="0" style="stop-color:#000000;stop-opacity:0.44"/>
		<stop offset="1" style="stop-color:#000000"/>
	</linearGradient>
	<path style="filter: url(#star); opacity:0.25;fill:url(#XMLID_78_);" d="M112.7,109.5C112.7,109.5,112.7,109.5,112.7,109.5
		c-0.4-0.4-0.8-0.7-1.3-1.1c-0.1-0.1-0.2-0.1-0.2-0.2c-0.1-0.1-0.1-0.1-0.2-0.2c8.5-19.4,15.1-42.2,11.9-63.6h0c0,0,0,0,0,0
		c-0.1-0.7-0.2-1.4-0.4-2.2c0-0.1,0-0.2,0-0.2c-0.1-0.6-0.2-1.3-0.4-1.9c0-0.1-0.1-0.2-0.1-0.4c-0.1-0.6-0.3-1.2-0.4-1.8
		c0-0.2-0.1-0.3-0.1-0.5c-0.1-0.6-0.3-1.1-0.4-1.6c-0.1-0.2-0.1-0.4-0.2-0.6c-0.2-0.5-0.3-1-0.5-1.6c-0.1-0.2-0.1-0.4-0.2-0.6
		c-0.2-0.5-0.3-1-0.5-1.5c-0.1-0.2-0.2-0.4-0.2-0.7c-0.2-0.5-0.4-0.9-0.6-1.4c-0.1-0.2-0.2-0.5-0.3-0.7c-0.2-0.5-0.4-0.9-0.6-1.4
		c-0.1-0.2-0.2-0.5-0.3-0.7c-0.2-0.4-0.4-0.9-0.6-1.3c-0.1-0.3-0.3-0.5-0.4-0.8c-0.2-0.4-0.4-0.8-0.7-1.3c-0.1-0.3-0.3-0.5-0.4-0.8
		c-0.2-0.4-0.5-0.8-0.7-1.2c-0.2-0.3-0.3-0.5-0.5-0.8c-0.2-0.4-0.5-0.8-0.8-1.2c-0.2-0.3-0.3-0.5-0.5-0.8c-0.3-0.4-0.5-0.8-0.8-1.2
		c-0.2-0.3-0.4-0.5-0.5-0.8c-0.3-0.4-0.6-0.8-0.9-1.2c-0.2-0.2-0.4-0.5-0.5-0.7c-0.3-0.4-0.7-0.9-1-1.3c-0.2-0.2-0.3-0.4-0.5-0.6
		c-0.5-0.6-1.1-1.3-1.6-1.9c-0.8,0.3-1.5,0.7-2.3,1c-0.2,0.1-0.5,0.2-0.7,0.3c-0.5,0.2-1,0.5-1.5,0.7c-0.3,0.1-0.5,0.3-0.8,0.4
		c-0.4,0.2-0.9,0.5-1.3,0.7c-0.3,0.2-0.5,0.3-0.8,0.5c-0.4,0.2-0.8,0.5-1.2,0.7c-0.3,0.2-0.5,0.3-0.8,0.5c-0.4,0.3-0.8,0.5-1.2,0.8
		c-0.3,0.2-0.5,0.3-0.8,0.5c-0.4,0.3-0.8,0.5-1.2,0.8c-0.2,0.2-0.5,0.4-0.7,0.5c-0.4,0.3-0.8,0.6-1.1,0.9c-0.2,0.2-0.4,0.4-0.7,0.5
		c-0.4,0.3-0.7,0.6-1.1,0.9c-0.2,0.2-0.4,0.4-0.6,0.5c-0.4,0.3-0.7,0.6-1.1,1c-0.2,0.2-0.4,0.3-0.6,0.5c-0.4,0.3-0.7,0.7-1.1,1
		c-0.2,0.2-0.3,0.3-0.5,0.5c-0.4,0.4-0.7,0.7-1.1,1.1c-0.2,0.2-0.3,0.3-0.5,0.5c-0.4,0.4-0.7,0.8-1.1,1.2c-0.1,0.1-0.3,0.3-0.4,0.4
		c-0.4,0.4-0.7,0.9-1.1,1.3c-0.1,0.1-0.2,0.3-0.3,0.4c-0.4,0.5-0.8,0.9-1.1,1.4c-0.1,0.1-0.2,0.2-0.2,0.3c-0.4,0.5-0.8,1.1-1.2,1.6
		c0,0.1-0.1,0.1-0.1,0.2c-0.4,0.6-0.8,1.2-1.2,1.8c0,0,0,0,0,0C66.8,53,63.2,76.7,62.9,98.1c-27.1,7.3-25.7,49.7-25.7,49.7
		s13.2-17.9,27.2-18.3l3.4,0.8l-1.3,6l8,1.8c-0.4,6.5,0,12,1.4,14.9c2.5-2.1,5.2-6.9,7.6-12.9l8,1.8l1.3-6l3.4,0.8
		c0.4,0.2,0.8,0.4,1.2,0.7c0.1,0.1,0.3,0.2,0.4,0.3c0.3,0.2,0.5,0.3,0.8,0.5c0.2,0.1,0.3,0.2,0.5,0.3c0.2,0.2,0.4,0.3,0.7,0.5
		c0.2,0.1,0.3,0.3,0.5,0.4c0.2,0.2,0.4,0.3,0.6,0.5c0.2,0.1,0.3,0.3,0.5,0.4c0.2,0.2,0.4,0.4,0.6,0.6c0.1,0.1,0.3,0.3,0.4,0.5
		c0.2,0.2,0.4,0.4,0.6,0.6c0.1,0.2,0.3,0.3,0.4,0.5c0.2,0.2,0.4,0.4,0.6,0.7c0.1,0.1,0.2,0.3,0.4,0.4c0.2,0.2,0.4,0.5,0.6,0.7
		c0.1,0.1,0.2,0.3,0.3,0.4c0.2,0.3,0.4,0.5,0.6,0.8c0.1,0.1,0.2,0.2,0.3,0.4c0.2,0.3,0.4,0.6,0.6,1c0.1,0.1,0.1,0.2,0.2,0.2
		c0.3,0.4,0.5,0.8,0.7,1.2c0,0,0,0,0,0c1.3,2.1,2.4,4.3,3.3,6.4c2.6,5.7,3.8,10.4,3.8,10.4S133.1,127.7,112.7,109.5z"/>
	<path style="fill:#CF5555;" d="M108.7,98.6L108.7,98.6c-0.4-0.4-0.8-0.7-1.3-1.1c-0.1-0.1-0.2-0.1-0.2-0.2
		c-0.5-0.4-0.9-0.7-1.4-1c0,0,0,0,0,0l-13.6,29.4c0.4,0.2,0.8,0.4,1.2,0.7c0.1,0.1,0.3,0.2,0.4,0.3c0.3,0.2,0.5,0.3,0.8,0.5
		c0.2,0.1,0.3,0.2,0.5,0.3c0.2,0.2,0.4,0.3,0.7,0.5c0.2,0.1,0.3,0.3,0.5,0.4c0.2,0.2,0.4,0.3,0.6,0.5c0.2,0.1,0.3,0.3,0.5,0.4
		c0.2,0.2,0.4,0.4,0.6,0.6c0.1,0.1,0.3,0.3,0.4,0.5c0.2,0.2,0.4,0.4,0.6,0.6c0.1,0.2,0.3,0.3,0.4,0.5c0.2,0.2,0.4,0.4,0.6,0.7
		c0.1,0.1,0.2,0.3,0.4,0.5c0.2,0.2,0.4,0.5,0.6,0.7c0.1,0.1,0.2,0.3,0.3,0.4c0.2,0.3,0.4,0.5,0.6,0.8c0.1,0.1,0.2,0.2,0.3,0.4
		c0.2,0.3,0.4,0.6,0.6,1c0.1,0.1,0.1,0.2,0.2,0.2c0.3,0.4,0.5,0.8,0.7,1.2c0,0,0,0,0,0c1.3,2.1,2.4,4.3,3.3,6.4
		c2.6,5.7,3.8,10.4,3.8,10.4S129.2,116.9,108.7,98.6z"/>
	<path style="opacity:0.22;" d="M108.7,98.6L108.7,98.6c-0.4-0.4-0.8-0.7-1.3-1.1c-0.1-0.1-0.2-0.1-0.2-0.2
		c-0.5-0.4-0.9-0.7-1.4-1c0,0,0,0,0,0l-13.6,29.4c0.4,0.2,0.8,0.4,1.2,0.7c0.1,0.1,0.3,0.2,0.4,0.3c0.3,0.2,0.5,0.3,0.8,0.5
		c0.2,0.1,0.3,0.2,0.5,0.3c0.2,0.2,0.4,0.3,0.7,0.5c0.2,0.1,0.3,0.3,0.5,0.4c0.2,0.2,0.4,0.3,0.6,0.5c0.2,0.1,0.3,0.3,0.5,0.4
		c0.2,0.2,0.4,0.4,0.6,0.6c0.1,0.1,0.3,0.3,0.4,0.5c0.2,0.2,0.4,0.4,0.6,0.6c0.1,0.2,0.3,0.3,0.4,0.5c0.2,0.2,0.4,0.4,0.6,0.7
		c0.1,0.1,0.2,0.3,0.4,0.5c0.2,0.2,0.4,0.5,0.6,0.7c0.1,0.1,0.2,0.3,0.3,0.4c0.2,0.3,0.4,0.5,0.6,0.8c0.1,0.1,0.2,0.2,0.3,0.4
		c0.2,0.3,0.4,0.6,0.6,1c0.1,0.1,0.1,0.2,0.2,0.2c0.3,0.4,0.5,0.8,0.7,1.2c0,0,0,0,0,0c1.3,2.1,2.4,4.3,3.3,6.4
		C110.3,128.7,111.2,118.5,108.7,98.6z"/>
		
	<linearGradient id="XMLID_79_" gradientUnits="userSpaceOnUse" x1="-1422.3608" y1="-3207.489" x2="-1379.6495" y2="-3250.9585" gradientTransform="matrix(0.8428 -0.5382 0.5382 0.8428 2986.324 2130.0159)">
		<stop offset="0" style="stop-color:#FF6D33"/>
		<stop offset="0.2968" style="stop-color:#FF7034"/>
		<stop offset="0.4741" style="stop-color:#FF7839"/>
		<stop offset="0.6199" style="stop-color:#FF8642"/>
		<stop offset="0.7487" style="stop-color:#FF9A4E"/>
		<stop offset="0.8663" style="stop-color:#FFB55D"/>
		<stop offset="0.9742" style="stop-color:#FFD470"/>
		<stop offset="1" style="stop-color:#FFDD75"/>
	</linearGradient>
	<path style="fill:url(#XMLID_79_);" d="M60.9,192.3c27.3-39.6,22.3-57.9,13.2-59.9
			C65,130.4,52.7,144.9,60.9,192.3L60.9,192.3z"/>
	<path style="fill:#FFFFFF;" d="M79.8,137.3c-1.3-2.8-3.4-4.4-5.7-4.9c-2.3-0.5-4.9,0.1-7.2,2
			c-3.2,16.7,1.1,25.7,1.1,25.7S75.7,153.8,79.8,137.3z"/>
	<path style="fill:#474747;" d="M88,128.7c-0.3,1.2-1.4,1.9-2.6,1.6l-20.8-4.6c-1.2-0.3-1.9-1.4-1.6-2.6l1.7-7.7
			c0.3-1.2,1.4-1.9,2.6-1.6l20.8,4.6c1.2,0.3,1.9,1.4,1.6,2.6L88,128.7z"/>
	<path style="fill:none;stroke:#FFDD75;stroke-width:3.8023;stroke-miterlimit:10;" d="M87.2,25.9"/>
	<path style="fill:#F26666;" d="M60.3,118.7c-14,0.4-27.2,18.3-27.2,18.3s-1.5-45.3,28.5-50.4L60.3,118.7z"/>
		
	<radialGradient id="XMLID_80_" cx="102.2247" cy="-8.109835e-03" r="125.1956" gradientTransform="matrix(-0.2057 0.9786 -0.2936 -6.171907e-02 123.2531 -100.0466)" gradientUnits="userSpaceOnUse">
		<stop offset="0" style="stop-color:#3970A1"/>
		<stop offset="0.1405" style="stop-color:#386593"/>
		<stop offset="0.361" style="stop-color:#375984"/>
		<stop offset="0.6186" style="stop-color:#36527B"/>
		<stop offset="1" style="stop-color:#365078"/>
	</radialGradient>
	<path style="fill:url(#XMLID_80_);" d="M103.2,0l-6.3,28.7l-20.6,93.5l15.9,3.5C109.8,95.9,138.1,38.7,103.2,0z"/>
		
	<radialGradient id="XMLID_81_" cx="104.7772" cy="-5.6931" r="130.2714" gradientTransform="matrix(-0.2173 0.9761 -0.2928 -6.519229e-02 125.8789 -108.3376)" gradientUnits="userSpaceOnUse">
		<stop offset="0" style="stop-color:#6890CC"/>
		<stop offset="0.5671" style="stop-color:#557CB6"/>
		<stop offset="1" style="stop-color:#446AA3"/>
	</radialGradient>
	<path style="fill:url(#XMLID_81_);" d="M103.2,0l-6.3,28.7l-20.6,93.5l-15.9-3.5C56.8,84.2,55.3,20.4,103.2,0z"/>
	<path style="opacity:0.15;" d="M96,41.8c-1.3-0.3-2.6-0.4-4-0.4c-10.3,0-18.7,8.4-18.7,18.7
			c0,8.9,6.3,16.4,14.6,18.3c1.3,0.3,2.7,0.5,4.1,0.5c10.3,0,18.7-8.4,18.7-18.7C110.8,51.2,104.4,43.7,96,41.8z"/>
	<path style="fill:#CF5555;" d="M117.2,25.2c-2.5-8.9-7-17.4-14-25.2l-4.7,21.1L117.2,25.2z"/>
	<path style="fill:#B2DDF0;" d="M98.5,21.1l-1.7,7.6l22.1,4.9c-0.4-2.8-1-5.6-1.8-8.3L98.5,21.1z"/>
	<path style="fill:#F26666;" d="M103.2,0c-9.6,4.1-17.3,10-23.3,17l18.6,4.1L103.2,0z"/>
	<path style="fill:#FFFFFF;" d="M79.9,17c-1.9,2.2-3.6,4.4-5.1,6.8l22.1,4.9l1.7-7.6L79.9,17z"/>
	<path style="fill:none;stroke:#AD4D4D;stroke-width:1.0802;stroke-miterlimit:10;" d="M110.9,99.2"/>
	<path style="fill:none;stroke:#AD4D4D;stroke-width:1.0802;stroke-miterlimit:10;" d="M111,99"/>

	<circle style="fill:#333333;" cx="112.1" cy="37.8" r="2.2"/>
	<circle style="fill:#4D4D4D;" cx="79.2" cy="30.5" r="2.2"/>

	<path style="fill:#4F4F4F;" d="M94.5,32.3c-1,0.7-1.3,2-0.7,3c0.3,0.5,0.8,0.8,1.4,1l1-4.3
			C95.6,31.9,95,32,94.5,32.3z"/>
	<path style="fill:#333333;" d="M97.6,32.9c-0.3-0.5-0.8-0.8-1.4-1l-1,4.3c0.6,0.1,1.2,0,1.7-0.3
			C97.9,35.3,98.2,34,97.6,32.9z"/>

	<path style="opacity:0.15;" d="M77.5,122.3l11.4,2.5c2.1-8.1-0.7-35.1-4-41.5L77.5,122.3z"/>

	<path style="fill:#B2DDF0;" d="M94.6,39.1l-8.1,36.6c1.3,0.3,2.7,0.5,4.1,0.5c10.3,0,18.7-8.4,18.7-18.7
			C109.4,48.4,103,40.9,94.6,39.1z"/>
	<path style="fill:#FFFFFF;" d="M90.6,38.6c-10.3,0-18.7,8.4-18.7,18.7c0,8.9,6.3,16.4,14.6,18.3l8.1-36.6
			C93.3,38.8,92,38.6,90.6,38.6z"/>
	<radialGradient id="XMLID_82_" cx="89.3031" cy="-7071.0654" r="16.8302" gradientTransform="matrix(1 0 0 -1 0 -7022.0635)" gradientUnits="userSpaceOnUse">
		<stop offset="0" style="stop-color:#3970A1"/>
		<stop offset="0.4947" style="stop-color:#46A9EB"/>
		<stop offset="1" style="stop-color:#24E2FF"/>
	</radialGradient>
	<circle style="fill:url(#XMLID_82_);" cx="90.6" cy="57.4" r="11.8"/>
	<path style="opacity:0.33;fill:#FFFFFF;" d="M87.4,53c-0.7,0-1.4-0.3-1.7-1c-0.6-1-0.3-2.2,0.6-2.9
				c2.2-1.4,4.7-1.9,7.2-1.3c1.1,0.2,1.8,1.3,1.6,2.5c-0.2,1.1-1.4,1.8-2.5,1.6c-1.4-0.3-2.9,0-4.1,0.7C88.2,52.9,87.8,53,87.4,53z"/>
	<path style="opacity:0.15;" d="M80.7,59.2c0-6.5,5.3-11.8,11.8-11.8c2.8,0,5.3,1,7.3,2.6
				c-2.2-2.7-5.5-4.4-9.2-4.4c-6.5,0-11.8,5.3-11.8,11.8c0,3.7,1.7,7,4.4,9.2C81.7,64.6,80.7,62,80.7,59.2z"/>
	<path style="fill:#CF5555;" d="M71.9,142.1L71.9,142.1l12.9-58.6C75,87.8,66.7,131.4,71.9,142.1z"/>
	<path style="fill:#CF5555;" d="M84.8,83.5l-12.9,58.6C81,134.6,91.9,91.5,84.8,83.5L84.8,83.5z"/>
	<path style="fill:#F26666;" d="M71.9,142.1L71.9,142.1l12.9-58.6C75,87.8,66.7,131.4,71.9,142.1z"/>
	<path style="fill:#CF5555;" d="M84.8,83.5l-12.9,58.6C81,134.6,91.9,91.5,84.8,83.5L84.8,83.5z"/>
</svg>
