<svg xmlns="http://www.w3.org/2000/svg" xmlns:xlink="http://www.w3.org/1999/xlink" viewBox="0 0 371.6 665">
	<defs>
		<filter id="leaf" height="130%">
			<feGaussianBlur in="SourceAlpha" stdDeviation="2"/>
			<feOffset dx="-1" dy="2" result="offsetblur"/>
			<feComponentTransfer>
				<feFuncA type="linear" slope="0.15"/>
			</feComponentTransfer>
			<feMerge>
				<feMergeNode/>
				<feMergeNode in="SourceGraphic"/>
			</feMerge>
		</filter>

		<filter id="earth" height="200%" width="200%" y="-50%">
			<feGaussianBlur in="SourceGraphic" stdDeviation="4"/>
		</filter>

		<filter id="bottomshadow" height="130%">
			<feGaussianBlur in="SourceGraphic" stdDeviation="1"/>
		</filter>
	</defs>

	<path style="filter: url(#leaf); fill:#FFFFFF;" d="M326.4,315.6c-6.9-2.1-12.5-9.7-23.5-17.2c-16.6-11.3-21.1-11.2-22.1-18.5
		c-1.5-10.4,13.4-14,16.9-4c13.3-16.8,39.8,1.3,34,16.3C348.9,298,337.9,319.1,326.4,315.6z"/>
	<path style="filter: url(#leaf); fill:#FFFFFF;" d="M155.3,237.2c-6.5,3.5-11.2,3.8-26.2,7.6c-18.7,4.7-20.6,8.3-27,4.2
		c-9.1-5.9-8.1-21.4,2-17.4c-0.4-31,34.2-34.4,35.6-15.5C156.8,206.8,169.7,229.5,155.3,237.2z"/>
	<path style="filter: url(#leaf); fill:#A5CC6C;" d="M306,273.7c-16.6-11.4-39.6-7.3-45.1,11.4c-3.2,10.9,6.8,12.5,23.1,23.8
		c12.1,8.4,21.6,23.5,32.3,9C326,304.6,321.6,284.3,306,273.7z"/>

	<path style="fill:#A5CC6C; filter: url(#leaf)" d="M259.6,297.6c8.4,3.2,16.2-0.3,21.1-12.3c17.7-42.6,16.6-70,11.6-72.5
			c-3.3-1.7-14.6,6-24.7,18.1c-12.1,14.5-20.2,29.9-22.6,37.7C239.9,285.5,241.3,290.6,259.6,297.6z"/>

	<g style="filter: url(#leaf);">
		<polygon style="fill:#5EC4D1;" points="79.6,221.1 64.1,218.1 65.8,225.9"/>
		<polygon style="fill:#52A2B5;" points="65.9,236.9 69.1,211.9 82.2,213 78.5,239.2"/>
		<polygon style="fill:#5EC4D1;" points="81.3,229 82.5,221.2 76.7,220.5 77.1,226.2"/>

		<polygon style="fill:#52A2B5;" points="40.7,183.6 44.2,168.9 44.4,183.6"/>
		<polygon style="fill:#52A2B5;" points="44.1,184.4 52.1,176.5 46.6,185.9"/>
		<polygon style="fill:#52A2B5;" points="46.4,185.6 52.7,183.3 46.5,188.6"/>
		<polygon style="fill:#52A2B5;" points="33.2,170.3 36.6,184.8 38.4,184.1 40.2,183.4"/>
		<polygon style="fill:#5EC4D1;" points="74.8,228.6 60.5,208 51.7,204.8 45.4,185.6 33.2,189.6 40.3,208.3
			29.4,204.1 14.1,174.2 10.3,170.8 30.4,230.3 35.9,236.2 65.8,318.8 84.6,301.7 82.6,295.9 92.4,285 96.2,295 98.4,291.6"/>
		<polygon style="fill:#52A2B5;" points="36.4,185.4 24.4,176.2 33.5,187.8"/>
		<polygon style="fill:#52A2B5;" points="35,188 21.8,187.3 33.9,191.3"/>
		<polygon style="fill:#52A2B5;" points="34.3,190 25.7,193.2 35.7,193"/>
		<path style="fill:#52A2B5;" d="M46.5,186.9l7,18.5l-2.9,1.3l-2.3-6.2l-1.4-9.7l-6.7-1.7l-4.1,6.5l5,7.3l2.4,6.6
			l-8-3.3l-1-2.9l1-3.4l-2.6-6.8c0,0,2.2-6,6.1-7.4C43.5,184.1,46.5,186.9,46.5,186.9z"/>
		<polygon style="fill:#5EC4D1;" points="3.6,164.3 2,160.1 4.3,151 5.3,146.8 9.5,159.4 8.6,162.7"/>
		
		<rect x="0.2" y="162.8" transform="matrix(0.9365 -0.3507 0.3507 0.9365 -57.6622 13.1754)" style="fill:#52A2B5;" width="14.6" height="5.9"/>
		<path style="fill:#52A2B5;" d="M96.2,295.1C96.2,295.1,96.2,295,96.2,295.1l-3.8-10l-9.8,10.9l1.3,4l-15,15.9
			l3,8.1l30.7-11.5L96.2,295.1z"/>
		<polygon style="fill:#52A2B5;" points="16,185.1 13.9,185.9 6.3,169.4 10.8,167.7"/>

		<path style="fill:#5EC4D1;" d="M32.1,191.5l2.1,0.9c0.9-2.3,2.8-4.4,5.3-5.3l-1.2-3.1
				C34.9,185.2,32.3,188.2,32.1,191.5z"/>
		<path style="fill:#5EC4D1;" d="M38.3,183.9l1.2,3.1c2.5-0.9,5.3-0.6,7.5,0.5l1-2
				C45.7,183.2,41.7,182.6,38.3,183.9z"/>
						
		<line style="fill:none;stroke:#52A2B5;stroke-width:1.0567;stroke-miterlimit:10;" x1="33.2" y1="187.8" x2="35.9" y2="190"/>
		<line style="fill:none;stroke:#52A2B5;stroke-width:1.0567;stroke-miterlimit:10;" x1="36.3" y1="184.8" x2="38.2" y2="187.9"/>
		<line style="fill:none;stroke:#52A2B5;stroke-width:1.0567;stroke-miterlimit:10;" x1="31.9" y1="191.4" x2="34.5" y2="192.4"/>
		<line style="fill:none;stroke:#52A2B5;stroke-width:1.0567;stroke-miterlimit:10;" x1="44.7" y1="183.5" x2="44.2" y2="186.9"/>
		<line style="fill:none;stroke:#52A2B5;stroke-width:1.0567;stroke-miterlimit:10;" x1="40.4" y1="183.3" x2="41.1" y2="186.9"/>
		<line style="fill:none;stroke:#52A2B5;stroke-width:1.0567;stroke-miterlimit:10;" x1="48.1" y1="185.3" x2="46.8" y2="187.8"/>
		<polygon style="fill:#5EC4D1;" points="12.6,169.3 5.6,171.9 8.7,177.1 14.7,174.9"/>
	</g>

	<path style="filter: url(#leaf); fill:#A5CC6C;" d="M116.9,296.5c18.1-9.1-18.3-64.2-26.8-58.3c-4.2,2.9-14.9,21.7-1.3,59.1
		C94.1,311.7,100.7,304.6,116.9,296.5z"/>

	<g style="opacity:0.25;">
		<ellipse style="fill:#FFFFFF;" cx="278.7" cy="96.1" rx="75.1" ry="96.1"/>
	</g>
	<g style="opacity:0.5;">
		<ellipse style="fill:#FFFFFF;" cx="344.1" cy="36.3" rx="26.5" ry="33.2"/>
	</g>

	<path style="filter: url(#leaf); fill:#FFFFFF;" d="M70.1,297.4c11.1-8.9,17.5-7.8,18.5-12.4c2.5-11.3-12.4-16.2-18.7-4.1
		c-9.1-4.4-23.2-2.8-28.9,11.9c-4.2,10.8,7.1,28.3,14.9,19.6C57.9,310.3,60.2,305.4,70.1,297.4z"/>
	<circle style="fill:#8ACDEB;" cx="188.7" cy="459.1" r="182.5"/>
	<circle style="fill:none;" cx="188.7" cy="459.1" r="182.5"/>
	<circle style="fill:none;" cx="188.7" cy="459.1" r="182.5"/>

	<path style="fill:#EEAE8A;" d="M261.2,170.3h-33.3c-2.6,0-5-1.1-6.8-3l-25.3-27.5c-3.4-3.7-3.2-9.5,0.6-13
					c3.7-3.4,9.5-3.2,13,0.6l22.5,24.5h29.3c5.1,0,9.2,4.1,9.2,9.2S266.2,170.3,261.2,170.3z"/>
	<g style="opacity:0.24;">
		<polygon style="fill:#4D4D4D;" points="211.6,157 195.8,139.8 209.4,127.4 226.8,146.5"/>
	</g>

	<defs>
		<path id="XMLID_3446_" d="M187.1,202.2c-1.3,0-2.7-0.2-4.1-0.5c-9.2-2.2-14.9-11.5-12.7-20.8l12.1-50
			c2.2-9.2,11.5-14.9,20.8-12.7c9.2,2.2,14.9,11.5,12.7,20.8l-12.1,50C201.9,197,194.9,202.2,187.1,202.2z"/>
	</defs>
	<clipPath id="XMLID_13_">
		<use xlink:href="#XMLID_3446_"  style="overflow:visible;"/>
	</clipPath>
	<g style="clip-path:url(#XMLID_13_);">
		<path style="fill:#586985;" d="M187.1,202.2c-1.3,0-2.6-0.1-4-0.5c-9.3-2.2-14.9-12-12.7-21.3l12-49.5
					c2.2-9.2,11.5-14.9,20.8-12.7c9.2,2.2,14.9,11.5,12.7,20.8l-12.1,50C201.9,197,194.9,202.2,187.1,202.2z"/>
	</g>

	<path style="clip-path:url(#XMLID_13_);fill:#FFFFFF;" d="M229.4,151.7c-6.2-8.5-13.4-14-23.5-17.1l0.4-1.6
		c1.2-4.8-1.8-9.7-6.6-10.9c-4.8-1.2-9.7,1.8-10.9,6.6l-0.7,2.9c-3-0.2-6.3-0.3-9.7-0.3c-5.8,0-10.5,4.7-10.5,10.5
		s4.7,10.5,10.5,10.5c1.7,0,3.2,0,4.7,0.1l-6.4,26.4c-1.2,4.8,1.8,9.7,6.6,10.9c0.7,0.2,1.4,0.3,2.1,0.3c4.1,0,7.7-2.8,8.7-6.9
		l5.3-21.9c4.9,11,5.9,20.2,6.7,26.9c0.1,1.3,0.3,2.4,0.4,3.5l5-0.7c-0.1-1-0.3-2.2-0.4-3.4c-0.8-7.3-2-18.5-8.7-31.8
		c5.5,2.3,7.8,5.4,9.9,8.3c2.1,2.8,5.3,4.3,8.5,4.3c2.1,0,4.3-0.7,6.2-2C231.8,163,232.8,156.4,229.4,151.7z"/>
	<path style="clip-path:url(#XMLID_13_);fill:#DE6262;" d="M183.6,186.1c-0.3,0-0.6,0-0.9-0.1
		c-2.1-0.5-3.5-2.7-2.9-4.8l12.1-50c0.5-2.1,2.7-3.5,4.8-2.9c2.1,0.5,3.5,2.7,2.9,4.8l-12.1,50C187,184.9,185.4,186.1,183.6,186.1z
		"/>
	<path style="clip-path:url(#XMLID_13_);fill:#DE6262;" d="M220.9,163.4c-1.7,0-3.4-0.8-4.5-2.3
		c-5.5-7.5-12.1-13.7-38.1-13.7c-3,0-5.5-2.5-5.5-5.5s2.5-5.5,5.5-5.5c28.2,0,38.5,6.7,46.9,18.3c1.8,2.5,1.2,5.9-1.2,7.7
		C223.2,163.1,222.1,163.4,220.9,163.4z"/>

	<path style="fill:#EEAE8A;" d="M173.8,248.2h-59.5c-6.1,0-11-4.9-11-11s4.9-11,11-11h50.9l9.8-39
			c1.5-5.9,7.5-9.5,13.4-8c5.9,1.5,9.5,7.5,8,13.4l-11.9,47.3C183.3,244.8,178.9,248.2,173.8,248.2z"/>

	<polygon style="fill:#D19979;" points="165.4,226.3 175.1,187.3 196.2,192.6 192.5,207.6"/>
	<circle style="fill:#EEAE8A;" cx="223.3" cy="107.1" r="16.5"/>
	<polygon style="opacity:0.44;fill:#4D4D4D;" points="182.3,131.5 176.3,156.1 199.2,138.2"/>

	<path style="fill:#EEAE8A;" d="M159,188.6c-5.1,0-9.2-4.1-9.2-9.2v-38.7c0-4.1,2.7-7.6,6.6-8.8l36-10.7
			c4.9-1.5,10,1.3,11.4,6.2c1.5,4.9-1.3,10-6.2,11.4l-29.4,8.8v31.9C168.2,184.5,164.1,188.6,159,188.6z"/>

	<g style="opacity:0.11;">
		<path style="fill:none;stroke:#000000;stroke-width:27.554;stroke-linecap:round;stroke-linejoin:round;stroke-miterlimit:10;" d="
				M215.2,200.6"/>
	</g>
	<path style="fill:none;stroke:#FFFFFF;stroke-width:27.554;stroke-linecap:round;stroke-linejoin:round;stroke-miterlimit:10;" d="
				M214.1,198.3"/>
	<path style="fill:#EEAE8A;" d="M241.1,275.6c-6.1,0-11-4.9-11-11v-50.4l-45.4-15.8c-5.8-2-8.8-8.3-6.8-14
			c2-5.7,8.3-8.8,14-6.8l52.8,18.4c4.4,1.5,7.4,5.7,7.4,10.4v58.3C252.1,270.6,247.2,275.6,241.1,275.6z"/>
	<path style="fill:#FFFFFF;" d="M192.5,207.7l-13.9-4.4c-7.7-2.4-12-10.6-9.5-18.3c2.4-7.7,10.6-12,18.3-9.5
		l18.8,6.2L192.5,207.7z"/>
	<path style="fill:#DE6262;" d="M238,107.8h-29.3c-2.5,0-4.6-2.1-4.6-4.6s2.1-4.6,4.6-4.6H238
			c2.5,0,4.6,2.1,4.6,4.6S240.5,107.8,238,107.8z"/>
	<path style="fill:#4D4D4D;" d="M180.5,146.6c-1.8,0-3.4-1.2-3.9-3l-4.3-15.9c-0.6-2.2,0.7-4.4,2.8-5
			c2.2-0.6,4.4,0.7,5,2.8l4.3,15.9c0.6,2.2-0.7,4.4-2.8,5C181.2,146.5,180.8,146.6,180.5,146.6z"/>
	<circle  style="fill:#BFBFBF;" cx="178.2" cy="134.7" r="5.9"/>
	<path style="fill:#4D4D4D;" d="M178.2,142.5c-4.4,0-7.9-3.5-7.9-7.9s3.5-7.9,7.9-7.9s7.9,3.5,7.9,7.9
			S182.5,142.5,178.2,142.5z M178.2,130.7c-2.2,0-4,1.8-4,4s1.8,4,4,4s4-1.8,4-4S180.4,130.7,178.2,130.7z"/>

	<ellipse style="filter: url(#bottomshadow); opacity:0.4;fill:#403939;" cx="188.7" cy="664" rx="104.9" ry="1"/>
	<path style="fill:none;" d="M311.6,324.1c-33.3-8.5-76.9-19.4-124.6-19.4c-45.4,0-87.1,9.9-119.7,18.1
			C29.8,356.3,6.2,404.9,6.2,459.1c0,100.8,81.7,182.5,182.5,182.5s182.5-81.7,182.5-182.5C371.2,405.6,348.2,357.5,311.6,324.1z"/>

	<path style="fill:none;" d="M319.1,469.7c-8.9-27.8-64.9-5.1-80.4-29.5c-24.2-37.9-7.4-77.2,36.5-98.5
			c15.1-7.3,29.7,10.6,40.2,10.7c8.2,0.1,13.2-3.2,15.8-7.4c-6.3-7.9-13.2-15.2-20.7-21.9c-17,1.3-37.5,11-42.2,10.8
			c-15.4-0.5-26.3-13-16.4-20.4c9.9-7.3,13.7-13.9,14.5-19.7c-23.5-11.1-49.8-17.3-77.6-17.3c-29.9,0-58.1,7.2-83,19.9
			c23-7.4,45.9-7.5,60.8,8.2c-0.5-0.6-0.7-0.8,0,0c6.1,6.5,1.6,1.7,0,0c18.1,19.3,1.1,40.2-23.6,36.8c-48.7-6.6-32,49.7-54.4,53.1
			c-39.8,6.1-60.5,17-46.9,49.1c6,14.3,16.8-11.6,34-12.6c14.6-0.9,46.9,17.3,73.5,27.9c17.3,6.9,7.8,29.2-2.8,63.6
			c-4,13.2,1.5,30.9,5.1,64.3c2.4,21.8,1.3,27.4-7.3,24c-46.9-18.6-43.9-60-84.6-86c-41.2-26.3-16-58.6-29.6-76.9
			c-10.4-13.9-14.4-30.5-14.3-46.7c-6,18.1-9.3,37.5-9.3,57.6c0,100.8,81.7,182.5,182.5,182.5c70.3,0,131.3-39.8,161.8-98
			C324.6,536.8,327.7,496.5,319.1,469.7z"/>
	<path style="fill:#FFD4A5;" d="M315.4,352.4c-10.6-0.1-25.2-18-40.2-10.7c-43.9,21.3-60.7,60.6-36.5,98.5
			c15.6,24.4,71.6,1.7,80.4,29.5c8.6,26.9,5.5,67.1,31.5,73.9c13.2-25.3,20.7-54,20.7-84.5c0-43.2-15-82.8-40.1-114.1
			C328.6,349.2,323.6,352.5,315.4,352.4z"/>
	<path style="fill:#FFD4A5;" d="M251.9,313.6c-9.9,7.3,1,19.9,16.4,20.4c4.8,0.2,25.3-9.5,42.2-10.8
			c-13.1-11.8-28-21.7-44.1-29.3C265.6,299.7,261.7,306.3,251.9,313.6z"/>
	<path style="fill:#FFD4A5;" d="M29.9,448.2c13.6,18.2-11.6,50.5,29.6,76.9c40.8,26.1,37.8,67.4,84.6,86
			c8.6,3.4,9.7-2.2,7.3-24c-3.6-33.4-9.2-51.1-5.1-64.3c10.5-34.4,20.1-56.7,2.8-63.6c-26.6-10.5-58.9-28.7-73.5-27.9
			c-17.2,1-28,26.9-34,12.6c-13.6-32.2,7.2-43.1,46.9-49.1c22.4-3.4,5.7-59.7,54.4-53.1c24.7,3.4,41.8-17.6,23.6-36.8
			c1.6,1.7,6.1,6.5,0,0c-0.7-0.8-0.5-0.6,0,0c-14.8-15.8-37.8-15.7-60.8-8.2c-42.3,21.6-75,59.3-90.2,104.9
			C15.5,417.7,19.5,434.3,29.9,448.2z"/>
	<path fill="#FFF6C8" style="filter: url(#earth); opacity:0.5;" d="M311.6,324.1c-32.4-29.5-75.5-47.5-122.8-47.5
			c-46.6,0-89.2,17.5-121.4,46.3c32.6-8.3,74.3-18.1,119.7-18.1C234.7,304.7,278.3,315.6,311.6,324.1z"/>

	<radialGradient id="XMLID_16_" cx="205.1122" cy="274.2493" r="367.4156" gradientUnits="userSpaceOnUse">
		<stop  offset="0.1587" style="stop-color:#FFFFFF;stop-opacity:0"/>
		<stop  offset="0.2402" style="stop-color:#F8F8F8;stop-opacity:0.1076"/>
		<stop  offset="0.3573" style="stop-color:#E5E5E5;stop-opacity:0.2624"/>
		<stop  offset="0.496" style="stop-color:#C6C6C7;stop-opacity:0.4458"/>
		<stop  offset="0.6513" style="stop-color:#9B9A9C;stop-opacity:0.651"/>
		<stop  offset="0.8182" style="stop-color:#646365;stop-opacity:0.8716"/>
		<stop  offset="0.9153" style="stop-color:#414042"/>
	</radialGradient>
	<circle style="opacity:0.25;fill:url(#XMLID_16_);" cx="188.7" cy="459.1" r="182.5"/>
</svg>
