<svg xmlns="http://www.w3.org/2000/svg" viewBox="0 0 129.96 46.17">
    <path style="fill: #4d4d4d" d="M3986.83,1583l-1,0c-2,0-4,1.07-6,3.19-1.63,2-2.67,4.83-3.08,8.55v2.41a8.35,8.35,0,0,0,1.2,3.45,26.1,26.1,0,0,1,2.29,8.2v2.07a6.33,6.33,0,0,1-1,2.4H3978c-1.67,0-4.3-1.47-7.8-4.37l-0.14-.12h-0.18c-1.42,0-1.57.88-1.57,1.26v1.2l0.06,0.11a11.47,11.47,0,0,0,2.26,3l0.14,0.13h1.2a19.6,19.6,0,0,0,5.21,2.24h2.44a2.57,2.57,0,0,0,1.23-.36c1-.4,1.81-1.73,2.66-4.17l0-.08v-3.92a37.45,37.45,0,0,0-1.16-6.11l0-.09c-1.51-2.72-2.28-4.83-2.28-6.27a16.59,16.59,0,0,1,1.49-6,6.91,6.91,0,0,1,4-3.43c0.21,0,.61,0,0.79.91a2.62,2.62,0,0,1-.9,1.7l-0.26.26,0.17,0.33a2,2,0,0,0,1.45,1.25h1c1.06,0,1.57-1.41,1.87-2.46l0-1.67v-0.1A4.24,4.24,0,0,0,3986.83,1583Z"
                  transform="translate(-3968.3 -1582.99)"/>
    <path style="fill: #4d4d4d" d="M3995.73,1583l-0.14,0c-2,.57-3,1.23-3.14,2.07v1.43l0,0.09,0.56,1.32a1.24,1.24,0,0,0,.74.69,6.23,6.23,0,0,0,2.57.86l1.09,0h0l0.76,0c0.83,0,1.32-1.1,1.65-2.05l0.05-.15,0-.15C3999.14,1584.38,3997.74,1583,3995.73,1583Z"
                  transform="translate(-3968.3 -1582.99)"/>
    <path style="fill: #4d4d4d" d="M3996,1594.46h-0.38c-0.9,0-1.68,1.18-2.59,6.93l-0.18,1.43c-0.13,1.74-.33,3.75-0.6,5.94l-0.11.67a52.81,52.81,0,0,0-.76,5.59v0.38a1.2,1.2,0,0,0,1.3,1.3h0.08a1.43,1.43,0,0,0,.29,0c1.46,0,2-2.21,2.23-3.88,0.15-1.08.3-2.11,0.47-3.12l0.33-2.83a51.5,51.5,0,0,1,1.59-10.18l0-.87-0.07-.12A2.22,2.22,0,0,0,3996,1594.46Z"
                  transform="translate(-3968.3 -1582.99)"/>
    <path style="fill: #4d4d4d" d="M4012.78,1592h-0.18a8,8,0,0,0-3.87,1.84c-3,2.64-4.69,4.8-5.25,6.54a20.07,20.07,0,0,0-1.67,7.34,6.37,6.37,0,0,0-.08,1c0,0.15,0,.63.06,1.48a8.2,8.2,0,0,0,.26,1.17l0.67,1.19,0.11,0.13a5.44,5.44,0,0,0,2.26,1.18,8.78,8.78,0,0,0,1.18.12h0.11a12.28,12.28,0,0,0,6.51-2.31c-0.52,3.65-.89,6.17-1.11,7.51-0.45,2.82-.9,3.47-1,3.6l-0.62,0a11.17,11.17,0,0,1-3.52-2c-1.54-1.87-2.7-2.74-3.65-2.74a1.26,1.26,0,0,0-1.3,1.15v0.34a3.86,3.86,0,0,0,1.37,2.83c3,2.69,5.31,4,7,4l0.42,0h1.08l0.52-.14c1.67-.14,2.69-2.62,3.21-7.75l0.36-2.15a80.53,80.53,0,0,1,1.35-9.24,59.94,59.94,0,0,0,2-7.39v-0.08a8.51,8.51,0,0,0-1.06-4.9A6.22,6.22,0,0,0,4012.78,1592Zm2.6,5.82a15.29,15.29,0,0,1-.67,3.36l0,0.13a14,14,0,0,1-2.38,6.77,8.13,8.13,0,0,1-1.5,1.12,10.31,10.31,0,0,1-4.45,1.55l-0.46-.07a1.62,1.62,0,0,1-.51-0.4l-0.23-.51a4,4,0,0,1,0-.43,3.86,3.86,0,0,1,0-.44c0-.2,0-0.46.08-0.81a17.84,17.84,0,0,1,1.71-7.17c2.35-3.18,4.33-5,5.89-5.43C4014,1595.53,4014.84,1596.3,4015.39,1597.84Z"
                  transform="translate(-3968.3 -1582.99)"/>
    <path style="fill: #4d4d4d" d="M4040.33,1605.33l-0.06-.45c0-.56,0-1.33,0-2.28a14.6,14.6,0,0,0-.16-2.16c-0.74-5.57-2.55-8.4-5.45-8.4h-1.59l-0.17,0c-2.35.85-5.15,4.63-8.53,11.55l0.32-5.1v-0.58l0.67-3.44-0.16-1.73-0.14-.13a2.45,2.45,0,0,0-1.73-.63l-0.4,0c-0.75,0-1.78,0-2.22,15,0.29,8.43,1.39,9.61,2.44,9.65h0.4c1.08,0,1.54-1.55,1.78-2.72v-0.1c0-3.47,1.91-8.4,5.6-14.68a10.64,10.64,0,0,1,3.16-3.4l0.64,0c0.46,0.12,1.48,1,1.94,6.35,0,0.11,0,.43.13,1.81,0.06,6.53.09,10,.09,10.75v0.07c0.24,1.59,1,1.92,1.57,1.92h0.8a1.39,1.39,0,0,0,1.38-1l0-.08v-0.08C4040.58,1611.11,4040.45,1607.69,4040.33,1605.33Z"
                  transform="translate(-3968.3 -1582.99)"/>
    <path style="fill: #4d4d4d" d="M4077.63,1592H4077l-1.34,1.34,0,0.17c-0.13,1-1.5,3.8-7.27,11.6a31,31,0,0,1-4.68,5.9,8.72,8.72,0,0,1-2.47,1.84c0-.13,0-0.31,0-0.57a52.74,52.74,0,0,1,2.26-7.81c1.48-3.66,2.63-6.75,3.41-9.19a2.77,2.77,0,0,0-.21-2.43,1.84,1.84,0,0,0-1.54-.64h-0.94l-0.15.24a87.34,87.34,0,0,0-3.61,9.69,37.28,37.28,0,0,0-2.58,10.63,3.62,3.62,0,0,0,2.66,3.89l0.09,0h0.09c2.08-.19,4.58-1.88,7.67-5.2l5.8-7.8c-0.65,3.76-1.16,7-1.53,9.67a5.34,5.34,0,0,0,.36,2.55c0.38,0.76,1.22.91,2.46,0.31l0.14-.07,0.08-.13a7.78,7.78,0,0,0,.93-2.69v-0.08s0-.29.19-1.6c0.65-4.11,1.08-6.74,1.28-7.84a31.57,31.57,0,0,1,1.86-9.13l0-.1v-0.11A2.2,2.2,0,0,0,4077.63,1592Z"
                  transform="translate(-3968.3 -1582.99)"/>
    <path style="fill: #4d4d4d" d="M4098.25,1601.93c-0.56-4.74-1.52-7.49-2.9-8.38a5.88,5.88,0,0,0-3.76-1.52h-0.74a4.48,4.48,0,0,0-2.93,1.92c-0.56.7-1.48,2.87-2.91,13.58-1.54,7.65-2.52,12.68-2.93,15l-0.29,2.12c-0.1,2.14.14,3.44,0.75,4.08a1.38,1.38,0,0,0,1,.44h0.57l0.92-.82,0.06-.07c0.24-.32.8-1,2.7-15.69l1.71,0.41h0.12a17.14,17.14,0,0,0,3.72-.83c3.24-1,4.88-4.35,4.88-9.94v-0.3Zm-3.45.23c0,0.76-.14,1.87-0.28,3.27l-0.13.84c-0.63,1.87-2.09,2.89-4.48,3.11a7.87,7.87,0,0,1-1.32-.33c0.62-5.25,1-8.39,1.23-9.4,0.44-3.78,1.24-4,1.38-4C4093.29,1595.66,4094.5,1597.87,4094.8,1602.16Z"
                  transform="translate(-3968.3 -1582.99)"/>
</svg>