<svg xmlns="http://www.w3.org/2000/svg" viewBox="0 0 90.6 192.3">
<style type="text/css">
	.st0{fill:url(#XMLID_2_);}
	.st1{opacity:0.25;fill:url(#XMLID_3_);}
	.st2{fill:#CF5555;}
	.st3{opacity:0.22;enable-background:new    ;}
	.st4{fill:url(#XMLID_4_);}
	.st5{fill:#FFFFFF;}
	.st6{fill:#474747;}
	.st7{fill:none;stroke:#FFDD75;stroke-width:3.8023;stroke-miterlimit:10;}
	.st8{fill:#F26666;}
	.st9{fill:url(#XMLID_5_);}
	.st10{fill:url(#XMLID_6_);}
	.st11{opacity:0.15;enable-background:new    ;}
	.st12{fill:#B2DDF0;}
	.st13{fill:none;stroke:#AD4D4D;stroke-width:1.0802;stroke-miterlimit:10;}
	.st14{fill:#333333;}
	.st15{fill:#4D4D4D;}
	.st16{fill:#4F4F4F;}
	.st17{fill:url(#XMLID_7_);}
	.st18{opacity:0.33;fill:#FFFFFF;}
</style>

	<filter id="shadow" height="130%">
        <feGaussianBlur in="SourceGraphic" stdDeviation="2"/>
    </filter>
	
	<radialGradient id="XMLID_2_" cx="-1618.3829" cy="3380.0771" r="36.7741" gradientTransform="matrix(0.8428 -0.5382 -0.5382 -0.8428 3225.0432 2105.5154)" gradientUnits="userSpaceOnUse">
		<stop offset="0" style="stop-color:#FFF8E6"/>
		<stop offset="1" style="stop-color:#FFF8E6;stop-opacity:0"/>
	</radialGradient>
	<circle class="st0" cx="41.9" cy="127.8" r="36.7"/>
	
	<linearGradient id="XMLID_3_" gradientUnits="userSpaceOnUse" x1="47.3672" y1="192.5197" x2="47.3672" y2="53.2447" gradientTransform="matrix(1 0 0 -1 0 191.89)">
		<stop offset="0" style="stop-color:#000000;stop-opacity:0.44"/>
		<stop offset="1" style="stop-color:#000000"/>
	</linearGradient>
	<path style="filter: url(#shadow);" class="st1" d="M79.6,109.5L79.6,109.5c-0.4-0.4-0.8-0.7-1.3-1.1c-0.1-0.1-0.2-0.1-0.2-0.2
		c-0.1-0.1-0.1-0.1-0.2-0.2C86.4,88.6,93,65.8,89.8,44.4l0,0l0,0c-0.1-0.7-0.2-1.4-0.4-2.2c0-0.1,0-0.2,0-0.2
		c-0.1-0.6-0.2-1.3-0.4-1.9c0-0.1-0.1-0.2-0.1-0.4c-0.1-0.6-0.3-1.2-0.4-1.8c0-0.2-0.1-0.3-0.1-0.5c-0.1-0.6-0.3-1.1-0.4-1.6
		c-0.1-0.2-0.1-0.4-0.2-0.6c-0.2-0.5-0.3-1-0.5-1.6c-0.1-0.2-0.1-0.4-0.2-0.6c-0.2-0.5-0.3-1-0.5-1.5c-0.1-0.2-0.2-0.4-0.2-0.7
		c-0.2-0.5-0.4-0.9-0.6-1.4c-0.1-0.2-0.2-0.5-0.3-0.7c-0.2-0.5-0.4-0.9-0.6-1.4c-0.1-0.2-0.2-0.5-0.3-0.7c-0.2-0.4-0.4-0.9-0.6-1.3
		c-0.1-0.3-0.3-0.5-0.4-0.8c-0.2-0.4-0.4-0.8-0.7-1.3c-0.1-0.3-0.3-0.5-0.4-0.8c-0.2-0.4-0.5-0.8-0.7-1.2c-0.2-0.3-0.3-0.5-0.5-0.8
		c-0.2-0.4-0.5-0.8-0.8-1.2c-0.2-0.3-0.3-0.5-0.5-0.8c-0.3-0.4-0.5-0.8-0.8-1.2c-0.2-0.3-0.4-0.5-0.5-0.8c-0.3-0.4-0.6-0.8-0.9-1.2
		c-0.2-0.2-0.4-0.5-0.5-0.7c-0.3-0.4-0.7-0.9-1-1.3c-0.2-0.2-0.3-0.4-0.5-0.6c-0.5-0.6-1.1-1.3-1.6-1.9c-0.8,0.3-1.5,0.7-2.3,1
		c-0.2,0.1-0.5,0.2-0.7,0.3c-0.5,0.2-1,0.5-1.5,0.7c-0.3,0.1-0.5,0.3-0.8,0.4c-0.4,0.2-0.9,0.5-1.3,0.7c-0.3,0.2-0.5,0.3-0.8,0.5
		c-0.4,0.2-0.8,0.5-1.2,0.7c-0.3,0.2-0.5,0.3-0.8,0.5c-0.4,0.3-0.8,0.5-1.2,0.8c-0.3,0.2-0.5,0.3-0.8,0.5c-0.4,0.3-0.8,0.5-1.2,0.8
		c-0.2,0.2-0.5,0.4-0.7,0.5c-0.4,0.3-0.8,0.6-1.1,0.9c-0.2,0.2-0.4,0.4-0.7,0.5c-0.4,0.3-0.7,0.6-1.1,0.9c-0.2,0.2-0.4,0.4-0.6,0.5
		c-0.4,0.3-0.7,0.6-1.1,1c-0.2,0.2-0.4,0.3-0.6,0.5c-0.4,0.3-0.7,0.7-1.1,1c-0.2,0.2-0.3,0.3-0.5,0.5c-0.4,0.4-0.7,0.7-1.1,1.1
		c-0.2,0.2-0.3,0.3-0.5,0.5c-0.4,0.4-0.7,0.8-1.1,1.2c-0.1,0.1-0.3,0.3-0.4,0.4c-0.4,0.4-0.7,0.9-1.1,1.3c-0.1,0.1-0.2,0.3-0.3,0.4
		c-0.4,0.5-0.8,0.9-1.1,1.4c-0.1,0.1-0.2,0.2-0.2,0.3c-0.4,0.5-0.8,1.1-1.2,1.6c0,0.1-0.1,0.1-0.1,0.2c-0.4,0.6-0.8,1.2-1.2,1.8l0,0
		c-12.1,18.9-15.7,42.6-16,64c-27.1,7.3-25.7,49.7-25.7,49.7s13.2-17.9,27.2-18.3l3.4,0.8l-1.3,6l8,1.8c-0.4,6.5,0,12,1.4,14.9
		c2.5-2.1,5.2-6.9,7.6-12.9l8,1.8l1.3-6l3.4,0.8c0.4,0.2,0.8,0.4,1.2,0.7c0.1,0.1,0.3,0.2,0.4,0.3c0.3,0.2,0.5,0.3,0.8,0.5
		c0.2,0.1,0.3,0.2,0.5,0.3c0.2,0.2,0.4,0.3,0.7,0.5c0.2,0.1,0.3,0.3,0.5,0.4c0.2,0.2,0.4,0.3,0.6,0.5c0.2,0.1,0.3,0.3,0.5,0.4
		c0.2,0.2,0.4,0.4,0.6,0.6c0.1,0.1,0.3,0.3,0.4,0.5c0.2,0.2,0.4,0.4,0.6,0.6c0.1,0.2,0.3,0.3,0.4,0.5c0.2,0.2,0.4,0.4,0.6,0.7
		c0.1,0.1,0.2,0.3,0.4,0.4c0.2,0.2,0.4,0.5,0.6,0.7c0.1,0.1,0.2,0.3,0.3,0.4c0.2,0.3,0.4,0.5,0.6,0.8c0.1,0.1,0.2,0.2,0.3,0.4
		c0.2,0.3,0.4,0.6,0.6,1c0.1,0.1,0.1,0.2,0.2,0.2c0.3,0.4,0.5,0.8,0.7,1.2l0,0c1.3,2.1,2.4,4.3,3.3,6.4c2.6,5.7,3.8,10.4,3.8,10.4
		S100,127.7,79.6,109.5z"/>
	<path class="st2" d="M75.6,98.6L75.6,98.6c-0.4-0.4-0.8-0.7-1.3-1.1c-0.1-0.1-0.2-0.1-0.2-0.2
		c-0.5-0.4-0.9-0.7-1.4-1l0,0l-13.6,29.4c0.4,0.2,0.8,0.4,1.2,0.7c0.1,0.1,0.3,0.2,0.4,0.3c0.3,0.2,0.5,0.3,0.8,0.5
		c0.2,0.1,0.3,0.2,0.5,0.3c0.2,0.2,0.4,0.3,0.7,0.5c0.2,0.1,0.3,0.3,0.5,0.4c0.2,0.2,0.4,0.3,0.6,0.5c0.2,0.1,0.3,0.3,0.5,0.4
		c0.2,0.2,0.4,0.4,0.6,0.6c0.1,0.1,0.3,0.3,0.4,0.5c0.2,0.2,0.4,0.4,0.6,0.6c0.1,0.2,0.3,0.3,0.4,0.5c0.2,0.2,0.4,0.4,0.6,0.7
		c0.1,0.1,0.2,0.3,0.4,0.5c0.2,0.2,0.4,0.5,0.6,0.7c0.1,0.1,0.2,0.3,0.3,0.4c0.2,0.3,0.4,0.5,0.6,0.8c0.1,0.1,0.2,0.2,0.3,0.4
		c0.2,0.3,0.4,0.6,0.6,1c0.1,0.1,0.1,0.2,0.2,0.2c0.3,0.4,0.5,0.8,0.7,1.2l0,0c1.3,2.1,2.4,4.3,3.3,6.4c2.6,5.7,3.8,10.4,3.8,10.4
		S96.1,116.9,75.6,98.6z"/>
	<path class="st3" d="M75.6,98.6L75.6,98.6c-0.4-0.4-0.8-0.7-1.3-1.1c-0.1-0.1-0.2-0.1-0.2-0.2
		c-0.5-0.4-0.9-0.7-1.4-1l0,0l-13.6,29.4c0.4,0.2,0.8,0.4,1.2,0.7c0.1,0.1,0.3,0.2,0.4,0.3c0.3,0.2,0.5,0.3,0.8,0.5
		c0.2,0.1,0.3,0.2,0.5,0.3c0.2,0.2,0.4,0.3,0.7,0.5c0.2,0.1,0.3,0.3,0.5,0.4c0.2,0.2,0.4,0.3,0.6,0.5c0.2,0.1,0.3,0.3,0.5,0.4
		c0.2,0.2,0.4,0.4,0.6,0.6c0.1,0.1,0.3,0.3,0.4,0.5c0.2,0.2,0.4,0.4,0.6,0.6c0.1,0.2,0.3,0.3,0.4,0.5c0.2,0.2,0.4,0.4,0.6,0.7
		c0.1,0.1,0.2,0.3,0.4,0.5c0.2,0.2,0.4,0.5,0.6,0.7c0.1,0.1,0.2,0.3,0.3,0.4c0.2,0.3,0.4,0.5,0.6,0.8c0.1,0.1,0.2,0.2,0.3,0.4
		c0.2,0.3,0.4,0.6,0.6,1c0.1,0.1,0.1,0.2,0.2,0.2c0.3,0.4,0.5,0.8,0.7,1.2l0,0c1.3,2.1,2.4,4.3,3.3,6.4
		C77.2,128.7,78.1,118.5,75.6,98.6z"/>
		
		<linearGradient id="XMLID_4_" gradientUnits="userSpaceOnUse" x1="-1664.6462" y1="3333.1433" x2="-1621.9349" y2="3376.6128" gradientTransform="matrix(0.8428 -0.5382 -0.5382 -0.8428 3225.0432 2105.5154)">
			<stop  offset="0" style="stop-color:#FF6D33"/>
			<stop  offset="0.2968" style="stop-color:#FF7034"/>
			<stop  offset="0.4741" style="stop-color:#FF7839"/>
			<stop  offset="0.6199" style="stop-color:#FF8642"/>
			<stop  offset="0.7487" style="stop-color:#FF9A4E"/>
			<stop  offset="0.8663" style="stop-color:#FFB55D"/>
			<stop  offset="0.9742" style="stop-color:#FFD470"/>
			<stop  offset="1" style="stop-color:#FFDD75"/>
		</linearGradient>
		<path class="st4" d="M27.8,192.3c27.3-39.6,22.3-57.9,13.2-59.9S19.6,144.9,27.8,192.3L27.8,192.3z"/>
		<path class="st5" d="M46.7,137.3c-1.3-2.8-3.4-4.4-5.7-4.9c-2.3-0.5-4.9,0.1-7.2,2c-3.2,16.7,1.1,25.7,1.1,25.7
			S42.6,153.8,46.7,137.3z"/>
		<path id="XMLID_5947_" class="st6" d="M54.9,128.7c-0.3,1.2-1.4,1.9-2.6,1.6l-20.8-4.6c-1.2-0.3-1.9-1.4-1.6-2.6l1.7-7.7
			c0.3-1.2,1.4-1.9,2.6-1.6l20.8,4.6c1.2,0.3,1.9,1.4,1.6,2.6L54.9,128.7z"/>
	<path class="st7" d="M54.1,25.9"/>
	<path class="st8" d="M27.2,118.7C13.2,119.1,0,137,0,137s-1.5-45.3,28.5-50.4L27.2,118.7z"/>
		
		<radialGradient id="XMLID_5_" cx="124.3431" cy="1450.8167" r="125.1956" gradientTransform="matrix(-0.2057 0.9786 0.2936 6.171907e-02 -331.2421 -211.2343)" gradientUnits="userSpaceOnUse">
			<stop  offset="0" style="stop-color:#3970A1"/>
			<stop  offset="0.1405" style="stop-color:#386593"/>
			<stop  offset="0.361" style="stop-color:#375984"/>
			<stop  offset="0.6186" style="stop-color:#36527B"/>
			<stop  offset="1" style="stop-color:#365078"/>
		</radialGradient>
		<path class="st9" d="M70.1,0l-6.3,28.7l-20.6,93.5l15.9,3.5C76.7,95.9,105,38.7,70.1,0z"/>
		
		<radialGradient id="XMLID_6_" cx="123.545" cy="1467.3904" r="130.2714" gradientTransform="matrix(-0.2173 0.9761 0.2928 6.519229e-02 -331.1154 -221.9482)" gradientUnits="userSpaceOnUse">
			<stop  offset="0" style="stop-color:#6890CC"/>
			<stop  offset="0.5671" style="stop-color:#557CB6"/>
			<stop  offset="1" style="stop-color:#446AA3"/>
		</radialGradient>
		<path class="st10" d="M70.1,0l-6.3,28.7l-20.6,93.5l-15.9-3.5C23.7,84.2,22.2,20.4,70.1,0z"/>
		<path class="st11" d="M62.9,41.8c-1.3-0.3-2.6-0.4-4-0.4c-10.3,0-18.7,8.4-18.7,18.7c0,8.9,6.3,16.4,14.6,18.3
			c1.3,0.3,2.7,0.5,4.1,0.5c10.3,0,18.7-8.4,18.7-18.7C77.7,51.2,71.3,43.7,62.9,41.8z"/>
	<path class="st2" d="M84.1,25.2c-2.5-8.9-7-17.4-14-25.2l-4.7,21.1L84.1,25.2z"/>
	<path class="st12" d="M65.4,21.1l-1.7,7.6l22.1,4.9c-0.4-2.8-1-5.6-1.8-8.3L65.4,21.1z"/>
	<path class="st8" d="M70.1,0c-9.6,4.1-17.3,10-23.3,17l18.6,4.1L70.1,0z"/>
	<path class="st5" d="M46.8,17c-1.9,2.2-3.6,4.4-5.1,6.8l22.1,4.9l1.7-7.6L46.8,17z"/>
	<path class="st13" d="M77.8,99.2"/>
	<path class="st13" d="M77.9,99"/>

	<circle class="st14" cx="79" cy="37.8" r="2.2"/>
	<circle class="st15" cx="46.1" cy="30.5" r="2.2"/>

	<path class="st16" d="M61.4,32.3c-1,0.7-1.3,2-0.7,3c0.3,0.5,0.8,0.8,1.4,1l1-4.3C62.5,31.9,61.9,32,61.4,32.3z"/>
	<path class="st14" d="M64.5,32.9c-0.3-0.5-0.8-0.8-1.4-1l-1,4.3c0.6,0.1,1.2,0,1.7-0.3
			C64.8,35.3,65.1,34,64.5,32.9z"/>
	<path class="st11" d="M44.4,122.3l11.4,2.5c2.1-8.1-0.7-35.1-4-41.5L44.4,122.3z"/>

	<path class="st12" d="M61.5,39.1l-8.1,36.6c1.3,0.3,2.7,0.5,4.1,0.5c10.3,0,18.7-8.4,18.7-18.7
		C76.3,48.4,69.9,40.9,61.5,39.1z"/>
	<path class="st5" d="M57.5,38.6c-10.3,0-18.7,8.4-18.7,18.7c0,8.9,6.3,16.4,14.6,18.3L61.5,39
		C60.2,38.8,58.9,38.6,57.5,38.6z"/>
			
	<radialGradient id="XMLID_7_" cx="56.2155" cy="7912.9556" r="16.8302" gradientTransform="matrix(1 0 0 1 0 -7863.9536)" gradientUnits="userSpaceOnUse">
		<stop  offset="0" style="stop-color:#3970A1"/>
		<stop  offset="0.4947" style="stop-color:#46A9EB"/>
		<stop  offset="1" style="stop-color:#24E2FF"/>
	</radialGradient>
	<circle class="st17" cx="57.5" cy="57.4" r="11.8"/>
	<path class="st18" d="M54.3,53c-0.7,0-1.4-0.3-1.7-1c-0.6-1-0.3-2.2,0.6-2.9c2.2-1.4,4.7-1.9,7.2-1.3
		c1.1,0.2,1.8,1.3,1.6,2.5c-0.2,1.1-1.4,1.8-2.5,1.6c-1.4-0.3-2.9,0-4.1,0.7C55.1,52.9,54.7,53,54.3,53z"/>
	<path class="st11" d="M47.6,59.2c0-6.5,5.3-11.8,11.8-11.8c2.8,0,5.3,1,7.3,2.6c-2.2-2.7-5.5-4.4-9.2-4.4
		c-6.5,0-11.8,5.3-11.8,11.8c0,3.7,1.7,7,4.4,9.2C48.6,64.6,47.6,62,47.6,59.2z"/>

	<path class="st2" d="M38.8,142.1L38.8,142.1l12.9-58.6C41.9,87.8,33.6,131.4,38.8,142.1z"/>
	<path class="st2" d="M51.7,83.5l-12.9,58.6C47.9,134.6,58.8,91.5,51.7,83.5L51.7,83.5z"/>
	<path class="st8" d="M38.8,142.1L38.8,142.1l12.9-58.6C41.9,87.8,33.6,131.4,38.8,142.1z"/>
	<path class="st2" d="M51.7,83.5l-12.9,58.6C47.9,134.6,58.8,91.5,51.7,83.5L51.7,83.5z"/>
</svg>
