<svg xmlns="http://www.w3.org/2000/svg" viewBox="0 0 50.4 50.4">
	<circle style="fill: #FAF3EB" cx="25.2" cy="25.2" r="25.2"/>
	<path style="fill: #7697B0" d="M32.7,27.1c0.8,0.8,1.7,1.6,2.5,2.5c0.3,0.4,0.6,0.8,0.9,1.3c0.3,0.7,0,1.4-0.6,1.4l-3.7,0
			c-0.9,0.1-1.7-0.3-2.3-0.9c-0.5-0.5-1-1.1-1.5-1.6c-0.2-0.2-0.4-0.4-0.7-0.6c-0.5-0.3-0.9-0.2-1.2,0.3c-0.3,0.5-0.4,1.1-0.4,1.7
			c0,0.9-0.3,1.1-1.2,1.1c-1.8,0.1-3.6-0.2-5.2-1.1c-1.4-0.8-2.6-2-3.5-3.3c-1.9-2.6-3.3-5.4-4.6-8.3c-0.3-0.7-0.1-1,0.6-1
			c1.2,0,2.4,0,3.6,0c0.5,0,0.8,0.3,1,0.7c0.6,1.6,1.4,3.1,2.4,4.5c0.3,0.4,0.5,0.7,0.9,1c0.4,0.3,0.7,0.2,0.9-0.3
			c0.1-0.3,0.2-0.6,0.2-0.9c0.1-1.1,0.1-2.2-0.1-3.3c-0.1-0.7-0.5-1.1-1.2-1.3c-0.3-0.1-0.3-0.2-0.1-0.4c0.3-0.3,0.6-0.6,1.1-0.6
			h4.1c0.7,0.1,0.8,0.4,0.9,1.1l0,4.6c0,0.3,0.1,1,0.6,1.2c0.4,0.1,0.6-0.2,0.8-0.4c1-1,1.7-2.3,2.3-3.6c0.3-0.6,0.5-1.2,0.8-1.7
			c0.2-0.4,0.4-0.6,0.9-0.6l4,0c0.1,0,0.2,0,0.4,0c0.7,0.1,0.9,0.4,0.6,1.1c-0.3,1-1,1.9-1.6,2.7c-0.7,0.9-1.4,1.8-2,2.7
			C31.9,26,32,26.4,32.7,27.1L32.7,27.1z"/>
</svg>
