<svg xmlns="http://www.w3.org/2000/svg" xmlns:xlink="http://www.w3.org/1999/xlink" viewBox="0 0 458 487.4">
	<style type="text/css">
		.st0{fill:url(#SVGID_1_);}
		.st1{fill:url(#XMLID_2_);}
		.st2{fill:#FFDD75;}
		.st3{fill:#BFBFBF;}
		.st4{fill:#4D4D4D;}
		.st5{fill:#FFFFFF;}
		.st6{fill:#5EC4D1;}
		.st7{fill:#52A2B5;}
		.st8{fill:none;stroke:#52A2B5;stroke-width:1.9483;stroke-miterlimit:10;}
		.st9{fill:none;}
		.st10{opacity:0.5;clip-path:url(#SVGID_3_);}
		.st11{opacity:0.25;clip-path:url(#SVGID_5_);}
		.st12{fill:url(#XMLID_3_);}
		.st13{fill:#8ACDEB;}
		.st14{fill:#FFD4A5;}
	</style>

	<filter xmlns="http://www.w3.org/2000/svg" id="dropshadow" height="130%">
		<feGaussianBlur in="SourceAlpha" stdDeviation="5"/>
		<feOffset dx="2 " dy="2" result="offsetblur"/>
		<feComponentTransfer>
			<feFuncA type="linear" slope="0.20"/>
		</feComponentTransfer>
		<feMerge>
			<feMergeNode/>
			<feMergeNode in="SourceGraphic"/>
		</feMerge>
	</filter>

	<filter xmlns="http://www.w3.org/2000/svg" id="free" height="130%">
		<feGaussianBlur in="SourceAlpha" stdDeviation="4"/>
		<feOffset dx="0" dy="2" result="offsetblur"/>
		<feComponentTransfer>
			<feFuncA type="linear" slope="0.35"/>
		</feComponentTransfer>
		<feMerge>
			<feMergeNode/>
			<feMergeNode in="SourceGraphic"/>
		</feMerge>
	</filter>

	<filter xmlns="http://www.w3.org/2000/svg" id="circles" height="130%">
		<feGaussianBlur in="SourceAlpha" stdDeviation="2"/>
		<feOffset dx="0" dy="2" result="offsetblur"/>
		<feComponentTransfer>
			<feFuncA type="linear" slope="0.33"/>
		</feComponentTransfer>
		<feMerge>
			<feMergeNode/>
			<feMergeNode in="SourceGraphic"/>
		</feMerge>
	</filter>

	<radialGradient id="SVGID_1_" cx="219.8" cy="492.6" r="306" gradientTransform="matrix(1 0 0 1 0 -208.89)" gradientUnits="userSpaceOnUse">
		<stop  offset="0" style="stop-color:#D7EEF7"/>
		<stop  offset="1" style="stop-color:#FFFFFF;stop-opacity:0"/>
	</radialGradient>
	<circle class="st0" cx="219.8" cy="283.7" r="306"/>
	<radialGradient id="XMLID_2_" cx="237.6748" cy="-56.5617" r="200.4682" gradientTransform="matrix(1 0 0 -0.9979 0 340.6509)" gradientUnits="userSpaceOnUse">
		<stop offset="0" style="stop-color:#DE6262"/>
		<stop offset="1" style="stop-color:#E77B5B"/>
	</radialGradient>
	<path class="st1" d="M431.7,398.2c-37-14.5-39.5-54.1-38-75.1l8.2-26l1.9-6.1l1.2,0.4l-0.1-13.4l1.3-4.1l-1.6-0.5
			l-1.3,4.1l-7.8,10.9l1,0.3l-1.8,5.8l0.9-41.8l-23,35.1l0,0l1.9-6.1l1.2,0.4l-0.1-13.4l1.3-4.1l-1.6-0.5l-1.3,4.1l-7.8,10.9l1,0.3
			l-1.9,6.1l0,0l-2.7,8.6l-38.9-12.3l1.2-3.7l-7.9-2.5l-7.9-2.5l-1.2,3.7L269,264.5l2.7-8.6l0,0l1.9-6.1l1,0.3l-0.1-13.4l1.3-4.1
			l-1.6-0.5l-1.3,4.1l-7.7,10.9l1.2,0.4l-1.9,6.1l0,0l1.2-42l-23.2,34.7l1.8-5.8l1,0.3l-0.1-13.4l1.3-4.1l-1.6-0.5l-1.3,4.1
			l-7.7,10.9l1.2,0.4l-1.9,6.1l-8.2,26c-10.8,18.1-35.6,49.2-74.2,39.8l-4-1.3l-3.3,10.5l53.2,16.8l-9.2,29.1l50.5,15.9l11.1-35.4
			l41.6-25.6l-1.3-4.8l-43,14.4l16.4-52.1l38.9,12.3l7.9,2.5l7.9,2.5l38.9,12.3L342,359.3l-26.9-36.4l-3.9,3.2l19.5,44.8l-11.1,35.4
			l50.5,15.9l9.2-29.1l53.2,16.8l3.3-10.5L431.7,398.2z M209.4,325.9l-6.9-2.2l-0.7,2.1l-31.1-9.8c10.7-0.8,20.9-4.7,30.7-11.4
			c8.7-6,15.7-13.5,21.2-20.9L209.4,325.9z M227.1,312l-3.5-1.1l2.2-7l3.4,1.1L227.1,312z M234,290.1l-3.4-1.1l2.2-7l3.4,1.1
			L234,290.1z M240.9,268.2l-3.4-1.1l2.2-7l3.4,1.1L240.9,268.2z M235,314.5l-3.4-1.1l2.2-7l3.4,1.1L235,314.5z M242,292.6l-3.4-1.1
			l2.2-7l3.4,1.1L242,292.6z M248.9,270.7l-3.4-1.1l2.2-7l3.4,1.1L248.9,270.7z M243,317l-3.4-1.1l2.2-7l3.4,1.1L243,317z
			 M249.9,295.1l-3.4-1.1l2.2-7l3.4,1.1L249.9,295.1z M256.8,273.2l-3.4-1.1l2.2-7l3.4,1.1L256.8,273.2z M306.7,277.9l-3.7,1.4
			l-2.3-3.2L306.7,277.9z M298.9,275.4l-3.7,1.4l-2.2-3.2L298.9,275.4z M283.4,270.6l-3.7,1.4l-2.3-3.2L283.4,270.6z M275.6,268.1
			l-3.7,1.4l-2.2-3.2L275.6,268.1z M268.5,266.4l2.4,3.5l-3.9,1.4L268.5,266.4z M267.7,272.2l3.8-1.4l2.3,3.3L267.7,272.2z
			 M272.5,270.4l3.9-1.4l2.3,3.4l-3.9,1.5L272.5,270.4z M275.6,274.7l3.8-1.4l2.3,3.3L275.6,274.7z M283,276.5l-2.5-3.7l4.2-1.6
			L283,276.5z M291.9,274l2.2,3.2l-3.6,1.3L291.9,274z M290.9,279.5l3.8-1.4l2.3,3.3L290.9,279.5z M295.8,277.7l3.9-1.4l2.3,3.4
			l-3.9,1.5L295.8,277.7z M298.9,282l3.8-1.4l2.3,3.3L298.9,282z M305.9,283.4l-2.2-3.2l3.7-1.4L305.9,283.4z M361.2,295l-3.7,1.4
			l-2.3-3.2L361.2,295z M353.2,292.6l-3.7,1.3l-2.2-3.2L353.2,292.6z M337.9,287.7l-3.8,1.4l-2.3-3.2L337.9,287.7z M330,285.2
			l-3.7,1.4l-2.2-3.2L330,285.2z M323.1,283.8l2.2,3.2l-3.6,1.3L323.1,283.8z M322.1,289.3l3.8-1.4l2.3,3.3L322.1,289.3z M327,287.5
			l3.9-1.4l2.3,3.4l-3.9,1.5L327,287.5z M330.1,291.8l3.8-1.4l2.3,3.3L330.1,291.8z M337.1,293.2l-2.2-3.2l3.7-1.4L337.1,293.2z
			 M346,290.6l2.5,3.7l-4.2,1.5L346,290.6z M345.4,296.6l3.8-1.4l2.3,3.3L345.4,296.6z M350.2,294.9l3.9-1.4l2.3,3.4l-3.9,1.5
			L350.2,294.9z M353.2,299.1l3.8-1.4l2.3,3.3L353.2,299.1z M360.5,300.8l-2.4-3.4l3.9-1.5L360.5,300.8z M357.2,353l-3.4-1.1l2.2-7
			l3.4,1.1L357.2,353z M364.2,331.1l-3.4-1.1l2.2-7l3.4,1.1L364.2,331.1z M371.1,309.2l-3.4-1.1l2.2-7l3.4,1.1L371.1,309.2z
			 M365.2,355.5l-3.4-1.1l2.2-7l3.4,1.1L365.2,355.5z M372.2,333.6l-3.4-1.1l2.2-7l3.4,1.1L372.2,333.6z M379.1,311.7l-3.4-1.1
			l2.2-7l3.4,1.1L379.1,311.7z M373.2,358l-3.4-1.1l2.2-7l3.4,1.1L373.2,358z M380.2,336.1l-3.4-1.1l2.2-7l3.4,1.1L380.2,336.1z
			 M387.1,314.2l-3.4-1.1l2.2-7l3.4,1.1L387.1,314.2z M382.5,382.7l0.7-2.1l-6.9-2.2l13.3-42.1c0.3,9.2,1.8,19.4,5.4,29.3
			c4.1,11.2,10.3,20.2,18.6,27L382.5,382.7z"/>

	<rect x="353.1" y="347.2" transform="matrix(0.3004 -0.9538 0.9538 0.3004 -83.2611 584.4487)" class="st2" width="7.3" height="3.6"/>
	<rect x="360" y="325.2" transform="matrix(0.3009 -0.9537 0.9537 0.3009 -57.6438 575.3719)" class="st2" width="7.3" height="3.6"/>
	<rect x="366.8" y="303.4" transform="matrix(0.3009 -0.9537 0.9537 0.3009 -32.0097 566.6498)" class="st2" width="7.3" height="3.6"/>
	<rect x="361" y="349.6" transform="matrix(0.3004 -0.9538 0.9538 0.3004 -80.0941 593.6539)" class="st2" width="7.3" height="3.6"/>
	<rect x="367.8" y="327.7" transform="matrix(0.3003 -0.9538 0.9538 0.3003 -54.43 584.8542)" class="st2" width="7.3" height="3.6"/>
	<rect x="374.9" y="305.7" transform="matrix(0.3003 -0.9538 0.9538 0.3003 -28.4128 576.2034)" class="st2" width="7.3" height="3.6"/>
	<rect x="368.9" y="352.1" transform="matrix(0.3003 -0.9538 0.9538 0.3003 -76.9318 602.9724)" class="st2" width="7.3" height="3.6"/>
	<rect x="375.9" y="330.4" transform="matrix(0.3003 -0.9538 0.9538 0.3003 -51.2736 594.419)" class="st2" width="7.3" height="3.6"/>
	<rect x="382.8" y="308.3" transform="matrix(0.3009 -0.9537 0.9537 0.3009 -25.6185 585.339)" class="st2" width="7.3" height="3.6"/>
	<rect x="222.8" y="306.2" transform="matrix(0.3004 -0.9538 0.9538 0.3004 -135.3511 431.4136)" class="st2" width="7.3" height="3.6"/>
	<rect x="229.7" y="284.3" transform="matrix(0.3009 -0.9537 0.9537 0.3009 -109.7029 422.5577)" class="st2" width="7.3" height="3.6"/>
	<rect x="236.7" y="262.2" transform="matrix(0.3009 -0.9537 0.9537 0.3009 -83.7132 413.7159)" class="st2" width="7.3" height="3.6"/>
	<rect x="230.7" y="308.7" transform="matrix(0.3004 -0.9538 0.9538 0.3004 -132.2429 440.7363)" class="st2" width="7.3" height="3.6"/>
	<rect x="237.7" y="286.7" transform="matrix(0.3003 -0.9538 0.9538 0.3003 -106.3537 432.077)" class="st2" width="7.3" height="3.6"/>
	<rect x="244.5" y="264.8" transform="matrix(0.3003 -0.9538 0.9538 0.3003 -80.7067 423.2292)" class="st2" width="7.3" height="3.6"/>
	<rect x="238.7" y="311.2" transform="matrix(0.3003 -0.9538 0.9538 0.3003 -129.0354 450.1809)" class="st2" width="7.3" height="3.6"/>
	<rect x="245.6" y="289.3" transform="matrix(0.3003 -0.9538 0.9538 0.3003 -103.2904 441.4348)" class="st2" width="7.3" height="3.6"/>
	<rect x="252.6" y="267.3" transform="matrix(0.3009 -0.9537 0.9537 0.3009 -77.5151 432.5068)" class="st2" width="7.3" height="3.6"/>

	<g style="filter: url(#circles)">
		<ellipse class="st3" cx="231.2" cy="131.8" rx="9.1" ry="9.1"/>
		<path class="st3" d="M200.5,135.3c1.7,4.8-0.8,10-5.6,11.7s-10-0.8-11.7-5.6s0.8-10,5.6-11.7
			C193.6,128.1,198.9,130.6,200.5,135.3z"/>
		<path class="st3" d="M164.2,152.1c3.2,3.9,2.6,9.7-1.3,12.9c-3.9,3.2-9.7,2.6-12.9-1.3s-2.6-9.7,1.3-12.9
			C155.2,147.6,161,148.2,164.2,152.1z"/>
		<path class="st3" d="M135.9,180.3c4.3,2.6,5.8,8.2,3.2,12.5s-8.2,5.8-12.5,3.2s-5.8-8.2-3.2-12.5
			C125.9,179.2,131.5,177.7,135.9,180.3z"/>
		<ellipse class="st3" cx="117.2" cy="225.4" rx="9.1" ry="9.1"/>
		<ellipse class="st3" cx="116.8" cy="265.3" rx="9.1" ry="9.1"/>
		<path class="st3" d="M125.5,294.9c4.4-2.5,10-0.9,12.5,3.5s0.9,10-3.5,12.4s-10,0.9-12.5-3.5
			C119.5,303,121,297.4,125.5,294.9z"/>
		<path class="st3" d="M148.2,327.7c3.3-3.8,9.1-4.3,12.9-1s4.3,9.1,1,12.9s-9.1,4.3-12.9,1S145,331.6,148.2,327.7
			z"/>
		<path class="st3" d="M181.1,350.8c1.8-4.7,7.1-7.1,11.8-5.3c4.7,1.8,7.1,7,5.3,11.8c-1.8,4.7-7.1,7.1-11.8,5.3
			C181.7,360.7,179.2,355.5,181.1,350.8z"/>
		<ellipse class="st3" cx="228.9" cy="361.3" rx="9.1" ry="9.1"/>
		<path class="st3" d="M259.6,357.8c-1.7-4.8,0.8-10,5.6-11.7c4.8-1.7,10,0.8,11.7,5.6c1.7,4.8-0.8,10-5.6,11.7
			C266.5,365.1,261.2,362.6,259.6,357.8z"/>
		<path class="st3" d="M295.9,341c-3.2-3.9-2.6-9.7,1.3-12.9c3.9-3.2,9.7-2.6,12.9,1.3c3.2,3.9,2.6,9.7-1.3,12.9
			C304.9,345.5,299.1,344.9,295.9,341z"/>
		<path class="st3" d="M324.2,312.9c-4.3-2.6-5.8-8.2-3.2-12.5s8.2-5.8,12.5-3.2s5.8,8.2,3.2,12.5
			C334.1,314,328.6,315.4,324.2,312.9z"/>
		<ellipse class="st3" cx="342.9" cy="267.7" rx="9.1" ry="9.1"/>
		<ellipse class="st3" cx="343.4" cy="227.9" rx="9.1" ry="9.1"/>
		<path class="st3" d="M334.6,198.2c-4.4,2.5-10,0.9-12.5-3.5s-0.9-10,3.5-12.4c4.4-2.5,10-0.9,12.5,3.5
			S339,195.7,334.6,198.2z"/>
		<path class="st3" d="M311.8,165.4c-3.3,3.8-9.1,4.3-12.9,1c-3.8-3.3-4.3-9.1-1-12.9c3.3-3.8,9.1-4.3,12.9-1
			C314.6,155.8,315.1,161.6,311.8,165.4z"/>
		<path class="st3" d="M279.1,142.4c-1.8,4.7-7.1,7.1-11.8,5.3c-4.7-1.8-7.1-7-5.3-11.8s7.1-7.1,11.8-5.3
			C278.4,132.4,280.8,137.7,279.1,142.4z"/>
	</g>

	<path class="st4" d="M230.1,246.7l24.2,129l-52.7-0.6L230.1,246.7 M230.1,239.7c-3.3,0-6.1,2.3-6.8,5.5
					l-28.5,128.4c-0.5,2.1,0,4.2,1.4,5.9c1.3,1.7,3.3,2.6,5.4,2.6l52.7,0.6c0,0,0,0,0.1,0c2.1,0,4-0.9,5.4-2.5
					c1.3-1.6,1.9-3.7,1.5-5.8l-24.2-129c-0.6-3.3-3.4-5.6-6.8-5.7C230.1,239.7,230.1,239.7,230.1,239.7L230.1,239.7z"/>
	<path class="st4" d="M305.2,173c-19.7-20.1-46-31.3-74.2-31.6c-0.4,0-0.8,0-1.1,0c-27.9,0-54.2,10.8-74,30.4
			c-19.9,19.6-31,45.8-31.3,73.7c-0.3,28.1,10.4,54.6,30.1,74.7s46,31.3,74.1,31.6c0.4,0,0.8,0,1.1,0c27.9,0,54.2-10.8,74-30.4
			c19.9-19.6,31-45.8,31.3-73.7C335.7,219.6,325,193.1,305.2,173z M149.5,291.1l-9.3,5.2l3.7-17.3
			C145.5,283.2,147.4,287.2,149.5,291.1z M140.8,262.1l85.4-14.1l-75.4,42.4C145.9,281.6,142.5,272.1,140.8,262.1z M142.8,275.7
			l-14.4-11.6l11-1.8C140.2,266.9,141.4,271.4,142.8,275.7z M139.5,245.7c0.1-5.1,0.5-10.1,1.4-15l85.1,15.9l-85.4,14.1
			C139.9,255.8,139.5,250.8,139.5,245.7z M144.5,212.9l-3.6-18.1l9.6,5.7C148.2,204.5,146.2,208.6,144.5,212.9z M151.8,201.2
			l74.5,44.1l-85.1-15.9C143,219.4,146.7,209.9,151.8,201.2z M139.8,229.1l-10.5-2l14-10.9C141.8,220.4,140.7,224.7,139.8,229.1z
			 M310.5,202.2l9.3-5.2l-3.7,17.3C314.6,210.1,312.7,206.1,310.5,202.2z M319.2,231.2l-85.4,14.1l75.4-42.4
			C314.2,211.7,317.6,221.2,319.2,231.2z M317.2,217.5l14.4,11.6l-11.1,1.8C319.9,226.4,318.7,221.9,317.2,217.5z M320.6,247.6
			c-0.1,5.1-0.5,10.1-1.4,15l-85.1-15.9l85.4-14.1C320.2,237.5,320.6,242.5,320.6,247.6z M230.1,246.6L230.1,246.6L230.1,246.6
			L230.1,246.6L230.1,246.6z M231.7,156.2c10.3,0.2,20.2,2.1,29.6,5.5l-30.5,81L231.7,156.2z M229.4,242.7l-28.8-81.6
			c9.3-3.2,19.2-4.9,29.4-4.9c0.1,0,0.2,0,0.3,0L229.4,242.7z M228.4,337.1c-10.2-0.2-20.2-2-29.6-5.5l30.5-81L228.4,337.1z
			 M230.7,250.6l28.8,81.6c-9.4,3.2-19.4,4.9-29.7,4.9L230.7,250.6z M233.2,244.1l56.3-65.6c1.8,1.6,3.6,3.2,5.2,4.9
			c5.4,5.6,10.1,11.7,13.9,18.3L233.2,244.1z M232.1,243.2l30.5-81c9.4,3.6,18.1,8.7,25.9,15.3L232.1,243.2z M278.2,168.3l18.5-0.4
			l-7.3,8.5C285.8,173.5,282.1,170.7,278.2,168.3z M263.1,160.9l3.8-10l8.3,15.6C271.2,164.4,267.2,162.5,263.1,160.9z M261.8,160.4
			c-4.3-1.6-8.8-2.8-13.3-3.8l17.3-6.7L261.8,160.4z M231.7,154.8l0.1-10.7L245,156C240.7,155.3,236.2,154.9,231.7,154.8z
			 M230.5,143.6l-0.1,11.2c-0.1,0-0.2,0-0.3,0c-4.6,0-9.1,0.3-13.5,1L230.5,143.6z M200.2,159.7l-3.5-10l16.4,6.7
			C208.7,157.2,204.4,158.3,200.2,159.7z M198.9,160.2c-4.3,1.6-8.6,3.5-12.6,5.7l8.9-16.2L198.9,160.2z M199.2,161.5l28.8,81.6
			l-54.9-66.8C181,169.9,189.9,164.9,199.2,161.5z M172.2,175.2l-6.8-8.2l17.7,0.6C179.4,169.9,175.7,172.4,172.2,175.2z M227,244
			l-74.5-44c3.8-6.4,8.5-12.3,13.9-17.6c1.8-1.8,3.7-3.5,5.7-5.1L227,244z M226.9,249.2l-56.3,65.6c-1.8-1.6-3.6-3.2-5.3-4.9
			c-5.4-5.6-10.1-11.7-13.9-18.3L226.9,249.2z M228,250.1l-30.5,81c-9.4-3.6-18.1-8.7-25.9-15.3L228,250.1z M181.9,324.9l-18.5,0.4
			l7.3-8.5C174.2,319.8,178,322.5,181.9,324.9z M197,332.4l-3.8,10l-8.3-15.7C188.9,328.9,192.9,330.8,197,332.4z M198.2,332.9
			c4.3,1.6,8.8,2.8,13.4,3.8l-17.3,6.7L198.2,332.9z M228.4,338.5l-0.1,10.7l-13.2-11.9C219.4,338,223.9,338.4,228.4,338.5z
			 M229.8,338.5c0.1,0,0.2,0,0.3,0c4.6,0,9.1-0.3,13.5-1l-13.9,12.2L229.8,338.5z M259.9,333.5l3.5,10.1l-16.5-6.7
			C251.4,336.1,255.7,335,259.9,333.5z M261.2,333.1c4.4-1.6,8.6-3.5,12.7-5.7l-8.9,16.2L261.2,333.1z M260.8,331.7L232,250.1
			l54.9,66.8C279.1,323.4,270.2,328.3,260.8,331.7z M287.9,318.1l6.8,8.3l-17.7-0.6C280.7,323.4,284.4,320.9,287.9,318.1z
			 M233.1,249.3l74.5,44c-3.8,6.4-8.5,12.3-13.9,17.6c-1.8,1.8-3.7,3.5-5.7,5.1L233.1,249.3z M233.8,248.1l85.1,15.9
			c-1.9,9.9-5.5,19.4-10.6,28.1L233.8,248.1z M315.6,280.3l3.6,18.2l-9.6-5.7C311.9,288.8,313.9,284.6,315.6,280.3z M320.2,264.2
			l10.5,2l-14,10.9C318.2,272.9,319.4,268.6,320.2,264.2z M320.5,262.9c0.8-4.5,1.3-9.2,1.4-13.9l9.7,15.9L320.5,262.9z M322,245.7
			c0-4.5-0.4-9-1.1-13.4l10.6-1.7L322,245.7z M317.2,215.7l4-18.9c5.3,9.7,9,20.1,11,31L317.2,215.7z M309.8,201
			c-2.3-4-4.9-7.8-7.8-11.5l17.6,6L309.8,201z M295.8,182.4c-1.7-1.7-3.5-3.4-5.3-5l7-8.1l2.5,17.6
			C298.5,185.4,297.2,183.8,295.8,182.4z M277,167l-9.1-17.1c10.2,4,19.8,9.6,28.4,16.7L277,167z M246.8,155.8l-14.3-12.9
			c11.2,0.3,22.1,2.3,32.4,5.9L246.8,155.8z M214.7,155.5l-18-7.3c10.3-3.5,21.3-5.3,32.5-5.4L214.7,155.5z M184.4,166.3l-19.3-0.7
			c8.7-7,18.4-12.4,28.7-16.3L184.4,166.3z M171.2,176.1c-2,1.7-3.9,3.4-5.8,5.2c-1.5,1.4-2.8,2.9-4.2,4.5l2.9-18.3L171.2,176.1z
			 M151.2,199.3l-9.2-5.4l16.9-5.5C156,191.8,153.5,195.5,151.2,199.3z M143.4,214.4l-15.2,11.9c2.2-10.9,6-21.3,11.5-30.9
			L143.4,214.4z M139.5,230.4c-0.8,4.5-1.3,9.1-1.4,13.8l-9.6-15.9L139.5,230.4z M138,247.6c0,4.5,0.4,9,1.1,13.3l-10.5,1.7
			L138,247.6z M142.9,277.6l-4,18.9c-5.3-9.7-9-20.1-11-31L142.9,277.6z M150.2,292.3c2.3,4,4.9,7.8,7.8,11.5l-17.5-6L150.2,292.3z
			 M164.4,310.9c1.7,1.8,3.5,3.4,5.3,5l-7,8.1l-2.5-17.6C161.5,307.9,162.9,309.4,164.4,310.9z M183.2,326.3l9.1,17.1
			c-10.2-4-19.8-9.6-28.4-16.7L183.2,326.3z M213.2,337.5l14.3,12.9c-11.2-0.3-22.1-2.3-32.4-5.9L213.2,337.5z M245.4,337.8
			l17.9,7.3c-10.3,3.5-21.3,5.3-32.5,5.4L245.4,337.8z M275.7,327l19.3,0.7c-8.7,7-18.3,12.4-28.6,16.2L275.7,327z M288.9,317.1
			c2-1.7,3.9-3.4,5.8-5.2c1.5-1.5,2.9-3,4.2-4.5l-2.9,18.4L288.9,317.1z M308.8,294l9.2,5.4l-16.9,5.5
			C304,301.5,306.6,297.8,308.8,294z M316.8,278.9L332,267c-2.2,10.9-6,21.2-11.5,30.8L316.8,278.9z M322.6,247.4l10.2-16.3
			c0.8,5.5,1.2,11.1,1.2,16.7c-0.1,5.5-0.5,10.8-1.4,16.1L322.6,247.4z M319.7,194l-18.3-6.3l-2.7-19.1c1.9,1.7,3.8,3.5,5.6,5.3
			C310.2,180.1,315.5,186.8,319.7,194z M157,172.8c1.8-1.8,3.7-3.5,5.7-5.2l-3,19.1l-18.4,6C145.5,185.5,150.9,178.8,157,172.8z
			 M127.5,229.4l10,16.5l-10.3,16.4c-0.8-5.5-1.2-11.1-1.2-16.8C126.2,240.1,126.7,234.7,127.5,229.4z M140.4,299.2l18.3,6.3
			l2.7,19.1c-1.9-1.7-3.8-3.5-5.6-5.3C149.8,313.2,144.5,306.4,140.4,299.2z M303.1,320.5c-1.8,1.8-3.7,3.5-5.6,5.2l3-19l18.4-5.9
			C314.5,307.8,309.2,314.4,303.1,320.5z"/>
	<path style="filter: url(#dropshadow)" class="st5" d="M423.2,450.5c-8-6.9-9.7-14.3-21.9-32.7c-16.4-24.7-28.4-26.4-26.8-37.2
	c2.4-15.3,24.9-13.8,25.6,1.7c25.9-17.9,55.4,19,40.8,37.6C463.3,429.8,440.6,465.4,423.2,450.5z"/>
	<g style="filter: url(#free)">
		<polygon class="st6" points="171,177.8 137.7,169 140,186.3"/>
		<polygon class="st7" points="138.8,210.3 149.5,156.3 177.8,160.6 165.9,217.2"/>
		<polygon class="st6" points="173.5,195.4 177.2,178.6 164.7,176.1 164.7,188.6"/>
		<polygon class="st7" points="91.5,90.3 101.4,58.7 99.7,90.8"/>
		<polygon class="st7" points="98.9,92.5 117.5,76.6 104.2,96.2"/>
		<polygon class="st7" points="103.7,95.6 117.9,91.4 103.5,102.1"/>
		<polygon class="st7" points="77.2,60.2 82.5,92.3 86.5,91.1 90.5,89.9"/>
		<polygon class="st6" points="159.2,193.7 131,146.5 112.4,138.2 101.5,95.4 74.2,102.3 87.2,144.1 63.9,133.4
			35,65.9 27,57.8 62,190.8 73.2,204.3 126.2,389.1 169.9,354.6 166.5,341.5 189.5,319.3 196.2,341.6 201.6,334.4"/>
		<polygon class="st7" points="82,93.7 57,71.7 75.2,98.3"/>
		<polygon class="st7" points="78.5,99.2 49.9,95.6 75.5,106.2"/>
		<polygon class="st7" points="76.7,103.3 57.4,109.1 79.2,110.2"/>
		<path class="st7" d="M103.8,98.4l12.6,41.5l-6.6,2.5l-4.1-13.8l-1.6-21.4l-14.4-4.8l-10,13.5l9.9,16.7l4.2,14.8
			l-17-8.3l-1.7-6.4l2.7-7.3l-4.6-15.3c0,0,5.7-12.7,14.5-15.3C97.7,91.8,103.8,98.4,103.8,98.4z"/>
		<polygon class="st6" points="13.4,42.7 10.5,33.4 16.9,13.8 19.8,4.9 27,33 24.5,40"/>
		<polygon class="st7" points="39,48.1 8.2,57.3 4.7,45 35.4,35.8"/>
		<path class="st7" d="M196.2,341.7c0,0,0-0.1,0.1-0.2l-6.8-22.3l-23,22.2l2.2,9l-35.1,32.5L139,401l68.8-20.5
			L196.2,341.7z"/>
		<polygon class="st7" points="37.5,90 32.7,91.4 18.5,54.2 28.8,51.2"/>
		<path class="st6" d="M71.5,106.2l4.5,2.2c2.4-4.8,6.7-9.2,12.3-10.8l-2.1-7C78.7,92.9,72.5,99.1,71.5,106.2z"/>
		<path class="st6" d="M86.2,90.6l2.1,7c5.6-1.7,11.6-0.4,16.2,2.3l2.5-4.3C102.5,90.2,94,88.3,86.2,90.6z"/>
		<line class="st8" x1="74.5" y1="98.4" x2="80" y2="103.5"/>
		<line class="st8" x1="81.8" y1="92.4" x2="85.5" y2="99.4"/>
		<line class="st8" x1="71.2" y1="106" x2="76.7" y2="108.7"/>
		<line class="st8" x1="100.4" y1="90.7" x2="98.7" y2="98"/>
		<line class="st8" x1="91" y1="89.6" x2="91.9" y2="97.5"/>
		<line class="st8" x1="107.4" y1="95.2" x2="104.2" y2="100.4"/>
		<polygon class="st6" points="32.2,55 16.7,59.7 22.8,71.5 36,67.5"/>
	</g>
	<defs>
		<ellipse class="st9" cx="234.6" cy="544" rx="182.5" ry="182.3"/>
	</defs>
	<defs>
		<ellipse id="SVGID_2_" cx="234.6" cy="544" rx="182.5" ry="182.3"/>
	</defs>
	<clipPath id="SVGID_3_">
		<use xlink:href="#SVGID_2_"  style="overflow:visible;"/>
	</clipPath>
	<path style="filter: url(#dropshadow)" id="XMLID_1518_" class="st5" d="M244.9,323.6c-7.2,2-11.7-0.7-29.2,0.7c-21.7,1.7-30.1,5.3-36.2-0.8
	c-8.6-8.6,0.2-23.1,10.3-16.3c7-34.1,45.9-29.5,42.9-8.4C253.7,292.7,261.4,319.1,244.9,323.6z"/>
	<defs>
		<ellipse id="SVGID_4_" cx="234.6" cy="544" rx="182.5" ry="182.3"/>
	</defs>
	<clipPath id="SVGID_5_">
		<use xlink:href="#SVGID_4_"  style="overflow:visible;"/>
	</clipPath>
	<g class="st11">
		<linearGradient id="XMLID_3_" gradientUnits="userSpaceOnUse" x1="170.388" y1="-19.0385" x2="235.4446" y2="-76.9878" gradientTransform="matrix(1 0 0 -1 0 348.11)">
			<stop offset="0" style="stop-color:#000000"/>
			<stop offset="1" style="stop-color:#000000;stop-opacity:0.1"/>
		</linearGradient>
		<path class="st12" d="M260.5,387c-1.1-12.4-42.3-26.2-74-25.5l-61.4,28.7C199.1,383.5,262.4,407.9,260.5,387z"/>
	</g>
	<path class="st9" d="M234.6,361.6c-81,0-149.7,52.8-173.5,125.8h347C384.2,414.4,315.6,361.6,234.6,361.6z"/>
	<path class="st13" d="M234.6,361.6c-81,0-149.7,52.8-173.5,125.8h347C384.2,414.4,315.6,361.6,234.6,361.6z"/>
	<path class="st9" d="M278.9,487.4c4.5-22.6,23.2-41.8,52.1-52.7c15.7-6,28.6,13.1,39.2,14.2
		c8.1,0.8,13.4-2,16.4-6c-5.6-8.4-11.9-16.3-18.8-23.6c-17-0.1-38.2,7.7-43,7.1c-15.3-1.8-25.1-15.3-14.6-21.7s14.9-12.6,16.2-18.3
		c-27-15.7-58.3-24.7-91.7-24.7c-24.3,0-47.5,4.8-68.7,13.4c23.6-5.4,46.5-3.6,60,13.4c-0.7-0.8-0.5-0.6,0,0l0,0l0,0l0,0l0,0
		c0.8,1,2.5,3.1,2.8,3.5c0.1,0.1,0,0.1,0,0c-0.2-0.2-0.9-1.2-2.8-3.5c16.4,20.8-2.4,40.1-26.8,34.6c-48-10.8-36.2,46.7-58.9,48.1
		c-24.7,1.6-42.4,5.6-49.9,16.2H67c-0.5-5.4-0.4-10.7,0.1-16.1C57.4,493.5,52,518.1,52,543.9c0,100.7,81.7,182.3,182.5,182.3
		s182.4-81.6,182.4-182.3c0-19.7-3.2-38.7-9-56.6L278.9,487.4L278.9,487.4z"/>
	<path class="st14" d="M310.1,404.6c-10.5,6.4-0.7,19.9,14.6,21.7c4.7,0.6,26-7.2,43-7.1
		c-12.1-12.9-26-24-41.4-32.9C325,392,320.6,398.2,310.1,404.6z"/>
	<path class="st14" d="M370.1,448.8c-10.5-1-23.5-20.1-39.2-14.2c-28.9,11-47.5,30.1-52.1,52.7H408
		c-5.2-15.9-12.5-30.9-21.7-44.6C383.5,446.8,378.2,449.7,370.1,448.8z"/>
	<path class="st14" d="M67,487.4h23.4c7.5-10.6,25.1-14.7,49.9-16.2c22.7-1.5,10.9-58.9,58.9-48.1
		c24.4,5.5,43.1-13.8,26.8-34.6l0,0l0,0c-13.4-17-36.4-18.9-60-13.4c-44.2,17.9-79.8,52.7-98.8,96.4C66.5,476.7,66.5,482,67,487.4z"/>
	<path class="st14" d="M225.9,388.4L225.9,388.4C225.4,387.8,225.2,387.6,225.9,388.4z"/>
	<path class="st14" d="M228.6,391.9C228.7,392,228.7,392,228.6,391.9L228.6,391.9z"/>
	<path class="st14" d="M225.9,388.4L225.9,388.4c1.8,2.3,2.6,3.3,2.8,3.5C228.4,391.6,226.7,389.5,225.9,388.4z"/>
</svg>
