<svg xmlns="http://www.w3.org/2000/svg" xmlns:xlink="http://www.w3.org/1999/xlink" viewBox="0 0 405.7 794.3">
	<defs>
		<filter id="bottomshadow" height="130%">
			<feGaussianBlur in="SourceGraphic" stdDeviation="1"/>
		</filter>

		<filter id="circle" height="130%">
			<feGaussianBlur in="SourceGraphic" stdDeviation="1.5"/>
		</filter>

		<filter id="scale" height="130%">
			<feGaussianBlur in="SourceAlpha" stdDeviation="6"/>
			<feOffset dx="-20" dy="20" result="offsetblur"/>
			<feComponentTransfer>
				<feFuncA type="linear" slope="0.2"/>
			</feComponentTransfer>
			<feMerge>
				<feMergeNode/>
				<feMergeNode in="SourceGraphic"/>
			</feMerge>
		</filter>

		<filter id="plane" height="130%">
			<feGaussianBlur in="SourceAlpha" stdDeviation="3"/>
			<feOffset dx="0" dy="2" result="offsetblur"/>
			<feComponentTransfer>
				<feFuncA type="linear" slope="0.35"/>
			</feComponentTransfer>
			<feMerge>
				<feMergeNode/>
				<feMergeNode in="SourceGraphic"/>
			</feMerge>
		</filter>
	</defs>

	<circle style="fill:#8ACDEB;" cx="198.5" cy="640.9" r="136"/>
	<defs>
		<circle id="XMLID_8542_" cx="198.5" cy="640.9" r="136"/>
	</defs>
	<clipPath id="XMLID_125_">
		<use xlink:href="#XMLID_8542_"  style="overflow:visible;"/>
	</clipPath>

	<defs>
		<circle id="XMLID_8537_" cx="198.5" cy="640.9" r="136"/>
	</defs>
	<clipPath id="XMLID_126_">
		<use xlink:href="#XMLID_8537_"  style="overflow:visible;"/>
	</clipPath>

	<g style="opacity:0.33;">
		<defs>
			<circle id="XMLID_8535_" style="opacity:0.33;" cx="198.5" cy="640.9" r="136"/>
		</defs>
		<clipPath id="XMLID_127_">
			<use xlink:href="#XMLID_8535_"  style="overflow:visible;"/>
		</clipPath>
	</g>

	<defs>
		<circle id="XMLID_8201_" cx="198.5" cy="640.9" r="136"/>
	</defs>
	<clipPath id="XMLID_128_">
		<use xlink:href="#XMLID_8201_"  style="overflow:visible;"/>
	</clipPath>

	<defs>
		<circle id="XMLID_8192_" cx="198.5" cy="640.9" r="136"/>
	</defs>
	<clipPath id="XMLID_129_">
		<use xlink:href="#XMLID_8192_"  style="overflow:visible;"/>
	</clipPath>
	<g style="clip-path:url(#XMLID_129_);">
		<path style="fill:#FFD4A5;" d="M-33,650.6c9.7,28.2,46.1,119-67.5,190.2c-16.6-14.4,2.3-39.6,7.7-60.7
					c5.4-21.1-39-28.8-39.2-50.4c-0.3-33.5,25.8-51.7,61.9-47.8c12.4,1.3,14.6,18.4,21.2,22.7c10.5,6.7,18.4-0.7,18.7-6.7
					c1-17.4-36.7-20.5-41.2-23.6c-9.5-6.4-11.5-18.6-2.3-19.4c29.3-2.3,16.4-24.3,22.5-26.6C-45.6,626.2-38.8,648.2-33,650.6
					C-30.3,658.5-38.4,648.3-33,650.6z"/>
	</g>

	<defs>
		<circle id="XMLID_8137_" cx="198.5" cy="640.9" r="136"/>
	</defs>
	<clipPath id="XMLID_130_">
		<use xlink:href="#XMLID_8137_"  style="overflow:visible;"/>
	</clipPath>


	<ellipse style="filter: url(#bottomshadow); opacity:0.4;fill:#403939;" cx="203.4" cy="793.6" rx="78.2" ry="0.7"/>
	<radialGradient id="XMLID_131_" cx="210.735" cy="503.2167" r="273.8369" gradientUnits="userSpaceOnUse">
		<stop offset="0.1587" style="stop-color:#FFFFFF;stop-opacity:0"/>
		<stop offset="0.2402" style="stop-color:#F8F8F8;stop-opacity:0.1076"/>
		<stop offset="0.3573" style="stop-color:#E5E5E5;stop-opacity:0.2624"/>
		<stop offset="0.496" style="stop-color:#C6C6C7;stop-opacity:0.4458"/>
		<stop offset="0.6513" style="stop-color:#9B9A9C;stop-opacity:0.651"/>
		<stop offset="0.8182" style="stop-color:#646365;stop-opacity:0.8716"/>
		<stop offset="0.9153" style="stop-color:#414042"/>
	</radialGradient>
	<circle style="opacity:0.25;fill:url(#XMLID_131_);" cx="198.5" cy="641" r="136"/>
	<path style="fill:#FFD4A5;" d="M292.9,561.4c-7.9-0.1-18.7-13.4-30-8c-32.7,15.8-45.2,45.2-27.2,73.4
		c11.6,18.2,53.3,1.2,59.9,22c6.4,20,4.1,50,23.5,55.1c9.9-18.8,15.4-40.3,15.4-63c0-32.2-11.2-61.7-29.9-85
		C302.8,559,299,561.5,292.9,561.4z"/>
	<path style="fill:#FFD4A5;" d="M245.6,532.5c-7.4,5.5,0.8,14.8,12.2,15.2c3.5,0.1,18.8-7.1,31.5-8.1
		c-9.8-8.8-20.9-16.1-32.9-21.8C255.8,522.1,252.9,527,245.6,532.5z"/>
	<path style="fill:#FFD4A5;" d="M80.1,632.8c10.1,13.6-8.6,37.7,22.1,57.3c30.4,19.4,28.1,50.3,63.1,64.1
		c6.4,2.5,7.2-1.7,5.4-17.9c-2.7-24.9-6.8-38.1-3.8-47.9c7.9-25.6,15-42.3,2.1-47.4c-19.8-7.9-43.9-21.4-54.8-20.8
		c-12.8,0.8-20.9,20-25.4,9.4c-10.1-24,5.3-32.1,35-36.6c16.7-2.6,4.2-44.5,40.6-39.6c18.4,2.5,31.1-13.1,17.6-27.5
		c1.2,1.2,4.6,4.8,0,0c-0.5-0.6-0.4-0.4,0,0c-11-11.7-28.2-11.7-45.3-6.1c-31.5,16.1-55.9,44.2-67.2,78.2
		C69.4,610.1,72.4,622.4,80.1,632.8z"/>

	<path style="fill:#FFFFFF;" d="M297.9,475.7c-15.9,4.4-51.8,4-60.4-7.6c-7.3-9.8,2.3-21.1,12-13.7
			c2.2-24.8,36.9-27.1,40.9-8.8c8.7-4.3,18.1,0.1,21.1,7.8C314.6,461.2,312.4,471.7,297.9,475.7z"/>
	<path id="XMLID_8637_" style="fill:#FFFFFF;" d="M14.1,344.8c15.9,4.3,87.9,5.1,95.2-3.7c25.2-30.6-6.7-55-23.5-42.9
			c-13.1-27.1-59.5-30.7-79.9,1.6C-3.8,315-1.8,340.5,14.1,344.8z"/>

	<circle style="fill:#4D4D4D;" cx="111.7" cy="431.5" r="9.4"/>
	<path style="fill:#4D4D4D;" d="M312.6,317.9l4.3,10.3c8.6-3.6,17.2-11.6,14.4-18.2c-2.8-6.6-14.4-6-23-2.4
					L312.6,317.9"/>
	<path style="fill:#BFBFBF;" d="M334,374.5c-3,0.4-6.1-1.2-7.4-4.2l-14.3-52.2l-27.4-47
					c-1.5-3.5,0.2-7.6,3.7-9.1c3.5-1.5,7.6,0.2,9.1,3.7l16,52.4l25.8,46.8c1.5,3.5-0.2,7.6-3.7,9.1
					C335.2,374.2,334.6,374.4,334,374.5z"/>
	<defs>
		<path id="XMLID_8608_" d="M313.1,344.5c-3.2-7.6-15.8-35.9-19.3-44.1c-3.4-8.1-9.9-4.4-9.9-4.4s-53,22.5-55.5,23.5
			s-3,4.4-2.9,5.8c0.5,18.7-13.1,35.1-32,37.8c-12.1,1.7-23.6-2.7-31.6-10.7c-2.7-2.7-5.4-2.3-8.1-1.2c-7.9,3.2-18.4,7.6-24.4,10
			c-8.8,3.5-30.2-27.2-38.6-34.5c-7.8-6.9-31.4-3.6-30.3,25.3c1.2,28.9,16.6,48.9,37.3,57.4c18,7.3,45,22,211.4-54.6
			C309.3,354.6,316.3,352.1,313.1,344.5z"/>
	</defs>
	<clipPath id="XMLID_132_">
		<use xlink:href="#XMLID_8608_"  style="overflow:visible;"/>
	</clipPath>

	<path style="fill:#586985;" d="M313.1,344.5c-3.2-7.6-15.8-35.9-19.3-44.1c-3.4-8.1-9.9-4.4-9.9-4.4
				s-53,22.5-55.5,23.5c-2.5,1-3,4.4-2.9,5.8c0.5,18.7-13.1,35.1-32,37.8c-12.1,1.7-23.6-2.7-31.6-10.7c-2.7-2.7-5.4-2.3-8.1-1.2
				c-7.9,3.2-18.4,7.6-24.4,10c-8.8,3.5-30.2-27.2-38.6-34.5c-7.8-6.9-31.4-3.6-30.3,25.3c1.2,28.9,16.6,48.9,37.3,57.4
				c15.5,6.3,37.8,18.1,150.3-27.9l12,8.5c1.4-3.8,3.7-7.3,6.7-10.1l-5.5-3.9c14.6-6.2,30.5-13.2,48-21.2
				C309.3,354.6,316.3,352.1,313.1,344.5z"/>
	<path style="fill:none;" d="M313.1,344.5c-3.2-7.6-15.8-35.9-19.3-44.1c-3.4-8.1-9.9-4.4-9.9-4.4
						s-53,22.5-55.5,23.5s-3,4.4-2.9,5.8c0.5,18.7-13.1,35.1-32,37.8c-12.1,1.7-23.6-2.7-31.6-10.7c-2.7-2.7-5.4-2.3-8.1-1.2
						c-7.9,3.2-18.4,7.6-24.4,10c-8.8,3.5-30.2-27.2-38.6-34.5c-7.8-6.9-31.4-3.6-30.3,25.3c1.2,28.9,16.6,48.9,37.3,57.4
						c18,7.3,45,22,211.4-54.6C309.3,354.6,316.3,352.1,313.1,344.5z"/>
	<defs>
		<path id="XMLID_8597_" d="M313.1,344.5c-3.2-7.6-15.8-35.9-19.3-44.1c-3.4-8.1-9.9-4.4-9.9-4.4s-53,22.5-55.5,23.5
			s-3,4.4-2.9,5.8c0.5,18.7-13.1,35.1-32,37.8c-12.1,1.7-23.6-2.7-31.6-10.7c-2.7-2.7-5.4-2.3-8.1-1.2c-7.9,3.2-18.4,7.6-24.4,10
			c-8.8,3.5-30.2-27.2-38.6-34.5c-7.8-6.9-31.4-3.6-30.3,25.3c1.2,28.9,16.6,48.9,37.3,57.4c18,7.3,45,22,211.4-54.6
			C309.3,354.6,316.3,352.1,313.1,344.5z"/>
	</defs>
	<clipPath id="XMLID_133_">
		<use xlink:href="#XMLID_8597_"  style="overflow:visible;"/>
	</clipPath>

	<path style="fill:#FFFFFF;" d="M303.7,323.1c-2.1,1-7.6,3.4-7.6,3.4c-154.5,72.8-195.3,54.2-195.8,54
				c6.2-6.7,15-13.6,27.5-19.2c-3.8-0.1-9.3-4.6-15-10.4c-10.9,6-19.1,13-25.1,19.7c-5.6-7-8.8-16.5-9.1-27.5
				c-0.3-7.7,0-14.6,0.3-19.4c0,0,0,0,0,0c0,0-0.8,0.1-1.2,0.2c-0.1,0-0.2,0-0.3,0.1c-0.4,0.1-0.7,0.2-1.1,0.3c-0.1,0-0.1,0-0.2,0.1
				c-0.3,0.1-0.7,0.2-1,0.3c-0.1,0-0.2,0.1-0.3,0.1c-0.4,0.1-0.7,0.3-1.1,0.4c-0.1,0-0.1,0.1-0.2,0.1c-0.3,0.1-0.6,0.3-0.9,0.5
				c-0.1,0.1-0.2,0.1-0.3,0.2c-0.4,0.2-0.7,0.4-1.1,0.6c-0.1,0-0.1,0.1-0.2,0.1c-0.3,0.2-0.6,0.4-0.9,0.6c-0.1,0.1-0.2,0.1-0.3,0.2
				c-0.3,0.3-0.7,0.5-1,0.8c-0.1,0.1-0.1,0.1-0.2,0.2c-0.3,0.3-0.6,0.5-0.8,0.8c-0.1,0.1-0.1,0.1-0.2,0.2c-0.3,0.3-0.6,0.7-0.9,1
				c-0.1,0.1-0.1,0.2-0.2,0.2c-0.3,0.3-0.5,0.6-0.8,1c-0.1,0.1-0.1,0.2-0.2,0.2c-0.3,0.4-0.6,0.8-0.8,1.2c-0.1,0.1-0.1,0.2-0.2,0.3
				c-0.2,0.4-0.4,0.8-0.7,1.2c0,0.1-0.1,0.2-0.1,0.2c-0.2,0.5-0.5,1-0.7,1.5c-0.1,0.1-0.1,0.2-0.1,0.4c-0.2,0.5-0.4,0.9-0.5,1.4
				c0,0.1-0.1,0.2-0.1,0.2c-0.2,0.5-0.3,1.1-0.5,1.7c0,0.1-0.1,0.3-0.1,0.4c-0.1,0.5-0.3,1.1-0.4,1.7c0,0.1,0,0.1,0,0.2
				c-0.1,0.6-0.2,1.3-0.3,1.9c0,0.2,0,0.3-0.1,0.5c-0.1,0.6-0.1,1.3-0.2,2c0,0,0,0.1,0,0.1c0,0.7-0.1,1.4-0.1,2.2c0,0.2,0,0.4,0,0.6
				c0,0.8,0,1.5,0,2.3c0,1,0.1,1.9,0.2,2.8c0,0.3,0.1,0.6,0.1,0.9c0.1,0.6,0.1,1.3,0.2,1.9c0,0.3,0.1,0.7,0.1,1
				c0.1,0.6,0.1,1.1,0.2,1.7c0.1,0.4,0.1,0.7,0.2,1.1c0.1,0.5,0.2,1.1,0.3,1.6c0.1,0.3,0.1,0.7,0.2,1c0.1,0.5,0.2,1.1,0.3,1.6
				c0.1,0.3,0.1,0.6,0.2,1c0.1,0.6,0.3,1.1,0.4,1.7c0.1,0.3,0.1,0.6,0.2,0.8c0.2,0.6,0.3,1.2,0.5,1.8c0.1,0.2,0.1,0.4,0.2,0.7
				c0.2,0.7,0.5,1.5,0.7,2.2c0,0.1,0,0.1,0.1,0.2c0.6,1.6,1.2,3.2,1.9,4.8c0,0,0,0,0,0c0.3,0.7,0.7,1.5,1,2.2c0,0.1,0.1,0.2,0.1,0.3
				c0.3,0.6,0.6,1.3,1,1.9c0.1,0.1,0.1,0.2,0.2,0.4c0.3,0.6,0.7,1.2,1,1.8c0.1,0.1,0.1,0.2,0.2,0.4c0.4,0.6,0.7,1.2,1.1,1.7
				c0.1,0.1,0.1,0.2,0.2,0.3c0.4,0.6,0.8,1.2,1.2,1.7c0,0.1,0.1,0.1,0.1,0.2c0.5,0.6,0.9,1.3,1.4,1.9l0,0c3.6,4.7,7.9,8.6,12.6,11.9
				c0.8,0.5,1.6,1.1,2.4,1.5c0.2,0.1,0.4,0.2,0.5,0.3c1.6,1,3.3,1.9,5,2.7c0.2,0.1,0.4,0.2,0.6,0.3c0.8,0.4,1.7,0.8,2.6,1.1
				c18,7.3,45,22,211.4-54.6c0,0,7-2.4,3.8-10.1C313,344.3,306.2,328.7,303.7,323.1z"/>
	<path style="fill:#DE6262;" d="M60.6,351.8c1.2,28.9,16.6,48.9,37.3,57.4c18,7.3,45,22,211.4-54.6
				c0,0,7-2.4,3.8-10.1c-0.6-1.4-1.5-3.5-2.6-6c-2.6,1.2-5.6,2.6-9.2,4.2l-0.1,0c-70.2,32.3-123.3,51.9-157.9,58.1
				c-27.9,5-47.9-3.2-47.9-3.2c-19.4-7.9-31.5-27-32.3-51.1c-0.1-3.6-0.1-7.1-0.1-10.3C61.2,340.4,60.3,345.5,60.6,351.8z"/>

	<g style="opacity:0.28;">
		<path d="M264.4,361.2l-16.1,20.1c0,0-38.8,16.3-77.3,26.9l14-16.9L264.4,361.2z"/>
	</g>
	<path style="fill:#DE6262;" d="M185,391.4c43.7-14.6,79.5-30.2,79.5-30.2C249.9,326.6,183.6,381.4,185,391.4z"/>

	<circle style="fill:#4D4D4D;" cx="283.4" cy="398.1" r="18.1"/>

	<g style="opacity:0.84;">
		<circle style="fill:#BFBFBF;" cx="283.4" cy="398.1" r="5.5"/>
	</g>

	<g style="opacity:0.22;">
		<ellipse style="fill:#FFFFFF;" cx="124.4" cy="223.5" rx="30.5" ry="33.1"/>
	</g>

	<circle style="fill:#EEAE8A;" cx="192.6" cy="212.5" r="116.5"/>
	<path style="fill:#8A6B58;" d="M266.6,122.3c-35-28.7-84.8-34.6-125.4-14.6c-37.9,18.7-63.2,57.4-65,99.6
									c-1,22.1,5.5,41.8,13.7,61.9c36.4,89.7,48,89.2,66,81.9c22-8.9,33.9-33.5,33.9-71.9C190,173.6,170.1,161.5,266.6,122.3z"/>
	<circle style="fill:#5EC4D1;" cx="267.4" cy="182.7" r="40.6"/>
	<path style="fill:#525252;" d="M314.2,163.7c-8.7-21.5-30.8-34.2-53.7-31c-4.1,0.6-8.2,1.7-12,3.2
							c-22.3,9-34.6,32.2-30.8,55L83.5,245.4c-5.7,2.3-8.4,8.7-6.1,14.4c1.9,4.8,6.9,7.5,11.8,6.8c0.9-0.1,1.8-0.4,2.6-0.7L226,211.5
							c10.7,15.4,29.2,23.9,48.4,21.2c4.1-0.6,8.2-1.7,12-3.2C312.2,219,324.6,189.5,314.2,163.7z M279,211.2c-2.4,1-4.8,1.6-7.3,2
							c-13.9,1.9-27.4-5.8-32.7-18.9c-6.4-15.7,1.2-33.6,16.9-40c2.4-1,4.8-1.6,7.3-2c13.9-1.9,27.4,5.8,32.7,18.9
							C302.2,186.8,294.7,204.8,279,211.2z"/>

	<circle style="fill:#DE6262;" cx="215.3" cy="259.5" r="6"/>
	<ellipse style="fill:#4D4D4D;" cx="220.9" cy="294.1" rx="1.7" ry="2.9"/>
	<ellipse style="fill:#4D4D4D;" cx="217" cy="310.5" rx="1.7" ry="2.9"/>
	<ellipse style="fill:#4D4D4D;" cx="235.2" cy="299.6" rx="1.7" ry="2.9"/>
	<ellipse style="fill:#4D4D4D;" cx="266.9" cy="293.2" rx="1.7" ry="2.9"/>
	<ellipse style="fill:#4D4D4D;" cx="232.8" cy="272.7" rx="1.7" ry="2.9"/>
	<ellipse style="fill:#4D4D4D;" cx="249.9" cy="293.3" rx="1.7" ry="2.9"/>
	<ellipse style="fill:#4D4D4D;" cx="294.6" cy="257.7" rx="1.7" ry="2.9"/>
	<ellipse style="fill:#4D4D4D;" cx="271.6" cy="271" rx="1.7" ry="2.9"/>
	<ellipse style="fill:#4D4D4D;" cx="279.9" cy="256.6" rx="1.7" ry="2.9"/>
	<ellipse style="fill:#4D4D4D;" cx="198.5" cy="240.9" rx="1.7" ry="2.9"/>
	<ellipse style="fill:#4D4D4D;" cx="298.1" cy="238.8" rx="1.7" ry="2.9"/>
	<ellipse style="fill:#4D4D4D;" cx="290" cy="243.5" rx="1.7" ry="2.9"/>
	<ellipse style="fill:#4D4D4D;" cx="253.4" cy="274.4" rx="1.7" ry="2.9"/>
	<ellipse style="fill:#4D4D4D;" cx="199.7" cy="317.7" rx="1.7" ry="2.9"/>
	<ellipse style="fill:#4D4D4D;" cx="197.4" cy="296.5" rx="1.7" ry="2.9"/>
	<ellipse style="fill:#4D4D4D;" cx="223.3" cy="317.7" rx="1.7" ry="2.9"/>
	<ellipse style="fill:#4D4D4D;" cx="209.6" cy="282.2" rx="1.7" ry="2.9"/>
	<ellipse style="fill:#4D4D4D;" cx="197.1" cy="270.3" rx="1.7" ry="2.9"/>
	<ellipse style="fill:#4D4D4D;" cx="248.2" cy="306.2" rx="1.7" ry="2.9"/>
	<ellipse style="fill:#4D4D4D;" cx="283.3" cy="277.9" rx="1.7" ry="2.9"/>

	<g style="filter: url(#scale);">
		<path style="fill:#4D4D4D;" d="M193,88.9c68.4,0,123.9,55.5,123.9,123.9S261.4,336.6,193,336.6
					S69.1,281.2,69.1,212.7S124.6,88.9,193,88.9 M193,58.6c-20.8,0-41,4.1-60,12.1c-18.4,7.8-34.8,18.9-49,33
					c-14.1,14.1-25.3,30.6-33,49c-8,19-12.1,39.2-12.1,60s4.1,41,12.1,60c7.8,18.4,18.9,34.8,33,49c14.1,14.1,30.6,25.3,49,33
					c19,8,39.2,12.1,60,12.1s41-4.1,60-12.1c18.4-7.8,34.8-18.9,49-33c14.1-14.1,25.3-30.6,33-49c8-19,12.1-39.2,12.1-60
					s-4.1-41-12.1-60c-7.8-18.4-18.9-34.8-33-49c-14.1-14.1-30.6-25.3-49-33C234,62.7,213.8,58.6,193,58.6L193,58.6z"/>
		<path style="fill:#4D4D4D;" d="M319.1,110.9c-6.2,0-12.4-2.4-17.2-7.1c-9.5-9.5-9.5-24.9,0-34.4L371.3,0
					l34.4,34.4l-69.4,69.4C331.6,108.5,325.4,110.9,319.1,110.9z"/>
	</g>

	<g style="opacity:0.44;">
		<ellipse style="filter: url(#circle); fill:#FFFFFF;" cx="156.2" cy="253.4" rx="37.8" ry="48.3"/>
	</g>
	<g style="opacity:0.22;">
		<ellipse style="fill:#FFFFFF;" cx="124.4" cy="215.5" rx="30.5" ry="33.1"/>
	</g>
</svg>