<svg xmlns="http://www.w3.org/2000/svg" xmlns:xlink="http://www.w3.org/1999/xlink" viewBox="0 0 376.5 664.9">

	<defs>
		<filter id="clouds" height="130%">
			<feGaussianBlur in="SourceAlpha" stdDeviation="2"/>
			<feOffset dx="1" dy="0" result="offsetblur"/>
			<feComponentTransfer>
				<feFuncA type="linear" slope="0.11"/>
			</feComponentTransfer>
			<feMerge>
				<feMergeNode/>
				<feMergeNode in="SourceGraphic"/>
			</feMerge>
		</filter>

		<filter id="earth" height="200%" width="200%" y="-50%">
			<feGaussianBlur in="SourceGraphic" stdDeviation="4"/>
		</filter>

		<filter id="bottomshadow" height="130%">
			<feGaussianBlur in="SourceGraphic" stdDeviation="1"/>
		</filter>

		<filter id="car" height="130%">
			<feGaussianBlur in="SourceAlpha" stdDeviation="3"/>
			<feOffset dx="-1.5" dy="3" result="offsetblur"/>
			<feComponentTransfer>
				<feFuncA type="linear" slope="0.22"/>
			</feComponentTransfer>
			<feMerge>
				<feMergeNode/>
				<feMergeNode in="SourceGraphic"/>
			</feMerge>
		</filter>

		<filter id="bridge" height="130%">
			<feGaussianBlur in="SourceAlpha" stdDeviation="1.2"/>
			<feOffset dx="0" dy="0.6" result="offsetblur"/>
			<feComponentTransfer>
				<feFuncA type="linear" slope="0.22"/>
			</feComponentTransfer>
			<feMerge>
				<feMergeNode/>
				<feMergeNode in="SourceGraphic"/>
			</feMerge>
		</filter>
	</defs>

	<path style="filter: url(#clouds); fill:#FFFFFF;" d="M293.7,210.1c-7.9,2.1-13.3-1.7-30.3-3.9c-22.8-3-29.9,3.1-35.4-3.3
		c-7.7-9.2,4.6-21.6,14-14.1c2.7-24.2,39.3-22.7,42.7-4.7C297.2,177.9,306.9,206.6,293.7,210.1z"/>
	<linearGradient id="XMLID_2_" gradientUnits="userSpaceOnUse" x1="168.4266" y1="167.6561" x2="168.4266" y2="169.5676">
		<stop offset="0.5241" style="stop-color:#E8978B"/>
		<stop offset="0.6037" style="stop-color:#EDA398"/>
		<stop offset="0.8632" style="stop-color:#FAC5BE"/>
		<stop offset="1" style="stop-color:#FFD2CC"/>
	</linearGradient>
	<polygon style="fill:url(#XMLID_2_);" points="170.9,167.6 168.4,169.6 166,167.7 "/>
	<linearGradient id="XMLID_3_" gradientUnits="userSpaceOnUse" x1="161.8928" y1="167.6621" x2="161.8928" y2="169.5735">
		<stop offset="0.5241" style="stop-color:#E8978B"/>
		<stop offset="0.6037" style="stop-color:#EDA398"/>
		<stop offset="0.8632" style="stop-color:#FAC5BE"/>
		<stop offset="1" style="stop-color:#FFD2CC"/>
	</linearGradient>
	<polygon style="fill:url(#XMLID_3_);" points="164.4,167.7 161.9,169.6 159.4,167.7 "/>
	<linearGradient id="XMLID_4_" gradientUnits="userSpaceOnUse" x1="159.8569" y1="168.0827" x2="159.8569" y2="172.1541">
		<stop offset="0.5241" style="stop-color:#E8978B"/>
		<stop offset="0.6037" style="stop-color:#EDA398"/>
		<stop offset="0.8632" style="stop-color:#FAC5BE"/>
		<stop offset="1" style="stop-color:#FFD2CC"/>
	</linearGradient>
	<polygon style="fill:url(#XMLID_4_);" points="158.5,168.1 161.2,170.1 158.5,172.2 "/>
	<linearGradient id="XMLID_5_" gradientUnits="userSpaceOnUse" x1="161.8585" y1="170.6805" x2="161.8585" y2="172.6402">
		<stop offset="0.5241" style="stop-color:#E8978B"/>
		<stop offset="0.6037" style="stop-color:#EDA398"/>
		<stop offset="0.8632" style="stop-color:#FAC5BE"/>
		<stop offset="1" style="stop-color:#FFD2CC"/>
	</linearGradient>
	<polygon style="fill:url(#XMLID_5_);" points="159.3,172.6 161.9,170.7 164.4,172.6 "/>
	<linearGradient id="XMLID_6_" gradientUnits="userSpaceOnUse" x1="165.1619" y1="168.1452" x2="165.1619" y2="172.147">
		<stop offset="0.5241" style="stop-color:#E8978B"/>
		<stop offset="0.6037" style="stop-color:#EDA398"/>
		<stop offset="0.8632" style="stop-color:#FAC5BE"/>
		<stop offset="1" style="stop-color:#FFD2CC"/>
	</linearGradient>
	<polygon style="fill:url(#XMLID_6_);" points="162.6,170.1 165.2,168.1 167.7,170.1 165.2,172.1 "/>
	<linearGradient id="XMLID_13_" gradientUnits="userSpaceOnUse" x1="168.47" y1="170.6745" x2="168.47" y2="172.6342">
		<stop offset="0.5241" style="stop-color:#E8978B"/>
		<stop offset="0.6037" style="stop-color:#EDA398"/>
		<stop offset="0.8632" style="stop-color:#FAC5BE"/>
		<stop offset="1" style="stop-color:#FFD2CC"/>
	</linearGradient>
	<polygon style="fill:url(#XMLID_13_);" points="165.9,172.6 168.5,170.7 171,172.6 "/>
	<linearGradient id="XMLID_14_" gradientUnits="userSpaceOnUse" x1="170.5549" y1="167.9337" x2="170.5549" y2="172.2779">
		<stop offset="0.5241" style="stop-color:#E8978B"/>
		<stop offset="0.6037" style="stop-color:#EDA398"/>
		<stop offset="0.8632" style="stop-color:#FAC5BE"/>
		<stop offset="1" style="stop-color:#FFD2CC"/>
	</linearGradient>
	<polygon style="fill:url(#XMLID_14_);" points="172,172.3 169.2,170.1 172,167.9 "/>
	<linearGradient id="XMLID_16_" gradientUnits="userSpaceOnUse" x1="245.177" y1="206.7213" x2="245.177" y2="212.4974">
		<stop offset="0.5241" style="stop-color:#E8978B"/>
		<stop offset="0.6037" style="stop-color:#EDA398"/>
		<stop offset="0.8632" style="stop-color:#FAC5BE"/>
		<stop offset="1" style="stop-color:#FFD2CC"/>
	</linearGradient>
	<rect x="243.7" y="206.7" style="fill:url(#XMLID_16_);" width="2.9" height="5.8"/>
	<linearGradient id="XMLID_23_" gradientUnits="userSpaceOnUse" x1="245.1603" y1="188.4278" x2="245.1603" y2="194.2038">
		<stop offset="0.5241" style="stop-color:#E8978B"/>
		<stop offset="0.6037" style="stop-color:#EDA398"/>
		<stop offset="0.8632" style="stop-color:#FAC5BE"/>
		<stop offset="1" style="stop-color:#FFD2CC"/>
	</linearGradient>
	<rect x="243.7" y="188.4" style="fill:url(#XMLID_23_);" width="2.9" height="5.8"/>
	<linearGradient id="XMLID_27_" gradientUnits="userSpaceOnUse" x1="245.1436" y1="170.1343" x2="245.1436" y2="175.9103">
		<stop offset="0.5241" style="stop-color:#E8978B"/>
		<stop offset="0.6037" style="stop-color:#EDA398"/>
		<stop offset="0.8632" style="stop-color:#FAC5BE"/>
		<stop offset="1" style="stop-color:#FFD2CC"/>
	</linearGradient>
	<rect x="243.7" y="170.1" style="fill:url(#XMLID_27_);" width="2.9" height="5.8"/>
	<linearGradient id="XMLID_28_" gradientUnits="userSpaceOnUse" x1="251.8137" y1="206.7153" x2="251.8137" y2="212.4913">
		<stop offset="0.5241" style="stop-color:#E8978B"/>
		<stop offset="0.6037" style="stop-color:#EDA398"/>
		<stop offset="0.8632" style="stop-color:#FAC5BE"/>
		<stop offset="1" style="stop-color:#FFD2CC"/>
	</linearGradient>
	<rect x="250.4" y="206.7" style="fill:url(#XMLID_28_);" width="2.9" height="5.8"/>
	<linearGradient id="XMLID_34_" gradientUnits="userSpaceOnUse" x1="251.797" y1="188.4217" x2="251.797" y2="194.1978">
		<stop offset="0.5241" style="stop-color:#E8978B"/>
		<stop offset="0.6037" style="stop-color:#EDA398"/>
		<stop offset="0.8632" style="stop-color:#FAC5BE"/>
		<stop offset="1" style="stop-color:#FFD2CC"/>
	</linearGradient>
	<rect x="250.4" y="188.4" style="fill:url(#XMLID_34_);" width="2.9" height="5.8"/>
	<linearGradient id="XMLID_37_" gradientUnits="userSpaceOnUse" x1="251.7803" y1="170.1282" x2="251.7803" y2="175.9043">
		<stop offset="0.5241" style="stop-color:#E8978B"/>
		<stop offset="0.6037" style="stop-color:#EDA398"/>
		<stop offset="0.8632" style="stop-color:#FAC5BE"/>
		<stop offset="1" style="stop-color:#FFD2CC"/>
	</linearGradient>
	<rect x="250.3" y="170.1" style="fill:url(#XMLID_37_);" width="2.9" height="5.8"/>
	<linearGradient id="XMLID_44_" gradientUnits="userSpaceOnUse" x1="258.4504" y1="206.7092" x2="258.4504" y2="212.4853">
		<stop offset="0.5241" style="stop-color:#E8978B"/>
		<stop offset="0.6037" style="stop-color:#EDA398"/>
		<stop offset="0.8632" style="stop-color:#FAC5BE"/>
		<stop offset="1" style="stop-color:#FFD2CC"/>
	</linearGradient>
	<rect x="257" y="206.7" style="fill:url(#XMLID_44_);" width="2.9" height="5.8"/>
	<linearGradient id="XMLID_45_" gradientUnits="userSpaceOnUse" x1="258.4337" y1="188.4157" x2="258.4337" y2="194.1917">
		<stop offset="0.5241" style="stop-color:#E8978B"/>
		<stop offset="0.6037" style="stop-color:#EDA398"/>
		<stop offset="0.8632" style="stop-color:#FAC5BE"/>
		<stop offset="1" style="stop-color:#FFD2CC"/>
	</linearGradient>
	<rect x="257" y="188.4" style="fill:url(#XMLID_45_);" width="2.9" height="5.8"/>
	<linearGradient id="XMLID_46_" gradientUnits="userSpaceOnUse" x1="258.417" y1="170.1221" x2="258.417" y2="175.8982">
		<stop  offset="0.5241" style="stop-color:#E8978B"/>
		<stop  offset="0.6037" style="stop-color:#EDA398"/>
		<stop  offset="0.8632" style="stop-color:#FAC5BE"/>
		<stop  offset="1" style="stop-color:#FFD2CC"/>
	</linearGradient>
	<rect x="257" y="170.1" style="fill:url(#XMLID_46_);" width="2.9" height="5.8"/>
	<path style="filter: url(#clouds); fill:#FFFFFF;" d="M353.5,333.9c-7.8-5.6-9.8-12.2-22.3-27.7c-16.7-20.9-27.7-21.6-27-31.4
		c0.9-14,21.3-14.4,23.1-0.5c21.9-18.2,51.3,12.7,39.7,30.7C387.9,312.1,370.3,345.9,353.5,333.9z"/>
	<linearGradient id="XMLID_55_" gradientUnits="userSpaceOnUse" x1="197.5902" y1="128.0819" x2="197.5902" y2="294.4527">
		<stop  offset="0.5241" style="stop-color:#E8978B"/>
		<stop  offset="0.6037" style="stop-color:#EDA398"/>
		<stop  offset="0.8632" style="stop-color:#FAC5BE"/>
		<stop  offset="1" style="stop-color:#FFD2CC"/>
	</linearGradient>
	<path style="filter: url(#bridge); fill:url(#XMLID_55_);" d="M317.2,237.7l0-8.8l-3.3,0c-31.5-2.1-42.9-31.6-46.8-47.9l0-21.7l0-5.1l1,0
		l-3.3-10.1l0-3.5l-1.4,0l0,3.5l-3.3,10.1l0.9,0l0,4.8l-9.3-31.9l-9.1,32.1h0l0-5.1l1,0l-3.3-10.1l0-3.5l-1.4,0l0,3.5l-3.3,10.1
		l0.9,0l0,5.1h0l0,7.2l-32.4,0l0-3.1l-6.6,0l-6.6,0l0,3.1l-32.4,0l0-7.2h0l0-5.1l0.9,0l-3.3-10.1l0-3.5l-1.4,0l0,3.5l-3.2,10.1l1,0
		l0,5.1h0l-9.2-32.1l-9.3,31.9l0-4.8l0.9,0l-3.3-10.1l0-3.5l-1.4,0l0,3.5l-3.2,10.1l1,0l0,5.1l0,21.7c-3.9,16.3-15.2,45.8-46.7,48
		l-3.3,0l0,8.8l44.3,0l0,56.5l42.1,0l0-61.7l25.4-29.4l-2.2-3.3l-29.1,21.2l0-43.4l32.4,0l6.6,0l6.6,0l32.4,0l0,43.4l-29.1-21.2
		l-2.2,3.3l25.5,29.3l0,61.7l42.1,0l0-56.5L317.2,237.7z M190.3,167.6l-2.4,1.9l-2.5-1.9L190.3,167.6z M183.7,167.6l-2.5,1.9
		l-2.4-1.9L183.7,167.6z M170.9,167.6l-2.4,1.9l-2.5-1.9L170.9,167.6z M164.4,167.7l-2.5,1.9l-2.4-1.9L164.4,167.7z M158.5,172.2
		l0-4.1l2.6,2.1L158.5,172.2z M159.3,172.6l2.5-2l2.5,2L159.3,172.6z M162.6,170.1l2.6-2l2.6,2l-2.6,2L162.6,170.1z M165.9,172.6
		l2.5-2l2.5,2L165.9,172.6z M169.2,170.1l2.8-2.2l0,4.4L169.2,170.1z M178.1,168.2l2.4,1.9l-2.4,1.9L178.1,168.2z M178.7,172.6l2.5-2
		l2.5,2L178.7,172.6z M182,170.1l2.6-2l2.6,2l-2.6,2L182,170.1z M185.3,172.6l2.5-2l2.5,2L185.3,172.6z M188.5,170.1l2.4-1.9l0,3.8
		L188.5,170.1z M235.6,167.6l-2.4,1.9l-2.5-1.9L235.6,167.6z M229.1,167.6l-2.5,1.9l-2.4-1.9L229.1,167.6z M216.2,167.6l-2.4,1.9
		l-2.5-1.9L216.2,167.6z M209.7,167.6l-2.5,1.9l-2.4-1.9L209.7,167.6z M204.1,172l0-3.8l2.4,1.9L204.1,172z M204.7,172.6l2.5-2l2.5,2
		L204.7,172.6z M207.9,170.1l2.6-2l2.6,2l-2.6,2L207.9,170.1z M211.3,172.6l2.5-2l2.5,2L211.3,172.6z M214.5,170.1l2.4-1.9l0,3.8
		L214.5,170.1z M223.1,167.9l2.8,2.2l-2.8,2.2L223.1,167.9z M224.1,172.6l2.5-2l2.5,2L224.1,172.6z M227.3,170.1l2.6-2l2.6,2l-2.6,2
		L227.3,170.1z M230.7,172.6l2.5-2l2.5,2L230.7,172.6z M233.9,170.1l2.6-2.1l0,4.1L233.9,170.1z"/>
	<path style="filter: url(#clouds); fill:#FFFFFF;" d="M56.8,304.1c20.7-17.2,33-15.3,34.7-24c4.3-21.5-24-30.4-35.5-7.4
		c-17.4-8.1-44.1-4.6-54.5,23.4c-7.7,20.6,14.2,53.4,28.8,36.7C34,328.8,38.4,319.4,56.8,304.1z"/>
	<linearGradient id="XMLID_56_" gradientUnits="userSpaceOnUse" x1="112.2743" y1="192.3574" x2="112.2743" y2="229.1476">
		<stop offset="0.5241" style="stop-color:#E8978B"/>
		<stop offset="0.6037" style="stop-color:#EDA398"/>
		<stop offset="0.8632" style="stop-color:#FAC5BE"/>
		<stop offset="1" style="stop-color:#FFD2CC"/>
	</linearGradient>
	<path style="fill:url(#XMLID_56_);" d="M122.3,227.3l0,1.8l-25.9,0c7.9-3.2,14.7-8.5,20.5-16
		c5.1-6.6,8.6-14,11.1-20.9l0,35.1L122.3,227.3z"/>
	<rect x="135.2" y="188.5" style="fill:#FFDD75;" width="2.9" height="5.8"/>
	<rect x="135.2" y="170.2" style="fill:#FFDD75;" width="2.9" height="5.8"/>
	<rect x="141.9" y="206.8" style="fill:#FFDD75;" width="2.9" height="5.8"/>
	<rect x="135.2" y="206.8" style="fill:#FFDD75;" width="2.9" height="5.8"/>
	<rect x="141.9" y="188.5" style="fill:#FFDD75;" width="2.9" height="5.8"/>
	<rect x="141.9" y="170.2" style="fill:#FFDD75;" width="2.9" height="5.8"/>
	<rect x="148.5" y="206.8" style="fill:#FFDD75;" width="2.9" height="5.8"/>
	<rect x="148.5" y="188.5" style="fill:#FFDD75;" width="2.9" height="5.8"/>
	<rect x="148.5" y="170.2" style="fill:#FFDD75;" width="2.9" height="5.8"/>
	<rect x="243.7" y="206.7" style="fill:#FFDD75;" width="2.9" height="5.8"/>
	<rect x="242.3" y="189.9" transform="matrix(-9.104207e-04 -1 1 -9.104207e-04 54.0826 436.6355)" style="fill:#FFDD75;" width="5.8" height="2.9"/>
	<rect x="242.2" y="171.6" transform="matrix(-9.104207e-04 -1 1 -9.104207e-04 72.3594 418.3085)" style="fill:#FFDD75;" width="5.8" height="2.9"/>
	<rect x="250.4" y="206.7" style="fill:#FFDD75;" width="2.9" height="5.8"/>
	<rect x="250.4" y="188.4" style="fill:#FFDD75;" width="2.9" height="5.8"/>
	<rect x="250.3" y="170.1" style="fill:#FFDD75;" width="2.9" height="5.8"/>
	<rect x="257" y="206.7" style="fill:#FFDD75;" width="2.9" height="5.8"/>
	<rect x="257" y="188.4" style="fill:#FFDD75;" width="2.9" height="5.8"/>
	<rect x="255.5" y="171.6" transform="matrix(-9.104207e-04 -1 1 -9.104207e-04 85.657 431.5697)" style="fill:#FFDD75;" width="5.8" height="2.9"/>

	<g style="opacity:0.25;">
		<ellipse style="fill:#FFFFFF;" cx="278.8" cy="96.1" rx="75.1" ry="96.1"/>
	</g>
	<g style="opacity:0.5;">
		<ellipse style="fill:#FFFFFF;" cx="344.2" cy="36.3" rx="26.5" ry="33.2"/>
	</g>

	<circle style="fill:#8ACDEB;" cx="188.8" cy="459.1" r="182.5"/>

	<defs>
		<circle id="XMLID_6608_" cx="188.8" cy="459.1" r="182.5"/>
	</defs>
	<clipPath id="XMLID_57_">
		<use xlink:href="#XMLID_6608_"  style="overflow:visible;"/>
	</clipPath>

	<g style="opacity:0.33;">
		<defs>
			<circle id="XMLID_6600_" style="opacity:0.33;" cx="188.8" cy="459.1" r="182.5"/>
		</defs>
		<clipPath id="XMLID_58_">
			<use xlink:href="#XMLID_6600_"  style="overflow:visible;"/>
		</clipPath>
	</g>

	<defs>
		<circle id="XMLID_6579_" cx="188.8" cy="459.1" r="182.5"/>
	</defs>
	<clipPath id="XMLID_59_">
		<use xlink:href="#XMLID_6579_"  style="overflow:visible;"/>
	</clipPath>

	<ellipse style="filter: url(#bottomshadow); opacity:0.4; fill:#403939;" cx="195.3" cy="664" rx="104.9" ry="1"/>
	<path style="fill:#FFD4A5;" d="M315.5,352.4c-10.6-0.1-25.2-18-40.2-10.7c-43.9,21.3-60.7,60.6-36.5,98.5
		c15.6,24.4,71.6,1.7,80.4,29.5c8.6,26.9,5.5,67.1,31.5,73.9c13.2-25.3,20.7-54,20.7-84.5c0-43.2-15-82.8-40.1-114.1
		C328.7,349.2,323.6,352.5,315.5,352.4z"/>
	<path style="fill:#FFD4A5;" d="M29.9,448.1c13.6,18.2-11.6,50.5,29.6,76.9c40.8,26.1,37.8,67.4,84.6,86
		c8.6,3.4,9.7-2.2,7.3-24c-3.6-33.4-9.2-51.1-5.1-64.3c10.5-34.4,20.1-56.7,2.8-63.6c-26.6-10.5-58.9-28.7-73.5-27.9
		c-17.2,1-28,26.9-34,12.6c-13.6-32.2,7.2-43.1,46.9-49.1c22.4-3.4,5.7-59.7,54.4-53.1c24.7,3.4,41.8-17.6,23.6-36.8
		c1.6,1.7,6.1,6.5,0,0c-0.7-0.8-0.5-0.6,0,0c-14.8-15.8-37.8-15.7-60.8-8.2c-42.3,21.6-75,59.3-90.2,104.9
		C15.5,417.7,19.5,434.2,29.9,448.1z"/>
	<path style="filter: url(#earth); opacity:0.5;fill:#FFF6C8;" d="M311.6,324.1c-32.4-29.5-75.5-47.5-122.8-47.5
		c-46.6,0-89.2,17.5-121.4,46.3c32.6-8.3,74.3-18.1,119.7-18.1C234.7,304.7,278.3,315.6,311.6,324.1z"/>

	<circle style="fill:#4D4D4D;" cx="144.7" cy="182.3" r="29.6"/>

	<path style="fill:#89CCEA;" d="M169.8,201.7H169c-13.3,0-27-8-30.4-15.2c-2.9-6.2-2-9.8-0.7-11.8
							c1.4-2.2,4.1-3.6,7.1-3.6h29.6l0.4,1.1c1.1,3.3,1.6,6.6,1.6,10c0,6.8-2.2,13.3-6.2,18.8L169.8,201.7z"/>
	<path style="fill:#64BEE8;" d="M169.8,201.7H169c-13.3,0-27-8-30.4-15.2c-2.9-6.2-2-9.8-0.7-11.8
							c1.4-2.2,4.1-3.6,7.1-3.6h29.6l0.4,1.1c1.1,3.3,1.6,6.6,1.6,10c0,6.8-2.2,13.3-6.2,18.8L169.8,201.7z"/>

	<g style="opacity:0.44;">
		<path style="fill:#FFFFFF;" d="M162.9,198c-0.6,0-1.1-0.2-1.6-0.5c-1.3-0.9-1.6-2.7-0.7-4
			c3.4-5,4.7-11.3,3.5-17.2c-0.3-1.6,0.7-3.1,2.3-3.4c1.6-0.3,3.1,0.7,3.4,2.3c1.5,7.5-0.1,15.3-4.4,21.6
			C164.7,197.6,163.8,198,162.9,198z"/>
	</g>

	<path style="fill:#4D4D4D;" d="M136.2,213.5c-10.1,0-18.3,8.2-18.3,18.3h18.3h18.3
			C154.5,221.7,146.3,213.5,136.2,213.5z"/>
	<path style="fill:#EEAE8A;" d="M175.8,230.8H141c-3.2,0-5.7-2.6-5.7-5.7s2.6-5.7,5.7-5.7h34.8
						c3.2,0,5.7,2.6,5.7,5.7S179,230.8,175.8,230.8z"/>

	<path style="fill:#FFDD75;" d="M353.5,253.9c0.6-2,0.9-4.1,0.8-6.4c-0.1-8.2-3.8-17.7-19.1-26.4
		C333.4,228.1,342.3,251.9,353.5,253.9z"/>
	<path style="filter: url(#car); fill:#586985;" d="M335.3,221.1c-14.8-8.8-51.9-16.8-91.3-21.6c0,0.2,0,0.3-0.1,0.5
		c0-0.2,0-0.3,0.1-0.5c-12.9-1.6-52.9-4.1-54.9-4.2c-3.2-0.1-5.2,2.4-5.8,3.7c-6.4,14.8-21.3,25.6-38.3,25.6c-2.4,0-4.6-0.2-6.9-0.6
		c-6.3-0.5-11-2.6-14.6-5.5c-7.5-4.5-13.3-11.4-16.7-19.5c-0.6-1.5-3-4.6-6.7-4.4c-36.3,2.5-61.7,27.2-56.2,49.2
		c0.6,2.4,3.1,2.1,3.9,0.7c8.6-14.9,26.4-20.8,39.8-19.7c20.1,1.7,36.4,17.8,38.3,37.9c0.4,4,0.2,8-0.5,11.8
		c-0.3,1.7,0.4,4.9,3.3,4.9c2.9,0,116.7,0,120.5,0c3.8,0,3.8-3.4,3.4-5.1c-0.7-3.7-0.9-7.6-0.5-11.6c1.9-19.7,17.6-35.6,37.2-37.7
		c25.2-2.7,46.6,17.1,46.6,41.8c0,1.8,1.1,5.1,5.3,2.5c6.3-4,10.8-9,12.5-15.3C342.3,251.9,333.4,228.1,335.3,221.1z"/>

	<circle style="fill:#525252;" cx="84" cy="267.9" r="6.8"/>
	<path style="fill:#4D4D4D;" d="M84,232.5c-19.5,0-35.4,15.8-35.4,35.4c0,19.5,15.8,35.4,35.4,35.4
				c19.5,0,35.4-15.8,35.4-35.4C119.3,248.4,103.5,232.5,84,232.5z M84,288.5c-11.4,0-20.6-9.2-20.6-20.6
				c0-11.4,9.2-20.6,20.6-20.6s20.6,9.2,20.6,20.6C104.6,279.3,95.4,288.5,84,288.5z"/>
	<circle style="fill:#FFFFFF;" cx="84" cy="267.9" r="20.6"/>
	<g style="opacity:0.25;">
		<path id="XMLID_6445_" style="fill:#FFFFFF;" d="M78.9,293.3c-0.2,0-0.4,0-0.5-0.1c-4.8-1.1-9.1-3.5-12.6-6.9
			c-3.4-3.4-5.8-7.8-6.9-12.6c-0.3-1.3,0.5-2.6,1.8-2.9c1.3-0.3,2.6,0.5,2.9,1.8c0.9,3.9,2.8,7.4,5.6,10.2
			c2.8,2.8,6.3,4.8,10.2,5.6c1.3,0.3,2.1,1.6,1.8,2.9C80.9,292.6,79.9,293.3,78.9,293.3z"/>
	</g>
	<g style="opacity:0.25;">
		<path style="fill:#FFFFFF;" d="M114,258c-0.9,0-1.8-0.6-2.2-1.5c-1.5-3.7-3.7-7-6.6-9.9
			c-2.9-2.9-6.2-5.1-9.9-6.6c-1.2-0.5-1.8-1.9-1.3-3.1c0.5-1.2,1.9-1.8,3.1-1.3c4.3,1.8,8.2,4.3,11.5,7.6c3.3,3.3,5.9,7.2,7.6,11.5
			c0.5,1.2-0.1,2.6-1.3,3.1C114.6,258,114.3,258,114,258z"/>
	</g>
	<circle style="fill:#4D4D4D;" cx="84" cy="267.9" r="6.8"/>

	<circle style="fill:#525252;" cx="293.6" cy="267.9" r="6.8"/>

	<path style="fill:#4D4D4D;" d="M293.6,232.5c-19.5,0-35.4,15.8-35.4,35.4c0,19.5,15.8,35.4,35.4,35.4
			c19.5,0,35.4-15.8,35.4-35.4C329,248.4,313.1,232.5,293.6,232.5z M293.6,288.5c-11.4,0-20.6-9.2-20.6-20.6
			c0-11.4,9.2-20.6,20.6-20.6s20.6,9.2,20.6,20.6C314.2,279.3,305,288.5,293.6,288.5z"/>
	<circle id="XMLID_22_" style="fill:#FFFFFF;" cx="293.6" cy="267.9" r="20.6"/>

	<g style="opacity:0.25;">
		<path style="fill:#FFFFFF;" d="M288.5,293.3c-0.2,0-0.4,0-0.5-0.1c-4.8-1.1-9.1-3.5-12.6-6.9
			c-3.4-3.4-5.8-7.8-6.9-12.6c-0.3-1.3,0.5-2.6,1.8-2.9c1.3-0.3,2.6,0.5,2.9,1.8c0.9,3.9,2.8,7.4,5.6,10.2c2.8,2.8,6.3,4.8,10.2,5.6
			c1.3,0.3,2.1,1.6,1.8,2.9C290.6,292.6,289.6,293.3,288.5,293.3z"/>
	</g>
	<g style="opacity:0.25;">
		<path style="fill:#FFFFFF;" d="M323.6,258c-0.9,0-1.8-0.6-2.2-1.5c-1.5-3.7-3.7-7-6.6-9.9s-6.2-5.1-9.9-6.6
			c-1.2-0.5-1.8-1.9-1.3-3.1c0.5-1.2,1.9-1.8,3.1-1.3c4.3,1.8,8.2,4.3,11.5,7.6c3.3,3.3,5.9,7.2,7.6,11.5c0.5,1.2-0.1,2.6-1.3,3.1
			C324.3,258,323.9,258,323.6,258z"/>
	</g>

	<circle style="fill:#4D4D4D;" cx="293.6" cy="267.9" r="6.8"/>

	<radialGradient id="XMLID_60_" cx="205.1608" cy="274.3154" r="367.4156" gradientUnits="userSpaceOnUse">
		<stop offset="0.1587" style="stop-color:#FFFFFF;stop-opacity:0"/>
		<stop offset="0.2402" style="stop-color:#F8F8F8;stop-opacity:0.1076"/>
		<stop offset="0.3573" style="stop-color:#E5E5E5;stop-opacity:0.2624"/>
		<stop offset="0.496" style="stop-color:#C6C6C7;stop-opacity:0.4458"/>
		<stop offset="0.6513" style="stop-color:#9B9A9C;stop-opacity:0.651"/>
		<stop offset="0.8182" style="stop-color:#646365;stop-opacity:0.8716"/>
		<stop offset="0.9153" style="stop-color:#414042"/>
	</radialGradient>
	<circle style="opacity:0.25;fill:url(#XMLID_60_);" cx="188.8" cy="459.2" r="182.5"/>

	<path style="fill:#FFFFFF;" d="M144.8,279.4c4.1,0,8.8,0,13.9,0c0.1-13.7,0.6-37.1,3.2-58.1c0-0.2,0-0.3,0.1-0.5
				c-4.5,2.1-9.4,3.4-14.6,3.7C145.3,244.7,144.9,266.4,144.8,279.4z"/>
	<path style="fill:#FFFFFF;" d="M104.2,201.1c-15.2,1-36.8,7.1-47.6,20.9c-4.3,5.5-6.3,11.6-6.1,18.4
				c3.6-4.5,8.1-8.1,13-10.6c0.4-0.7,0.9-1.3,1.4-2c8.7-11.1,27.4-17,42.1-18c2.1-0.1,4.1-0.3,6.1-0.3c-2.2-2.6-4-5.5-5.5-8.6
				C106.5,200.9,105.3,201,104.2,201.1z"/>
	<path style="fill:#FFFFFF;" d="M335.5,227.6c-1,0-2.1-0.2-3-0.8c-16.2-9.7-88-21.9-139.4-24.3
				c-0.7,2.3-1.4,5.2-2.1,8.6c-2.7,13.5-5.1,36-5.2,68.4c4.7,0,9.4,0,14.1,0c0.1-33.7,2.6-56,5.2-67.6c1.4,0.1,2.8,0.2,4.2,0.3
				l48.3,33.2c2.6-4.4,6-8.2,9.9-11.4l-26.9-18.5c19.4,2.6,38.3,5.9,53.9,9.2c6.4,0.1,12.4,1.6,17.7,4.3c8.4,2.3,14.6,4.5,17.7,6.3
				c2.7,1.6,5.7,2.1,8.5,1.6C337,233.6,336,230.4,335.5,227.6z"/>
	<path style="fill:#DE6262;" d="M56.5,222c10.8-13.8,32.4-19.9,47.6-20.9c1.1-0.1,2.3-0.1,3.4-0.2
			c-0.3-0.6-0.6-1.2-0.8-1.9c-0.6-1.5-3-4.6-6.7-4.4c-36.3,2.5-61.7,27.2-56.2,49.2c0.6,2.4,3.1,2.1,3.9,0.7c0.8-1.5,1.8-2.8,2.8-4.1
			C50.2,233.7,52.2,227.5,56.5,222z"/>
	<path style="fill:#DE6262;" d="M335.3,221.1c-14.8-8.8-51.9-16.8-91.3-21.6c0,0.2,0,0.3-0.1,0.5
			c0-0.2,0-0.3,0.1-0.5c-9.4-1.1-33-2.8-46-3.6c-4.9-0.3-8.3-0.5-8.9-0.5c-3.2-0.1-5.2,2.4-5.8,3.7c-4.1,9.5-11.8,17.4-21.2,21.8
			c0,0.2,0,0.3-0.1,0.5c-2.6,21-3.2,44.5-3.2,58.1c8.3,0,17.6,0,27,0c0.1-32.3,2.5-54.8,5.2-68.4c0.7-3.4,1.4-6.3,2.1-8.6
			c51.3,2.4,123.1,14.7,139.4,24.3c0.9,0.6,2,0.8,3,0.8C334.9,224.9,334.8,222.6,335.3,221.1z"/>
</svg>
