<svg xmlns="http://www.w3.org/2000/svg" viewBox="0 0 208.9 205.6">

	<filter id="shadow" height="130%">
        <feGaussianBlur in="SourceGraphic" stdDeviation="2"/>
    </filter>

	<radialGradient id="XMLID_61_" cx="102.3832" cy="26.1845" r="221.1446" gradientUnits="userSpaceOnUse">
		<stop offset="0" style="stop-color:#FFD975"/>
		<stop offset="0.1611" style="stop-color:#FDC86B"/>
		<stop offset="0.5036" style="stop-color:#FAA959"/>
		<stop offset="0.7953" style="stop-color:#F8974E"/>
		<stop offset="1" style="stop-color:#F7904A"/>
	</radialGradient>
	<circle style="fill:url(#XMLID_61_);" cx="93.7" cy="111.9" r="93.7"/>
	<path style="filter: url(#shadow); fill:#6B431A;" d="M157.3,94.7c-0.8-1.7-3.9-4.6-5.3-5.9l-44-38.7c-2.3-2-5.7-2.3-8.3-0.7
				L49.7,80.1c-1.6,1-5.6,3.1-6.5,4.8c-0.5,0.9-0.7,4-0.7,4l0,0l-6.1,70.8c-0.4,4.4,2.9,8.2,7.2,8.6l49.8,0.2l49.4,8.2
				c4.4,0.4,8.2-2.9,8.6-7.2l6.1-70.7l0,0C157.6,98.7,158,96.4,157.3,94.7z"/>
	<path style="fill:#EDE5D1;" d="M154.7,93c-0.6-1.7-3.5-4.8-4.8-6.1l-40.7-40.5c-2.1-2.1-5.4-2.6-8.1-1.2
					L50.3,72.1c-1.6,0.9-5.6,2.7-6.6,4.3c-0.5,0.9-0.9,3.9-0.9,3.9l0,0l-10.3,68.8c-0.6,4.3,2.3,8.2,6.6,8.9l96.5,14.4
					c4.2,0.6,8.2-2.3,8.8-6.5l10.3-68.8l0,0C154.7,96.9,155.3,94.7,154.7,93z"/>
	<path style="fill:#EDC255;" d="M42.8,80.2"/>
	<linearGradient id="XMLID_62_" gradientUnits="userSpaceOnUse" x1="154.9523" y1="92.989" x2="147.6028" y2="92.989">
		<stop offset="0" style="stop-color:#7F4E28;stop-opacity:0"/>
		<stop offset="1" style="stop-color:#784A26"/>
	</linearGradient>
	<path style="opacity:0.4;fill:url(#XMLID_62_);" d="M149.3,86.4c0,0,1.1,1,2.2,2.3c1.1,1.3,1.9,2.3,1.9,2.3
					c1.8,2.3,1.6,3.4,1.5,5l-0.6,3.7l-6.7-2L149.3,86.4z"/>
	<rect x="48.6" y="48.6" transform="matrix(0.989 0.1477 -0.1477 0.989 14.6971 -13.5031)" style="fill:#FFFBF5;" width="99.3" height="87.1"/>
	<rect x="88.1" y="88" transform="matrix(0.989 0.1477 -0.1477 0.989 14.5299 -13.5161)" style="fill:#FC6060;" width="20.3" height="6.1"/>
	<rect x="74.3" y="58" transform="matrix(0.989 0.1477 -0.1477 0.989 10.0036 -14.5544)" style="opacity:0.2;fill:#666666;" width="57.4" height="4.1"/>
	<rect x="64.5" y="67.5" transform="matrix(0.989 0.1477 -0.1477 0.989 11.3978 -14.2391)" style="opacity:0.2;fill:#666666;" width="74" height="4.1"/>
	<rect x="71.4" y="77.1" transform="matrix(0.989 0.1477 -0.1477 0.989 12.792 -13.9237)" style="opacity:0.2;fill:#666666;" width="57.4" height="4.1"/>

	<path style="fill:none;" d="M112.2,99.8c-0.5-0.1-0.8-0.5-0.7-1c0.1-0.5,0.5-0.8,1-0.7
						c0.5,0.1,0.8,0.5,0.7,1C113.1,99.5,112.7,99.8,112.2,99.8z"/>
	<path style="fill:#FBFAFF;" d="M130.3,97.9c-2.6,0-4.7,2.1-4.7,4.7c0,0.1,0,0.3,0,0.4c-0.6,0.4-1,1.1-1,1.9
							c0,1.3,1,2.3,2.3,2.3c0.5,0,0.9-0.1,1.3-0.4c0.6,0.3,1.4,0.5,2.1,0.5c2.6,0,4.7-2.1,4.7-4.7C135,100,132.9,97.9,130.3,97.9z"/>
	<path style="fill:#EFF1F5;" d="M111.7,101.7c-3.3,0-6.1,2.7-6.1,6.1c0,0.2,0,0.3,0,0.5
							c-0.8,0.5-1.3,1.4-1.3,2.5c0,1.6,1.3,2.9,2.9,2.9c0.6,0,1.2-0.2,1.6-0.5c0.8,0.4,1.8,0.7,2.8,0.7c3.3,0,6.1-2.7,6.1-6.1
							C117.7,104.4,115,101.7,111.7,101.7z"/>
	<circle style="fill:#ECECED;" cx="70.8" cy="99.1" r="8"/>
	<circle style="fill:#ECECED;" cx="65.1" cy="93.6" r="3.6"/>
	<ellipse style="fill:#FFFFFF;" cx="78.1" cy="107.1" rx="6.8" ry="6.7"/>

	<linearGradient id="XMLID_63_" gradientUnits="userSpaceOnUse" x1="89.1666" y1="96.7074" x2="175.7314" y2="85.932">
		<stop  offset="0" style="stop-color:#FDDD5B"/>
		<stop  offset="9.099822e-02" style="stop-color:#FDD857"/>
		<stop  offset="0.2026" style="stop-color:#FDC94A"/>
		<stop  offset="0.325" style="stop-color:#FEB034"/>
		<stop  offset="0.4541" style="stop-color:#FE8D17"/>
		<stop  offset="0.538" style="stop-color:#FF7300"/>
		<stop  offset="1" style="stop-color:#EB1D00"/>
	</linearGradient>
	<path style="fill:url(#XMLID_63_);" d="M168.6,37.2c0,0-1.7,1.4-4.5,3.8c-1.4,1.2-3.1,2.7-5.1,4.4
		c-1,0.9-2,1.8-3.1,2.7c-1.1,1-2.2,2-3.4,3.1c-2.3,2.2-4.8,4.6-7.4,7.2c-1.3,1.3-2.6,2.7-3.9,4c-1.3,1.4-2.7,2.8-4,4.3
		c-2.7,3-5.4,6.1-8.1,9.3c-2.7,3.2-5.3,6.6-7.7,10.1c-2.5,3.5-4.9,7-7,10.6c-2.2,3.6-4.2,7.2-5.9,10.8
		c-1.8,3.6-3.3,7.1-4.6,10.5c-0.7,1.7-1.2,3.4-1.8,5c-0.5,1.7-1,3.2-1.3,4.8c-0.8,3.1-1.3,6-1.7,8.5c-0.1,1.3-0.3,2.5-0.4,3.6
		c-0.1,1.1-0.2,2.1-0.2,3.1c0,0.9,0,1.8,0,2.5c0,0.7,0,1.3,0,1.8c0,1,0.1,1.5,0.1,1.5l0,0c0,0.3-0.2,0.5-0.5,0.5
		c-0.3,0-0.5-0.2-0.5-0.5c0,0,0-0.5-0.1-1.6c0-0.5-0.1-1.1-0.1-1.9c0-0.7,0-1.6,0-2.5c0-0.9,0.1-2,0.1-3.1
		c0.1-1.1,0.2-2.4,0.3-3.7c0.3-2.6,0.8-5.6,1.5-8.7c0.3-1.6,0.8-3.2,1.2-4.9c0.5-1.7,1-3.4,1.7-5.2c1.2-3.5,2.7-7.2,4.4-10.8
		c1.7-3.7,3.6-7.4,5.8-11.1c2.1-3.7,4.4-7.4,6.9-10.9c2.4-3.6,5-7.1,7.6-10.4c2.6-3.4,5.3-6.6,7.9-9.7c1.3-1.5,2.7-3,4-4.5
		c1.3-1.4,2.6-2.8,3.9-4.2c2.6-2.7,5-5.2,7.3-7.5c1.2-1.1,2.3-2.2,3.3-3.2c1.1-1,2.1-2,3.1-2.9c1.9-1.8,3.7-3.3,5.1-4.6
		c2.8-2.5,4.4-3.9,4.4-3.9c0.9-0.8,2.4-0.7,3.2,0.2C169.7,34.9,169.6,36.3,168.6,37.2C168.7,37.1,168.6,37.2,168.6,37.2z"/>

	<circle style="fill:#FFFFFF;" cx="127.1" cy="105.9" r="2.3"/>
	<circle style="fill:#FFFFFF;" cx="64.6" cy="90" r="1.8"/>
	<path style="fill:#FFFFFF;" d="M137.6,122.8c-1,0.1-1.9,0.8-2.3,1.7c-0.3-0.5-0.9-0.8-1.6-0.8c0,0,0,0,0,0
		c0-0.1,0-0.3,0-0.4c-0.2-2.3-2.2-4-4.5-3.8c-0.4,0-0.7,0.1-1.1,0.2c-1.3-4-4.8-6.8-8.9-7.3c0.1-0.4,0.2-0.7,0.2-1.1
		c1,0.6,2.3,0.9,3.6,0.6c2.5-0.6,4-3.2,3.4-5.7c-0.6-2.5-3.2-4-5.7-3.4c-2.1,0.5-3.4,2.3-3.5,4.3c-1-0.6-2.3-0.9-3.6-0.6
		c-2.3,0.6-3.7,2.7-3.5,4.9c-1.1-0.5-2.2-0.8-3.4-0.8c-0.6-2.2-1.7-4.1-3.2-5.6c0.1-0.6,0.1-1.3,0.1-1.9
		c-0.2-4.3-5.3-9.9-12.1-5.9c-1.6,0.9-3.6,3.8-3.6,6.5c-1,0.7-1.9,1.6-2.7,2.6c-0.7-0.6-1.5-0.9-2.5-0.9
		c-2.1,0-3.9,1.7-3.9,3.9c0,0.6,0.1,1.2,0.4,1.7c-1.8,0.3-3.5,1.1-4.9,2.1c0,0,0-0.1,0-0.1c-0.3-1.2-1.5-2-2.8-1.6
		c-1.2,0.3-2,1.5-1.6,2.8c0.2,0.9,0.9,1.5,1.7,1.7c-1.7,2.3-2.6,5.2-2.3,8.2c0.1,0.7,0.2,1.4,0.4,2c-2.3,0.7-3.8,2.8-3.7,5.3
		l74.6-6.5C140.1,123.6,138.9,122.7,137.6,122.8z"/>
	<circle style="fill:#FFFFFF;" cx="127.5" cy="98.3" r="1.4"/>
	<circle style="fill:#FFFFFF;" cx="138.1" cy="100" r="1.1"/>
	<path style="fill:#F5EDD8;" d="M42.6,81.6l-10.1,67.5c-0.6,4.3,2.3,8.2,6.6,8.9l96.5,14.4
					c4.2,0.6,8.2-2.3,8.8-6.5l10.1-67.3c0.5-3.3-3-5.7-5.9-4L97,123.4c-2.2,1.2-5,0.8-6.7-1l-41-42.9C47,77.1,43.1,78.4,42.6,81.6z"/>

	<polygon style="fill:#586985;" points="143,135.3 141.9,142.8 146.9,149.2 146.9,149.2 148,141.7"/>
	<path style="fill:#586985;" d="M137.5,172.3c1.9-0.2,3.7-1.1,4.9-2.4l-3.8-4.9L137.5,172.3z"/>
	<polygon style="fill:#586985;" points="147.5,105.7 146.3,113.1 151.3,119.5 151.3,119.6 152.4,112.1"/>
	<polygon style="fill:#DE6262;" points="145.2,120.5 144.1,127.9 149.1,134.3 149.1,134.4 150.2,126.9"/>
	<path style="fill:#DE6262;" d="M154.4,97c0,0-0.1-0.7-0.7-1.5c-0.6-0.8-1.4-1.2-1.4-1.2
						c-0.9-0.5-2.1-0.6-3.2-0.2l-0.6,4.2l5,6.4l0,0l0.9-6.3C154.6,97.9,154.5,97.5,154.4,97z"/>
	<polygon style="fill:#DE6262;" points="140.8,150.1 139.7,157.6 144.7,164 144.7,164 145.8,156.6"/>
	<polygon style="fill:#586985;" points="42.8,120.2 41.6,127.7 35,132.3 35,132.3 36.1,124.9"/>
	<path style="fill:#586985;" d="M37.2,157.2c-1.8-0.7-3.2-2.1-4-3.8l5.1-3.6L37.2,157.2z"/>
	<polygon style="fill:#586985;" points="47.2,90.6 46.1,98 39.5,102.7 39.4,102.7 40.5,95.3"/>
	<polygon style="fill:#DE6262;" points="45,105.4 43.9,112.8 37.2,117.5 37.2,117.5 38.3,110.1"/>
	<path style="fill:#DE6262;" d="M43.1,80.3l2.8-1.9c1-0.2,2.2,0.1,3.1,0.9l-0.6,4.1l-6.6,4.7l0,0l0.9-6.3
						C42.7,81.1,42.8,80.7,43.1,80.3z"/>
	<polygon style="fill:#DE6262;" points="40.5,135 39.4,142.5 32.8,147.1 32.8,147.2 33.9,139.7"/>
	<path style="fill:#F5EDD8;" d="M141.8,168.1c-0.4-1.1-0.9-2.1-1.6-3c-0.4-0.6-0.8-1.1-1.3-1.6L98.2,123
					c-2.1-2.1-5.4-2.6-8.1-1.2l-50.7,26.9c-0.6,0.3-1.2,0.7-1.8,1.2c-0.9,0.7-1.7,1.5-2.3,2.4l-1.5,2c1,1.8,2.8,3.2,5,3.7l89.8,13.4
					l7.3,1.1c2.5,0.4,4.9-0.5,6.6-2.2L141.8,168.1z"/>

	<polygon style="fill:#DE6262;" points="42.1,158.4 49.6,159.5 49.6,159.5 42.2,158.4"/>
	<polygon style="fill:#586985;" points="57.7,160.7 65.2,161.9 65.2,161.8 57.8,160.7"/>
	<polygon style="fill:#DE6262;" points="72.6,163 80,164.1 80,164.1 72.6,162.9"/>
	<polygon style="fill:#586985;" points="88.3,165.3 95.8,166.4 95.8,166.4 88.4,165.3"/>
	<polygon style="fill:#DE6262;" points="103.6,167.6 111,168.7 111,168.7 103.6,167.6"/>
	<polygon style="fill:#586985;" points="118.6,169.8 126.1,170.9 126.1,170.9 118.7,169.8"/>
	<path style="fill:#DE6262;" d="M134.7,172.2L134.7,172.2l0.8,0.1c0.3,0,0.6,0.1,0.8,0.1
		c-0.3,0-0.5,0-0.8-0.1L134.7,172.2z"/>
	<path style="fill:#DE6262;" d="M137.2,172.4c-0.2,0-0.3,0-0.5,0C136.9,172.4,137,172.4,137.2,172.4z"/>
	<path style="fill:#DE6262;" d="M138.8,172.1C138.8,172.1,138.8,172.1,138.8,172.1
		C138.8,172.1,138.8,172.1,138.8,172.1z"/>
	<path style="fill:#F5EDD8;" d="M138.8,172.2c-0.5,0.1-1,0.2-1.6,0.3C137.7,172.4,138.3,172.3,138.8,172.2z"
		/>
	<path style="fill:#F5EDD8;" d="M136.7,172.4c-0.1,0-0.2,0-0.3,0C136.5,172.4,136.6,172.4,136.7,172.4z"/>
	<path style="fill:#586985;" d="M35.5,151.5c-0.2,0.2-0.4,0.5-0.6,0.7l-1.5,2c0.5,0.9,1.2,1.6,2,2.3l5.3-4.1
		L35.5,151.5z"/>
	<polygon style="fill:#DE6262;" points="48.6,153.4 42.2,158.4 49.6,159.5 56,154.5"/>
	<polygon style="fill:#586985;" points="64.2,155.8 57.8,160.7 65.2,161.8 71.6,156.9"/>
	<polygon style="fill:#DE6262;" points="79,158 72.6,162.9 80,164.1 86.4,159.1"/>
	<polygon style="fill:#586985;" points="94.8,160.3 88.4,165.3 95.8,166.4 102.2,161.4"/>
	<polygon style="fill:#DE6262;" points="117.4,163.7 117.4,163.7 117.4,163.7 110,162.6 103.6,167.6
		111,168.7 115.6,165.1"/>
	<polygon style="fill:#586985;" points="125.1,164.9 118.7,169.8 126.1,170.9 132.5,166"/>
	<path style="fill:#DE6262;" d="M142.2,170.1l-0.7-2c-0.1-0.3-0.2-0.6-0.3-0.8l0,0l-6.4,5l0.9,0.1
		c0.3,0,0.5,0.1,0.8,0.1c0.1,0,0.2,0,0.3,0c0.2,0,0.3,0,0.5,0c0.5,0,1.1-0.1,1.6-0.3c0,0,0.1,0,0.1,0
		C140.1,171.8,141.3,171.1,142.2,170.1z"/>

	<path style="filter: url(#shadow); opacity:0.5;fill:#7F4E28;" d="M189.7,31.7C189.7,31.7,189.7,31.7,189.7,31.7
			c0-0.2-0.1-0.4-0.1-0.6c0,0,0-0.1,0-0.1c0,0,0-0.1,0-0.1c6.6-3.9,13.3-9.2,16.8-16.1l0,0l0,0c0.1-0.2,0.2-0.5,0.3-0.7
			c0,0,0-0.1,0-0.1c0.1-0.2,0.2-0.4,0.3-0.6c0,0,0-0.1,0.1-0.1c0.1-0.2,0.2-0.4,0.3-0.6c0-0.1,0-0.1,0.1-0.2
			c0.1-0.2,0.1-0.4,0.2-0.6c0-0.1,0-0.1,0.1-0.2c0.1-0.2,0.1-0.4,0.2-0.6c0-0.1,0-0.2,0.1-0.2c0.1-0.2,0.1-0.4,0.2-0.5
			c0-0.1,0-0.2,0.1-0.2c0-0.2,0.1-0.4,0.1-0.5c0-0.1,0-0.2,0.1-0.3c0-0.2,0.1-0.3,0.1-0.5c0-0.1,0-0.2,0.1-0.3
			c0-0.2,0.1-0.3,0.1-0.5c0-0.1,0-0.2,0-0.3c0-0.2,0-0.3,0.1-0.5c0-0.1,0-0.2,0-0.3c0-0.2,0-0.3,0.1-0.5c0-0.1,0-0.2,0-0.3
			c0-0.2,0-0.3,0-0.5c0-0.1,0-0.2,0-0.3c0-0.2,0-0.3,0-0.5c0-0.1,0-0.2,0-0.3c0-0.2,0-0.4,0-0.5c0-0.1,0-0.2,0-0.3
			c0-0.2,0-0.4,0-0.6c0-0.1,0-0.2,0-0.3c0-0.3,0-0.6-0.1-0.9c-0.3-0.1-0.6-0.1-0.9-0.2c-0.1,0-0.2,0-0.3,0c-0.2,0-0.4-0.1-0.6-0.1
			c-0.1,0-0.2,0-0.3,0c-0.2,0-0.4,0-0.5-0.1c-0.1,0-0.2,0-0.3,0c-0.2,0-0.3,0-0.5,0c-0.1,0-0.2,0-0.3,0c-0.2,0-0.3,0-0.5,0
			c-0.1,0-0.2,0-0.3,0c-0.2,0-0.3,0-0.5,0c-0.1,0-0.2,0-0.3,0c-0.2,0-0.3,0-0.5,0c-0.1,0-0.2,0-0.3,0c-0.2,0-0.3,0-0.5,0
			c-0.1,0-0.2,0-0.3,0c-0.2,0-0.4,0-0.5,0.1c-0.1,0-0.2,0-0.3,0c-0.2,0-0.4,0-0.5,0.1c-0.1,0-0.2,0-0.3,0c-0.2,0-0.4,0.1-0.6,0.1
			c-0.1,0-0.2,0-0.2,0c-0.2,0-0.4,0.1-0.6,0.1c-0.1,0-0.1,0-0.2,0c-0.2,0-0.4,0.1-0.6,0.2c-0.1,0-0.1,0-0.2,0
			c-0.2,0.1-0.4,0.1-0.6,0.2c0,0-0.1,0-0.1,0c-0.2,0.1-0.4,0.1-0.7,0.2c0,0-0.1,0-0.1,0c-0.2,0.1-0.5,0.2-0.7,0.3l0,0
			c-7.3,2.8-13.4,9-17.9,15.1c-9.4-3.5-17.9,9.1-17.9,9.1s7.6-2.5,11.8,0.4l0.8,0.9l-1.6,1.5l2,2.2c-1.5,1.8-2.5,3.5-2.7,4.7
			c1.2-0.1,3-0.9,4.9-2.2l2,2.2l1.6-1.5l0.8,0.9c0.1,0.1,0.1,0.3,0.2,0.4c0,0.1,0,0.1,0.1,0.2c0,0.1,0.1,0.2,0.1,0.3
			c0,0.1,0,0.1,0.1,0.2c0,0.1,0.1,0.2,0.1,0.3c0,0.1,0,0.1,0.1,0.2c0,0.1,0,0.2,0.1,0.3c0,0.1,0,0.1,0,0.2c0,0.1,0,0.2,0.1,0.3
			c0,0.1,0,0.1,0,0.2c0,0.1,0,0.2,0,0.3c0,0.1,0,0.1,0,0.2c0,0.1,0,0.2,0,0.3c0,0.1,0,0.1,0,0.2c0,0.1,0,0.2,0,0.3
			c0,0.1,0,0.1,0,0.2c0,0.1,0,0.2,0,0.4c0,0.1,0,0.1,0,0.2c0,0.1,0,0.3,0,0.4c0,0,0,0.1,0,0.1c0,0.2,0,0.3,0,0.5c0,0,0,0,0,0
			c-0.1,0.9-0.2,1.8-0.4,2.6c-0.4,2.2-1.1,3.8-1.1,3.8S191.8,41.3,189.7,31.7z"/>
	<path style="fill:#DE4E4E;" d="M187,30.5L187,30.5c0-0.2-0.1-0.4-0.1-0.6c0,0,0-0.1,0-0.1
			c-0.1-0.2-0.1-0.4-0.2-0.6c0,0,0,0,0,0L176.5,35c0.1,0.1,0.1,0.3,0.2,0.4c0,0.1,0,0.1,0.1,0.2c0,0.1,0.1,0.2,0.1,0.3
			c0,0.1,0,0.1,0.1,0.2c0,0.1,0.1,0.2,0.1,0.3c0,0.1,0,0.1,0.1,0.2c0,0.1,0,0.2,0.1,0.3c0,0.1,0,0.1,0,0.2c0,0.1,0,0.2,0.1,0.3
			c0,0.1,0,0.1,0,0.2c0,0.1,0,0.2,0,0.3c0,0.1,0,0.1,0,0.2c0,0.1,0,0.2,0,0.3c0,0.1,0,0.1,0,0.2c0,0.1,0,0.2,0,0.3
			c0,0.1,0,0.1,0,0.2c0,0.1,0,0.2,0,0.4c0,0.1,0,0.1,0,0.2c0,0.1,0,0.3,0,0.4c0,0,0,0.1,0,0.1c0,0.2,0,0.3,0,0.5c0,0,0,0,0,0
			c-0.1,0.9-0.2,1.8-0.4,2.6c-0.4,2.2-1.1,3.8-1.1,3.8S189.1,40.2,187,30.5z"/>
	<path style="opacity:0.22;" d="M187,30.5L187,30.5c0-0.2-0.1-0.4-0.1-0.6c0,0,0-0.1,0-0.1
			c-0.1-0.2-0.1-0.4-0.2-0.6c0,0,0,0,0,0L176.5,35c0.1,0.1,0.1,0.3,0.2,0.4c0,0.1,0,0.1,0.1,0.2c0,0.1,0.1,0.2,0.1,0.3
			c0,0.1,0,0.1,0.1,0.2c0,0.1,0.1,0.2,0.1,0.3c0,0.1,0,0.1,0.1,0.2c0,0.1,0,0.2,0.1,0.3c0,0.1,0,0.1,0,0.2c0,0.1,0,0.2,0.1,0.3
			c0,0.1,0,0.1,0,0.2c0,0.1,0,0.2,0,0.3c0,0.1,0,0.1,0,0.2c0,0.1,0,0.2,0,0.3c0,0.1,0,0.1,0,0.2c0,0.1,0,0.2,0,0.3
			c0,0.1,0,0.1,0,0.2c0,0.1,0,0.2,0,0.4c0,0.1,0,0.1,0,0.2c0,0.1,0,0.3,0,0.4c0,0,0,0.1,0,0.1c0,0.2,0,0.3,0,0.5c0,0,0,0,0,0
			c-0.1,0.9-0.2,1.8-0.4,2.6C181.1,39.7,183.6,36.9,187,30.5z"/>
	<path style="fill:#FFFFFF;" d="M169.8,36.4c0.2-1.1-0.2-1.9-0.8-2.6c-0.5-0.7-1.4-1.1-2.5-1
			c-4.6,4-5.4,7.5-5.4,7.5S165,40.2,169.8,36.4z"/>
	<path style="fill:#474747;" d="M175.5,34.1c-0.8,0.7-2.1,0.7-2.8-0.2l-3.5-3.9c-0.7-0.8-0.7-2.1,0.2-2.8
				l0.3-0.2c0.8-0.7,2.1-0.7,2.8,0.2l3.5,3.9c0.7,0.8,0.7,2.1-0.2,2.8L175.5,34.1z"/>

	<path style="fill:none;stroke:#FFDD75;stroke-width:3.5416;stroke-miterlimit:10;" d="M196,4.8"/>
	<path style="fill:#FC6060;" d="M168.6,26.2c-4.2-2.8-11.8-0.4-11.8-0.4s9.1-13.6,18.9-8.7L168.6,26.2z"/>

			
	<radialGradient id="XMLID_64_" cx="-290.6909" cy="-34.4853" r="47.1389" gradientTransform="matrix(-0.7051 0.6447 -0.1934 -0.2115 -5.8531 180.4655)" gradientUnits="userSpaceOnUse">
		<stop offset="0" style="stop-color:#3970A1"/>
		<stop offset="0.1405" style="stop-color:#386593"/>
		<stop offset="0.361" style="stop-color:#375984"/>
		<stop offset="0.6186" style="stop-color:#36527B"/>
		<stop offset="1" style="stop-color:#365078"/>
	</radialGradient>
	<path style="fill:url(#XMLID_64_);" d="M206.1,0.6l-7.9,7l-25.7,23l3.9,4.4C187.9,30,208.1,19.2,206.1,0.6z"/>
			
	<radialGradient id="XMLID_65_" cx="-289.7299" cy="-36.6259" r="49.05" gradientTransform="matrix(-0.7127 0.6363 -0.1909 -0.2138 -5.7564 175.7515)" gradientUnits="userSpaceOnUse">
		<stop offset="0" style="stop-color:#6890CC"/>
		<stop offset="0.5671" style="stop-color:#557CB6"/>
		<stop offset="1" style="stop-color:#446AA3"/>
	</radialGradient>
	<path style="fill:url(#XMLID_65_);" d="M206.1,0.6l-7.9,7l-25.7,23l-3.9-4.4C174.9,15.5,187.8-3.5,206.1,0.6z"
				/>
	<path style="opacity:0.15;" d="M195.2,11.3c-0.3-0.4-0.7-0.7-1.1-1c-3-2.2-7.2-1.5-9.4,1.5
				c-1.9,2.6-1.6,6.1,0.4,8.4c0.3,0.4,0.7,0.7,1.1,1c3,2.2,7.2,1.5,9.4-1.5C197.5,17.1,197.3,13.6,195.2,11.3z"/>

	<path style="fill:#DE4E4E;" d="M204.9,10.9c1.1-3.1,1.6-6.6,1.2-10.3l-5.8,5.2L204.9,10.9z"/>
	<path style="fill:#B2DDF0;" d="M200.3,5.8l-2.1,1.9l5.4,6.1c0.5-0.9,0.9-1.8,1.2-2.8L200.3,5.8z"/>
	<path style="fill:#FC6060;" d="M206.1,0.6c-3.7-0.8-7.1-0.7-10.4,0.1l4.6,5.1L206.1,0.6z"/>
	<path style="fill:#FFFFFF;" d="M195.7,0.6c-1,0.2-2,0.5-2.9,0.9l5.4,6.1l2.1-1.9L195.7,0.6z"/>
	<path style="fill:none;stroke:#AD4D4D;stroke-width:1.0061;stroke-miterlimit:10;" d="M187.5,31.2"/>
	<path style="fill:none;stroke:#AD4D4D;stroke-width:1.0061;stroke-miterlimit:10;" d="M187.6,31.1"/>

	<circle style="fill:#474747;" cx="200.8" cy="13.5" r="0.8"/>
	<circle style="fill:#474747;" cx="192.7" cy="4.5" r="0.8"/>

	<path style="fill:#474747;" d="M196.8,8.2c-0.4,0-0.8,0.3-0.8,0.7c0,0.2,0.1,0.4,0.2,0.6l1.2-1.1
				C197.2,8.3,197,8.2,196.8,8.2z"/>
	<path style="fill:#474747;" d="M197.5,9c0-0.2-0.1-0.4-0.2-0.6l-1.2,1.1c0.1,0.2,0.3,0.3,0.5,0.3
				C197.1,9.8,197.5,9.4,197.5,9z"/>
	<path style="opacity:0.15;" d="M172.9,30.9l2.8,3.1c2.3-1.9,7.2-10.4,7.5-13L172.9,30.9z"/>
	<path style="fill:#B2DDF0;" d="M195.4,10.2l-10,9c0.3,0.4,0.7,0.7,1.1,1c3,2.2,7.2,1.5,9.4-1.5
				C197.7,16,197.4,12.5,195.4,10.2z"/>
	<path style="fill:#FFFFFF;" d="M194.3,9.2c-3-2.2-7.2-1.5-9.4,1.5c-1.9,2.6-1.6,6.1,0.4,8.4l10-9
				C195,9.8,194.7,9.5,194.3,9.2z"/>
				
	<radialGradient id="XMLID_66_" cx="-295.5562" cy="-6995.8711" r="6.3369" gradientTransform="matrix(0.7759 0.5574 0.5574 -0.7759 4320.6929 -5251.6973)" gradientUnits="userSpaceOnUse">
		<stop offset="0" style="stop-color:#3970A1"/>
		<stop offset="0.4947" style="stop-color:#46A9EB"/>
		<stop offset="1" style="stop-color:#24E2FF"/>
	</radialGradient>
	<circle style="fill:url(#XMLID_66_);" cx="190.4" cy="14.7" r="4.2"/>
	<path style="opacity:0.33;fill:none;stroke:#FFFFFF;stroke-width:3.8671;stroke-linecap:round;stroke-linejoin:round;stroke-miterlimit:10;" d="
					M190.8,12.1c0.7,0,1.4,0.3,1.9,0.9"/>
	<path style="opacity:0.15;" d="M187.1,13.1c1.4-1.9,4-2.3,5.9-1c0.8,0.6,1.4,1.4,1.6,2.3
					c-0.1-1.2-0.7-2.4-1.8-3.2c-1.9-1.4-4.6-0.9-5.9,1c-0.8,1.1-1,2.4-0.6,3.6C186.2,14.9,186.5,14,187.1,13.1z"/>
	<path style="fill:#CF5555;" d="M167.1,35.5L167.1,35.5l16.1-14.4C179.4,20.3,167.8,31.3,167.1,35.5z"/>
	<path style="fill:#CF5555;" d="M183.2,21.1l-16.1,14.4C171.4,35.2,183.6,24.9,183.2,21.1L183.2,21.1z"/>
	<path style="fill:#F26666;" d="M167.1,35.5L167.1,35.5l16.1-14.4C179.4,20.3,167.8,31.3,167.1,35.5z"/>
	<path style="fill:#DE4E4E;" d="M183.2,21.1l-16.1,14.4C171.4,35.2,183.6,24.9,183.2,21.1L183.2,21.1z"/>
</svg>
